<svg xmlns="http://www.w3.org/2000/svg" width="408.091" height="95.3" viewBox="0 0 408.091 95.3">
  <g id="Group_528" data-name="Group 528" transform="translate(-36.624 -25.85)">
    <g id="Group_488" data-name="Group 488" transform="translate(-2 0.25)">
      <g id="Symbols" transform="translate(399.472 28.448)">
        <g id="Navigation" transform="translate(-360.448 -2.448)">
          <g id="Logo" transform="translate(0)">
            <g id="Group_487" data-name="Group 487" transform="translate(0 0)">
              <g id="Text" transform="translate(102.926 3.527)">
                <path id="Town-Development-Fun" d="M8.069,57.239V45.619H12.25V42.248H0v3.372H4.2v11.62H8.069Zm12.79.27c4.585,0,8-3.191,8-7.754S25.444,42,20.859,42s-8.024,3.192-8.024,7.754S16.273,57.508,20.859,57.508Zm0-3.417a4.07,4.07,0,0,1-4.091-4.338,4.087,4.087,0,1,1,8.159,0A4.052,4.052,0,0,1,20.859,54.092ZM45.9,57.239,50.19,42.248H45.83l-2.248,10-2.563-10H38.053l-2.563,10-2.27-10H28.882l4.294,14.991h4.09l2.27-9.395,2.27,9.395H45.9Zm19.442,0V42.248H61.451V50.5l-6.068-8.248H51.4V57.239H55.27V48.564l6.338,8.675Zm14.767,0c4.7,0,8.092-2.854,8.092-7.507s-3.395-7.485-8.114-7.485H73.791V57.239Zm-.022-3.372H77.657V45.619h2.449a3.84,3.84,0,0,1,4.136,4.113A3.98,3.98,0,0,1,80.085,53.867Zm21.038,3.372V53.867H94v-2.54h6.967V47.956H94V45.619h7.125V42.248H90.131V57.239Zm11.171,0,5.642-14.991h-4.383l-3.686,10.811-3.71-10.811h-4.383l5.642,14.991Zm17.733,0V53.867H122.9v-2.54h6.967V47.956H122.9V45.619h7.125V42.248h-10.99V57.239Zm12.073,0V53.867h-6.026V42.248h-3.865V57.239Zm8.7.27c4.584,0,7.991-3.191,7.991-7.754S155.386,42,150.8,42s-8.032,3.192-8.032,7.754,3.434,7.754,8.032,7.754Zm0-3.417a4.068,4.068,0,0,1-4.091-4.338,4.085,4.085,0,1,1,8.155,0A4.054,4.054,0,0,1,150.8,54.092Zm13.82,3.147V52.2h3.64a4.984,4.984,0,1,0,0-9.957H160.75V57.239h3.872Zm3.051-8.406h-3.051V45.619h3.051a1.626,1.626,0,1,1,0,3.214Zm24.548,8.406V42.248h-5.377l-3.12,8.271-3.147-8.271H175.2V57.239h3.872V47.327l3.8,9.912h1.7l3.777-9.912v9.912h3.872Zm13.683,0V53.867h-7.115v-2.54h6.965V47.956h-6.965V45.619H205.9V42.248H194.917V57.239Zm16.187,0V42.248h-3.886V50.5l-6.075-8.248h-3.968V57.239h3.859V48.564l6.335,8.675h3.736Zm9.907,0V45.619h4.187V42.248H223.939v3.372h4.2v11.62H232Zm15.654,0V51.328h6.965V47.956h-6.965V45.619h7.115V42.248H243.779V57.239Zm16.31.27c4.816,0,7.061-2.63,7.061-6.36v-8.9h-3.913v8.787a3.156,3.156,0,0,1-6.308,0V42.248H256.86V51.17C256.86,54.857,259.159,57.508,263.962,57.508Zm23.7-.27V42.248h-3.9V50.5L277.7,42.248h-3.982V57.239h3.872V48.564l6.335,8.675Zm9,0c4.707,0,8.1-2.854,8.1-7.507s-3.393-7.485-8.114-7.485h-6.294V57.239Zm-.014-3.372h-2.436V45.619h2.449a3.843,3.843,0,0,1,4.146,4.113A3.983,3.983,0,0,1,296.651,53.867Z" transform="translate(0 19.607)" fill="#fdcab6" fill-rule="evenodd"/>
              </g>
              <g id="TDF-LOGO" transform="translate(0 0)">
                <g id="Group-25" transform="translate(1.867 1.873)">
                  <path id="Stroke-1" d="M44.806,87.725A42.867,42.867,0,1,0,2.02,44.858,42.825,42.825,0,0,0,44.806,87.725Z" transform="translate(0.487 0.521)" fill="none" stroke="#273777" stroke-width="0.843" fill-rule="evenodd"/>
                  <path id="Fill-3" d="M45.481,90.911A45.378,45.378,0,1,0,.188,45.532,45.336,45.336,0,0,0,45.481,90.911" transform="translate(-0.188 -0.155)" fill="#fff" fill-rule="evenodd"/>
                  <path id="Stroke-5" d="M45.481,90.911A45.378,45.378,0,1,0,.188,45.532,45.336,45.336,0,0,0,45.481,90.911Z" transform="translate(-0.188 -0.155)" fill="none" stroke="#273777" stroke-width="0.8" fill-rule="evenodd"/>
                  <path id="Stroke-7" d="M41.47,71.976A30.449,30.449,0,1,0,11.078,41.527,30.42,30.42,0,0,0,41.47,71.976Z" transform="translate(3.823 3.868)" fill="none" stroke="#273777" stroke-width="0.843" fill-rule="evenodd"/>
                  <path id="Stroke-9" d="M26.2,15.8a7.861,7.861,0,0,1,.059.9,9.806,9.806,0,0,1-9.8,9.816A8.935,8.935,0,0,1,15,26.447c-.033.059-.071.114-.1.171a9.569,9.569,0,0,1,2.328,6.371,9.812,9.812,0,0,1-5.855,8.982l-.016.233a9.806,9.806,0,0,1,4.484,14.917l.088.19a8.91,8.91,0,0,1,1.2-.088,9.807,9.807,0,0,1,9.8,9.816c0,.219-.01.434-.026.649l.331.252s3.58-1.85,5.713-1.85a9.788,9.788,0,0,1,8.67,5.254s.528.1.53.022a9.769,9.769,0,0,1,14.512-3.6c.055-.031.112-.06.167-.093A9.795,9.795,0,0,1,67.558,56.8c.105-.181.222-.356.323-.539a9.8,9.8,0,0,1,3.811-14.878c0-.019,0-.037,0-.055A9.806,9.806,0,0,1,67.73,26.484c-.126-.222-.242-.452-.374-.67A9.784,9.784,0,0,1,56.255,15c-.088-.049-.171-.107-.26-.156a9.773,9.773,0,0,1-15.054-3.785c-.086,0-.171.01-.257.012a9.794,9.794,0,0,1-8.1,6.008c-.2.022-.4.034-.594.045-.125,0-.244.027-.369.027-.026,0-.049,0-.075-.005s-.075.005-.114.005A9.7,9.7,0,0,1,26.4,15.743c-.074-.044-.194.062-.194.062Z" transform="translate(3.925 3.86)" fill="none" stroke="#273777" stroke-width="0.843" fill-rule="evenodd"/>
                  <path id="Stroke-11" d="M31.388,13.223a4.184,4.184,0,0,0,4.279.014" transform="translate(11.303 4.658)" fill="none" stroke="#273777" stroke-width="0.562" fill-rule="evenodd"/>
                  <path id="Stroke-13" d="M41.524,15.159a4.186,4.186,0,0,0,3.627,2.1c.086,0,.172,0,.259-.008" transform="translate(15.037 5.371)" fill="none" stroke="#273777" stroke-width="0.562" fill-rule="evenodd"/>
                  <path id="Stroke-15" d="M49.861,21.784a4.213,4.213,0,0,0,2.2,4.547" transform="translate(18.079 7.811)" fill="none" stroke="#273777" stroke-width="0.562" fill-rule="evenodd"/>
                  <path id="Stroke-17" d="M53.306,31.454a4.21,4.21,0,0,0,.168,4.481" transform="translate(19.168 11.373)" fill="none" stroke="#273777" stroke-width="0.562" fill-rule="evenodd"/>
                  <path id="Stroke-19" d="M13.617,36.475a4.212,4.212,0,0,0-.067-4.417" transform="translate(4.733 11.595)" fill="none" stroke="#273777" stroke-width="0.562" fill-rule="evenodd"/>
                  <path id="Stroke-21" d="M15.29,26.072a4.2,4.2,0,0,0,2.2-3.693q0-.131-.008-.259" transform="translate(5.374 7.935)" fill="none" stroke="#273777" stroke-width="0.562" fill-rule="evenodd"/>
                  <path id="Stroke-23" d="M22.025,17.466c.092.005.183.008.278.008a4.187,4.187,0,0,0,3.659-2.154" transform="translate(7.855 5.431)" fill="none" stroke="#273777" stroke-width="0.562" fill-rule="evenodd"/>
                </g>
                <path id="Stroke-26" d="M25.467,18.269l2.687,4.265" transform="translate(8.625 5.973)" fill="none" stroke="#273777" stroke-width="0.562" fill-rule="evenodd"/>
                <path id="Stroke-27" d="M45.279,18.218l-2.542,4.1" transform="translate(14.985 5.955)" fill="none" stroke="#273777" stroke-width="0.562" fill-rule="evenodd"/>
                <path id="Stroke-28" d="M50.5,34.992h5.346" transform="translate(17.844 12.133)" fill="none" stroke="#273777" stroke-width="0.562" fill-rule="evenodd"/>
                <path id="Stroke-29" d="M15.807,35.484h5.347" transform="translate(5.067 12.314)" fill="none" stroke="#273777" stroke-width="0.562" fill-rule="evenodd"/>
                <g id="Group-36" transform="translate(23.866 20.898)">
                  <path id="Fill-30" d="M2.729,11.01l1.341.744.351-.635-1.984-1.1.195-.352-.272-.151L.71,12.5l.272.151,1.1-1.994.3.168a2.856,2.856,0,0,0-.526.673,1.657,1.657,0,0,0-.248.92.869.869,0,0,0,.48.728.857.857,0,0,0,.715.078,1,1,0,0,0,.564-.516.819.819,0,0,0-.349-1.231.658.658,0,0,0-.818.13,1.973,1.973,0,0,1,.522-.592m-.419.94q.088-.158.446.029c.266.134.358.274.277.419a.244.244,0,0,1-.261.108.626.626,0,0,1-.277-.088c-.34-.207-.429-.462-.27-.766l.056.38a.263.263,0,0,1,.028-.082" transform="translate(-0.71 3.223)" fill="#273777" fill-rule="evenodd"/>
                  <path id="Fill-32" d="M33.835,10.527a1.52,1.52,0,0,0-.108-.331.986.986,0,0,0-.584-.565,1.007,1.007,0,0,0-.765.075.839.839,0,0,0-.5.6,1.3,1.3,0,0,0,.13.831.7.7,0,0,0,.223.319l-.187.088.311.669,1.437-.672a.713.713,0,0,1,.223.271q.187.4-.308.639a.953.953,0,0,1-.389.1.331.331,0,0,1-.343-.186.389.389,0,0,1-.018-.282l-.342.323a1.2,1.2,0,0,0,.068.181,1.1,1.1,0,0,0,.591.587.959.959,0,0,0,.785-.016.883.883,0,0,0,.5-.535,1.016,1.016,0,0,0-.068-.774,1.1,1.1,0,0,0-.378-.456l.3-.138.783,1.68.282-.133L33.741,9.07l-.282.132.643,1.382-1.522.712a.525.525,0,0,1-.193-.218.37.37,0,0,1,.045-.4.784.784,0,0,1,.317-.253.922.922,0,0,1,.4-.1.347.347,0,0,1,.341.2.6.6,0,0,1,.042.289l.3-.293Zm-.348,4.116,2.057-.961.17.365L36,13.917l-.562-1.208-.282.131.086.185-2.057.961Zm2.026-3.148a.4.4,0,0,1,.134.163.729.729,0,0,1,.019.5l-.218.577.359.77.333-1.018a.991.991,0,0,0-.092-.727,1.35,1.35,0,0,0-.263-.39l-.272.127Z" transform="translate(10.762 3.059)" fill="#273777" fill-rule="evenodd"/>
                  <path id="Fill-34" d="M17.493,1.251a.273.273,0,0,1-.13-.27Q17.431.6,18.155.6a1.345,1.345,0,0,1,1.195.644L20.1,1A2.7,2.7,0,0,0,18.982.38,3.4,3.4,0,0,0,17.838.208a1.855,1.855,0,0,0-.82.187.622.622,0,0,0-.352.654.3.3,0,0,0,.125.2h-.215v.311h.193V3.836h.724V1.562h.4V1.251h-.4Zm1.624.534a1.518,1.518,0,0,0-.35-.042.946.946,0,0,0-.742.278,1.017,1.017,0,0,0-.238.735.951.951,0,0,0,.289.708,1.081,1.081,0,0,0,.764.257.776.776,0,0,0,.453-.094v.208h.725V1.562h.4V1.251H17.787v.311h1.505V3.2a.536.536,0,0,1-.334.129.344.344,0,0,1-.322-.208.789.789,0,0,1-.086-.379q0-.627.471-.633a.522.522,0,0,1,.244.062l-.148-.39Z" transform="translate(5.134 -0.206)" fill="#273777" fill-rule="evenodd"/>
                </g>
                <g id="Group-131" transform="translate(27.682 25.811)">
                  <g id="Group-39" transform="translate(14.775 0)">
                    <path id="Fill-37" d="M22.669,10.263c-1.543.14-3.34.052-5.3.163.134.616-.4,1.667,0,2.617.6.062.308-.962,0-.982.182-.09.4-.143.408-.409a10.321,10.321,0,0,1,2.2.082c.743.052,1.39-.51,1.715.245a3.712,3.712,0,0,1-.49,2.372c-1.225.075-1.869,0-2.939,0-.1-.421-.272-.762-.733-.817-.261-.072-.17.212-.327.245a12.182,12.182,0,0,1,0,2.7c.044,1.1.468,2.349-.163,3.272-.531-.627-.164-1.474-.163-2.208,0-2.6-.148-4.94-.164-7.687,1.039-.576,2.62.225,3.592-.327.257-.039.216.219.408.245.6-.466,1.08.081,1.552-.082.075-.512-.519-.353-.735-.572-.071-.263.211-.17.245-.328-.186-.525-.617-1.2-1.307-.736a1.534,1.534,0,0,1-.163.654c.389.182,1.177-.033,1.062.655-.78-.091-1.987.2-2.612-.491H18.1c-.345-.2-.38-.71-.817-.819-.3.492.4.617.572.9-.1.491-.564.539-.98.327-.512-.765.179-4.688-.245-5.233a.475.475,0,0,0-.817,0,16.2,16.2,0,0,1,0,4.661c.008.43.551.32.572.737a.668.668,0,0,1-1.143.082,2.814,2.814,0,0,0-.163-2.045c-.4.033-.461.411-.736.572H12.711c-.666-1.368.865-1.462.734-2.781.43-.411,1.365-.383,1.551.164-.568.267-.168,1.038-.654,1.309.149.232.478.286.654.491.568-.934-.01-1.605.163-2.944-.018-.364-.471-.291-.653-.49.019-.4-.144-.62-.082-1.063-.818-.167-.684.623-.979.981a2.329,2.329,0,0,0-1.469.245c-.108,1.782-.731,3.064-.082,4.743-.493,1.56-.066,3.828-.816,5.4-.784-.229-.407-1.286-.408-1.963a17.085,17.085,0,0,1,.08-3.925c-.391-1.174.063-2.2-.163-3.435-1.333-.329-3.1.088-4.815-.164-.524,1.027-.219,2.172-.245,3.108-.006.179-.131.232-.163.409-.04.212.169.583.163.9,0,.084-.167.267-.163.328.063,1.2.434,2.538-.245,3.843-.66-1.238-.18-3.346-.245-5.071C4.829,6.9,4.727,5.3,4.793,3.966c.734-.066,1.4.289,2.041-.163a15.545,15.545,0,0,0,4.9,0c.067-.239-.487-.265-.246-.409.212-.563.98-.094,1.47-.409V2.494c-.166-.187-.678-.03-.979-.081a.918.918,0,0,0-.408-.655,8.387,8.387,0,0,1-1.47.082C9.133.761,7.652,2.093,7.9,3.23c-.066.07-.225.049-.246.163-.68.055-.686-.566-.979-.9-.387.062-.561-.091-.9-.081-.381.217-.266.932-.98.818C4.581,2.336,5,1.272,4.3.94c-.514.057-.576.567-1.061.654-.98-.57-1.816.4-2.774.082C1.946-.362,6.024.462,8.549.7a25.048,25.048,0,0,1,7.1,2.045c2.3.976,3.964,3.122,5.877,4.579.27,1.091.98,1.745,1.143,2.944M17.282,5.192a11.039,11.039,0,0,0,0,2.29c.61-.546,1.808-.518,1.387-1.881-.405-.212-.835-.585-1.387-.409m1.8,2.862c.509-.225,1.056-.412,1.06-1.144-.608-.2-2.133.634-1.06,1.144m-.736,4.826c.675.434,2.494.608,2.857-.245-.565-.724-2.478-.777-2.857.245" transform="translate(-0.469 -0.333)" fill="#1a1918" fill-rule="evenodd"/>
                  </g>
                  <path id="Fill-40" d="M10.03,1.957a8.788,8.788,0,0,0-1.061.818c-.135-.175.1-.5.163-.736.275-.026.7-.491.9-.082" transform="translate(2.049 0.204)" fill="#1a1918" fill-rule="evenodd"/>
                  <path id="Fill-42" d="M14.2,1.913a.932.932,0,0,1,0,.818c-.352.053-.457-.141-.653-.245.083-.325.205-.611.653-.572" transform="translate(3.752 0.248)" fill="#1a1918" fill-rule="evenodd"/>
                  <path id="Fill-44" d="M20.22,2.226a1.9,1.9,0,0,1-.163.491,22.694,22.694,0,0,1-2.449-.082,1.233,1.233,0,0,0,0-.654c.777.175,1.736-.318,2.612.245" transform="translate(5.246 0.262)" fill="#1a1918" fill-rule="evenodd"/>
                  <path id="Fill-46" d="M14.369,3.073a.914.914,0,0,1-.164.654c-.382,0-.664-.1-.653-.49-.022-.338.632-.288.817-.164" transform="translate(3.752 0.642)" fill="#1a1918" fill-rule="evenodd"/>
                  <path id="Fill-48" d="M14.012,7.587c-.462.554-1.1.257-1.877.409-.962-.565-.349-2.165.326-2.7V4.724c.361-.321.531-.832,1.144-.9.291.2.389.591.571.9a10.729,10.729,0,0,0-.163,2.862m-.98-1.309c-.082.246.181.146.327.165V6.2a.458.458,0,0,0-.327.081" transform="translate(3.047 0.953)" fill="#1a1918" fill-rule="evenodd"/>
                  <path id="Fill-50" d="M18.092,3.977c.467.329.223.795.163,1.39-.123,1.247.183,3.047.164,4.58a1.1,1.1,0,0,1-2.042-.409c.479-.589.168-1.215.082-1.963-.037-.322.115-.711.081-1.063-.022-.24-.239-.494-.245-.654,0-.138.212-.109.245-.246.026-.1-.187-.224-.163-.408s.3-.335,0-.655c.2-.757.863-.8,1.715-.572" transform="translate(4.762 0.965)" fill="#1a1918" fill-rule="evenodd"/>
                  <path id="Fill-52" d="M9.542,7.907c-.413.059-.484-.224-.816-.245-.387.022-.46.358-.735.49A1.687,1.687,0,0,1,6.522,7.5c-.4.089-.234.746-.734.736C5.163,7.586,5.751,6.661,5.38,5.7c.223-.243.592.162.816-.082a1.133,1.133,0,0,0,.245-.9c.317-.336,1.1-.209,1.307-.654.668.062.616,1.146,1.306,1.308.2.049.5-.159.734-.082,1.1.368.769,2.2-.245,2.617M7.093,5.617c.009.959,1.858,1.716,2.531.737-.589-.2-1.569-.069-1.958-.655-.058-.3.14-.351.082-.654-.571-.3-.656.351-.654.572M5.951,6.926a2.964,2.964,0,0,1,.571.245C6.5,6.98,6.393,6.865,6.441,6.6c-.193.079-.518.026-.49.327" transform="translate(0.742 1.041)" fill="#1a1918" fill-rule="evenodd"/>
                  <path id="Fill-54" d="M13.492,7.135c.764-.557.423-1.316.327-2.372.339-.38.714-.007.816.492a15.077,15.077,0,0,1,.082,1.88c-.193.742-.984.767-1.225,0" transform="translate(3.73 1.241)" fill="#1a1918" fill-rule="evenodd"/>
                  <path id="Fill-56" d="M5.4,6.15a2.917,2.917,0,0,0,0,1.063c-.369.276-.622.166-1.144.246-.087-.775.018-2,1.144-1.309" transform="translate(0.318 1.735)" fill="#1a1918" fill-rule="evenodd"/>
                  <path id="Fill-58" d="M21.531,8.829c1.123.544.862-.982,1.468-1.226.3,0,.367.232.572.327-.17.96-.027,1.727-.572,2.289a9.168,9.168,0,0,1-2.856-.081,15.48,15.48,0,0,1-.082-2.045,10.691,10.691,0,0,0,1.225-.982c.48.322.2.931.245,1.718" transform="translate(6.14 2.164)" fill="#1a1918" fill-rule="evenodd"/>
                  <path id="Fill-60" d="M13.1,7.552a.83.83,0,0,1,.081,1.063c.03.735,1.017.509,1.552.737.328-.672-.1-1.226.163-1.881,1.289.129.784,1.648.735,2.535-.071,1.291.484,2.747.163,3.843-.071.229-.4.194-.408.491-.12.446.208.445.327.654-.45.468.216,1.742.081,2.289-.263,1.077-1.728.818-2.938.818-.621-.493-.264-1.861-.163-2.453.527-.259.784.4.733.981.389.2.74-.057,1.226,0,.64-.591.218-1.039.244-1.717-.2-.1-.241-.357-.572-.327-.222.185.055.872-.161,1.063-1.225.185-1.27-2.322.406-1.962a2.237,2.237,0,0,0,.164-2.373,8.469,8.469,0,0,1-2.367.246c-.551-.387.014-.838-.245-1.227-.338-.509-.519.028-1.144-.164-1-.308-.527-1.649-.326-2.454A7.828,7.828,0,0,1,13.1,7.552m-1.715,1.39c.289.3.74.2,1.143.164.264-.762-1.289-.963-1.143-.164" transform="translate(2.576 2.296)" fill="#1a1918" fill-rule="evenodd"/>
                  <path id="Fill-62" d="M6.133,8.348c-.529.64.04,1.406-.326,2.045.572.762.089,2.043.408,3.189a5.065,5.065,0,0,0-.49,2.044c.034.265.339.26.408.491-.459.684-.014,1.088.082,1.8-.307.365-.838.044-1.144-.081a4.907,4.907,0,0,1-2.692.245,1.916,1.916,0,0,1,.979-2.535,2.35,2.35,0,0,1,.408-1.635c.423-.242,1,.092,1.387-.082-.021-1.3-.229-2.713.409-3.516-.04-1.017-.841-2.091-.245-2.781.456.088.553.536.816.818M3.684,16.771c.337.181.669,0,.979-.082-.054-.822.222-1.441-.245-1.8-.024.817-.91,1.127-.734,1.881" transform="translate(-0.42 2.318)" fill="#1a1918" fill-rule="evenodd"/>
                  <path id="Fill-64" d="M6.179,7.6c.267.477-.1,1.176.245,1.471.4-.077.038-.442.245-.654a4.407,4.407,0,0,1,3.346-.327,5.952,5.952,0,0,1,0,2.127c-.549.622-2.282.057-2.2,1.308a5.016,5.016,0,0,0-1.388.081c-.377.977.176,2.191-.082,3.272.717-.146,2.052-.6,2.285.572,1.533-.309,1.848,1.2,1.388,2.373-1.476.55-3,.052-4.407.163a73.842,73.842,0,0,1,0-10.385,1.225,1.225,0,0,1,.571,0m.9,1.717a2.341,2.341,0,0,0,.083.9c.844-.136.925-1.035,1.8-1.146-.32-.981-1.261.242-1.878.245m.245,7.116a1.466,1.466,0,0,0,.98.163c-.183-.389-.377-.766-.9-.818-.125.12-.071.42-.082.655" transform="translate(0.758 2.331)" fill="#1a1918" fill-rule="evenodd"/>
                  <path id="Fill-66" d="M4.021,7.732a.533.533,0,0,1-.082.409q-.436.028-.408-.409a.4.4,0,0,1,.49,0" transform="translate(0.06 2.362)" fill="#1a1918" fill-rule="evenodd"/>
                  <path id="Fill-68" d="M3.858,8.8a3.528,3.528,0,0,1-.163,2.29,5.291,5.291,0,0,1-1.713,0,2.7,2.7,0,0,1,.082-.982c.278-.1.62-.142.9-.245.088-.306-.2-.233-.163-.491.252-.287.524-.825,1.061-.572" transform="translate(-0.511 2.763)" fill="#1a1918" fill-rule="evenodd"/>
                  <path id="Fill-70" d="M29.878,11.018c-.276-.052-.419-.235-.817-.164.073-.863-.769-.727-.653-1.471.212-1.363,1.543.8,1.47,1.635" transform="translate(9.219 2.838)" fill="#1a1918" fill-rule="evenodd"/>
                  <path id="Fill-72" d="M18.108,9.123a30.938,30.938,0,0,1,.245,5.807.893.893,0,0,1-1.713-.082c-.079-.413.293-.943.324-1.39s-.252-.714-.324-1.145c-.175-1.015.156-2.088-.166-2.7.338-.349,1.054-.892,1.634-.49" transform="translate(4.828 2.852)" fill="#1a1918" fill-rule="evenodd"/>
                  <path id="Fill-74" d="M23.529,9.742c.566.319.261,1.034.491,1.718a3.2,3.2,0,0,1-3.266.49,10.633,10.633,0,0,1-.164-1.962c.679-.485,1.931-.014,2.939-.245m-1.877,1.307a1.706,1.706,0,0,0,1.143,0c.048-.692-1.349-.933-1.143,0" transform="translate(6.344 3.133)" fill="#1a1918" fill-rule="evenodd"/>
                  <path id="Fill-76" d="M20.211,9.8c.5.007.41.5.245.818a.479.479,0,0,1-.245-.818" transform="translate(6.153 3.155)" fill="#1a1918" fill-rule="evenodd"/>
                  <path id="Fill-78" d="M14.571,10.761c.249-.06.239.141.49.081a1.377,1.377,0,0,1,0,.981c-.231.068-.212-.115-.408-.081.112-.45-.172-.813-.082-.981" transform="translate(4.12 3.504)" fill="#1a1918" fill-rule="evenodd"/>
                  <path id="Fill-80" d="M2.265,13.651c-.663.119-.753-.335-1.061-.573,0-.468.441-.486.653-.735-.14-1.435.838-1.127.979-.327.1.572-.382,1.225-.571,1.635" transform="translate(-0.796 3.722)" fill="#1a1918" fill-rule="evenodd"/>
                  <path id="Fill-82" d="M11.73,11.947c.394.654-.01,1.512,0,2.291.005.426.252.655.164,1.062-.1.468-.531.77-.735,1.145-.48.057-1.006.342-1.47.164-.534-1.106-.13-3.226-.163-4.662.609-.384,1.418-.118,2.2,0m-1.305,1.8c-.384.393-.021.885,0,1.308.542.052.545-.435.9-.572a3.271,3.271,0,0,1-.49-2.208.8.8,0,0,0-.408,1.472" transform="translate(2.227 3.871)" fill="#1a1918" fill-rule="evenodd"/>
                  <path id="Fill-84" d="M24.537,15.9a18.672,18.672,0,0,1-3.755.245c-.434-.219-.493-.816-.736-1.226-.454.011-.145.465-.079.654-.244.3-.432.66-.9.736a1.354,1.354,0,0,0-.327-.245,1.515,1.515,0,0,1,.653-1.145c-.2-.387-.067-.668-.163-1.063.353-.309,1.051-.1,1.468,0,.048.608.015,1.294.491,1.472.98-.125.279-1.56,1.389-1.637-.322-.818.769-1.7,1.713-1.226.638.78.364,2.564.245,3.434m-1.715-.817c.758.023.906-.565.98-1.227-.1,0-.114-.105-.246-.082-.185.5-.709.651-.733,1.309" transform="translate(5.663 4.088)" fill="#1a1918" fill-rule="evenodd"/>
                  <path id="Fill-86" d="M30.439,13.266a2.44,2.44,0,0,1-.735,2.291c-.753-.134-1.17.588-1.715.163a2.324,2.324,0,0,1,.572-1.145,1.517,1.517,0,0,0,.9-.164.7.7,0,0,0-.163-.817c-.62-.073-1.675.116-1.8.817a15.242,15.242,0,0,0,0,2.863c.189.8,1.419,1.563,1.8.572-.3-.5-1.01-.289-1.223-.98.331-.1.348-.141.163-.409.61-.066.6.488.98.654.3.057.35-.14.653-.082.974.729.145,1.946-.409,2.535-.722.107-1.337-.048-2.2,0-.452-.333-.315-.646-.245-1.226.183-1.485-.561-4.052.245-5.153a7.365,7.365,0,0,1,3.184.082" transform="translate(8.658 4.351)" fill="#1a1918" fill-rule="evenodd"/>
                  <path id="Fill-88" d="M15.441,13.256a2.021,2.021,0,0,1,0,1.144c-1.112.569-1.056-2.01,0-1.144" transform="translate(4.148 4.361)" fill="#1a1918" fill-rule="evenodd"/>
                  <path id="Fill-90" d="M24.594,14.045c.41,0,.532.283.816.408-.213.822.415,2.244-.163,2.945a3.773,3.773,0,0,1-.9-.163c.038-.65.453-.8.49-1.39s-.488-1.179-.245-1.8" transform="translate(7.729 4.718)" fill="#1a1918" fill-rule="evenodd"/>
                  <path id="Fill-92" d="M14.685,14.588c2.251-.268.23,2,0,0" transform="translate(4.169 4.909)" fill="#1a1918" fill-rule="evenodd"/>
                  <path id="Fill-94" d="M2.657,18.836c-.027-.264.144-.608-.082-.981,1.249-1.383,1.63,1.405.082.981" transform="translate(-0.291 5.978)" fill="#1a1918" fill-rule="evenodd"/>
                  <path id="Fill-96" d="M9.959,17.571h.9c-.056.328.078.467.082.735-.293.107-.967.171-1.143-.081-.053-.326.216-.328.163-.654" transform="translate(2.366 6.016)" fill="#1a1918" fill-rule="evenodd"/>
                  <path id="Fill-98" d="M2.086,18.463c.206.175.572.19.734.409a3.117,3.117,0,0,1-.082.9c-.259.094-.665.044-.653.409.192.985,2.17.51,2.286,1.554.078.714-.841,1.465-1.959,1.144.038-.424.538-.387.408-.981-.077-.387-.458-.1-.653-.245-.284-.426.039-1.457-.571-1.554a1.805,1.805,0,0,0-.571-1.88c.05-.6,1.266-.542,1.061.245" transform="translate(-0.862 6.106)" fill="#1a1918" fill-rule="evenodd"/>
                  <path id="Fill-100" d="M18.366,18.647a27.4,27.4,0,0,1,2.938.245c.434,1.883-1.346,2.11-3.02,1.8a4.673,4.673,0,0,1,.082-2.044" transform="translate(5.468 6.413)" fill="#1a1918" fill-rule="evenodd"/>
                  <path id="Fill-102" d="M2.729,20.087c.223-.486-.37-.642,0-1.063,1.03-.443,1.373,1.348,0,1.063" transform="translate(-0.28 6.525)" fill="#1a1918" fill-rule="evenodd"/>
                  <path id="Fill-104" d="M12.369,19.227c-.008.116-.015.231.081.246a.715.715,0,0,1-1.143.49c-.047-.144.1-.48-.082-.49a.764.764,0,0,1,1.144-.246" transform="translate(2.895 6.567)" fill="#1a1918" fill-rule="evenodd"/>
                  <path id="Fill-106" d="M12.221,20.26c.412.553.263,1.517-.653,1.39-.465-.624.141-1.238.653-1.39" transform="translate(2.96 7.007)" fill="#1a1918" fill-rule="evenodd"/>
                  <path id="Fill-108" d="M11.041,21.127c-.171.322-.5.48-1.062.41.021-.294-.245-.3-.245-.573a.7.7,0,0,1,1.307.163" transform="translate(2.346 7.121)" fill="#1a1918" fill-rule="evenodd"/>
                  <path id="Fill-110" d="M20.3,23.276c-.042.311-.6.105-.816.245a.387.387,0,0,1-.083-.245c.146-.105.764-.159.9,0" transform="translate(5.905 8.081)" fill="#1a1918" fill-rule="evenodd"/>
                  <path id="Fill-112" d="M28.639,25.925a6.009,6.009,0,0,1-1.063.327c-.052.082.053.6-.161.735a4.963,4.963,0,0,0-.98-.081c.053-.354-.141-.458-.245-.654a2.524,2.524,0,0,1-1.959-.409c-.049-.536.424-1,.246-1.637.419-.1.962-.07.978-.572,1.479-.323,2.382.093,2.612,1.554.092.345.7.167.572.736m-3.1-.982c.055.729,1.315.854,1.632.246.178-.4-1.46-.709-1.632-.246" transform="translate(7.683 8.212)" fill="#1a1918" fill-rule="evenodd"/>
                  <path id="Fill-114" d="M22.5,24.523c-.034.156-.03.352-.245.327a1.907,1.907,0,0,0,.571.735c.263.018.346-.144.653-.081.037.073.073.146.164.163-.142.517.157.733.245,1.392-.222.2-.453-.09-.817,0-.018-.265.145-.348.082-.655-.211-.323-1.11-.493-1.225,0-.074.428.4.308.327.736h-1.47v-.49a1.4,1.4,0,0,0-1.225,0c-.539-.519-.326-1.74-.326-2.453a.983.983,0,0,0,.816-.573c1.226-.267,1.721.45,2.449.9m-2.122.817c.383.244,1.318.216,1.307-.409-.179-.358-1.672-.52-1.307.409" transform="translate(5.828 8.224)" fill="#1a1918" fill-rule="evenodd"/>
                  <path id="Fill-116" d="M17.758,23.607c.338.1.337.535.653.654.42.012.364-.454.653-.572.95.027,1.041,1.861.572,2.535a1.8,1.8,0,0,1-1.468-.409c-.26.5-.149.98-.572,1.39a8.167,8.167,0,0,1-2.367,0c-.052-1.289-.133-4.923,1.307-2.863.464-.189.614-.691,1.223-.736m-1.877,3.352c.946-.033.391-1.571.654-2.288a.407.407,0,0,1-.246-.082c-.647.7-.148,1.537-.408,2.37m1.632-1.635c.294.538,1.145.255,1.307-.245a.7.7,0,0,0-1.307.245" transform="translate(4.361 8.239)" fill="#1a1918" fill-rule="evenodd"/>
                  <path id="Fill-118" d="M23.2,26.879a2.415,2.415,0,0,0-.571-1.635c.216-.661-.281-1.143.163-1.637.313.131.937.389,1.062.9,0,0,0,1.137,0,1.308,0,.6-.114,1.127-.654,1.063" transform="translate(7.084 8.239)" fill="#1a1918" fill-rule="evenodd"/>
                  <path id="Fill-120" d="M15.495,26.849c-.54.052-.3-.683-.9-.572-.4.1.137.419-.082.572-.142.213-.568.193-.816.082-.112-.3-.033-.784-.327-.9-.456.088-.263.826-.408,1.226-.469-.063-.779.194-1.143,0a1.736,1.736,0,0,0,.245-1.635c.079-.806,2.36-.844,2.53-.082.126-.174.3-.3.409-.49a5.971,5.971,0,0,0-.491-.572c.042-.231.2-.349.246-.572,1.738-.053,1.167,1.935.733,2.942" transform="translate(3.115 8.35)" fill="#1a1918" fill-rule="evenodd"/>
                  <path id="Fill-122" d="M11.335,24.824a2.588,2.588,0,0,1-.082,1.8c0,.237.461.194.245.409a29.659,29.659,0,0,1-6.775-.081c.151-.231.271-.494.571-.573a2.984,2.984,0,0,0,1.8.409c.482-.67.307-1.494.9-2.044,1.231.007,2.212.171,3.346.081M8.641,25.4c-.171.343.206.53.326.817a6.942,6.942,0,0,0,1.715-.163c.018-.063,0-.161.082-.164-.05-1.041-1.25-.413-2.123-.49" transform="translate(0.5 8.658)" fill="#1a1918" fill-rule="evenodd"/>
                  <path id="Fill-124" d="M3.493,25.161h.326c-.018.263.144.346.082.654a.574.574,0,0,1-.489-.327c-.011-.146.1-.174.082-.327" transform="translate(0.017 8.812)" fill="#1a1918" fill-rule="evenodd"/>
                  <path id="Fill-126" d="M18.919,16.468a.833.833,0,0,0,1.387-.493h1.877c.186.17.14.571.408.655.549-.008.855-.405,1.389-.327.171.025.375.326.49.327.135,0,.324-.293.49-.327.592-.127,1.01.219,1.55.409-.237.846.343,1.777-.245,2.289.208.275,0,.476.245.654.62-.35-.105-1.433.326-1.8.055-.3-.177-.313-.161-.572.245-.081.323-.331.571-.409.294-.022.187.358.326.491-.517,1.617-.1,3.79-.082,5.152a.925.925,0,0,0,.082,1.145c.365-.768.5-1.768,1.552-1.637.431.055.7.353,1.141.573-.227.5.509,1.084-.081,1.471-.623-.056-.586-.774-1.143-.9-.259.211-.224.943-.163,1.226a3.857,3.857,0,0,0,2.775.082c-.011-.343-.317-.391-.327-.736.443-.443,1,.045,1.143.409a5.19,5.19,0,0,0-.653,1.227c.223.294,1.262.166,1.225-.328.01-.39-.334-.427-.409-.735.333-.294.393-.863.654-1.227a.951.951,0,0,1,.817.164c-.319,1.107.513,1.947-.164,2.78-.635-.037-.8.4-1.225.572-.327-.053-.967-.446-.978-.081-.35-.092-.987-.473-1.062.081-.287.015-.268-.275-.49-.327-1.408-.056-2.734.992-3.347-.245a26.886,26.886,0,0,0-.245-5.234c-.428,1.582.137,3.585-.245,5.725-.265-.252-.993-.041-.9-.654-.655.265-1.507,1.34-2.2.572.134-.788-.166-1.86.735-2.373-.212-.939.546-1.416,1.387-1.553a1.812,1.812,0,0,1,.245-1.554,4.461,4.461,0,0,0-.49-.572c-.3-.057-.35.14-.653.082A3.784,3.784,0,0,0,23.081,19c-.3.025-.293.36-.733.246-.131-.851.034-2-.572-2.373-.781.36-1.237-.115-2.2-.082.041.669.68.736.817,1.308-.257.479-.209,1.263-.735,1.474-.649.07-1.34-.29-1.715,0-.066.283.123.313.082.572-.406.233-.36.754-.9.9-.235.064-.573-.107-.817,0-.825.364-.45,1.233-.49,2.126.426-.229,1.007-.3,1.307-.654.707.218.94.911,1.47,1.308a7.55,7.55,0,0,0,1.55-.082c.538,1.025-.275,2.1-.49,3.109a2.576,2.576,0,0,0-1.305-.082c-.229-.238.074-.405.163-.572-.6-.394-1.382.253-1.8.572a11.856,11.856,0,0,0-1.468-1.063c-.267-1.13.346-1.392.571-2.208-.025-.3-.346-.307-.488-.49.012-1.809-.443-3.841.081-5.4.239-.021.282.153.408.245a.938.938,0,0,1,1.226-.163c-.159.606-.32,1.7.081,2.044.59-.14.008-1.01.572-1.226.7.163,1.152-.108,1.8,0a.5.5,0,0,0,.163-.655,3.844,3.844,0,0,1-1.958,0c-.265-.39-.36-.948-.817-1.144a3.415,3.415,0,0,0-1.387.572c-.341-.238-.319-.561-.245-1.063a1.319,1.319,0,0,1,1.468.164c.349-.358.149-.907.164-1.472.721-.569,2.551-.974,2.612.163.029.538-.851.707-.572,1.392Zm4.245,1.307c-.049.758.958.42,1.307.573.172.235.215.6.571.654.914-.977-.794-1.857-1.877-1.227Zm-6.2,6.87c.219.265,1.088.229,1.225-.082-.473-.181-.524-.783-1.143-.818-.215.265.131.608-.082.9Zm8.407.49c-.105-.6.252-.78.081-1.226C24.786,23.148,24.341,25.405,25.368,25.134Zm2.121.327c.417.021.543.33.981.328-.048-.265.055-.382.081-.572-.571-.219-.631-.95-1.143-1.227a3.169,3.169,0,0,0,.081,1.471Zm-8.65-.817h.571V24.48h-.571Z" transform="translate(4.343 4.831)" fill="#1a1918" fill-rule="evenodd"/>
                  <path id="Fill-128" d="M1.4,14.881H2.13c0,.327.24.415.326.654.025.216-.112.27-.326.245.637.453,2.207-.029,2.775.493.492.055.488-.383.9-.41,1.5.324,3.356-.27,4.489.328.51.149.714-.309,1.144-.328s.662.35,1.061.41c.575.083.958-.227,1.47-.41.817.657,1.465-.029,2.53,0,.186.168.14.571.409.654a1.864,1.864,0,0,0,.9-.654,3.175,3.175,0,0,1,1.386.164c.421,2.17.045,4.354.164,6.461-.052.357-.4.415-.572.654.327.211.859.49.572,1.063a3.3,3.3,0,0,1,.164,2.452,1.509,1.509,0,0,1-1.307,0,3.07,3.07,0,0,1-1.225.246c-.324.026-.22-.378-.49-.409a5.887,5.887,0,0,1-2.448.082c-.181-.181.142-.272.163-.491,0-.3-.382-.218-.245-.654-1.182.038-.443.885-.163,1.39-.226.283-.977.181-1.225,0-.935.279-2.5.662-3.1-.082-.364.019-.365.4-.572.573-.433-.057-.361-.62-.816-.655-.723.094-.7.933-1.469.982-.179-.171.04-.234,0-.491-.257.59-1.393,1.288-1.959.573-.367.178-.587.5-1.224.408-.527-.877,1.452-2.059-.326-2.616a1.176,1.176,0,0,1,.244-.9h.817c.267.114.156.608.408.736.175-1.516,1.374-1.173,2.2-.409.059.415-.2.506-.328.736.093.234.35.305.654.327.193-.677.224-1.519,1.224-1.39.359.305.053.854.326,1.147a1.411,1.411,0,0,0,.9-1.309c-.611-.36-1.478.129-2.285-.082-.4-.666-1.213-.458-1.959-.817-.122-.26-.041-.722-.163-.982.394.015.78.38,1.142.163a10.15,10.15,0,0,1-.734-1.308,1.991,1.991,0,0,0-.49.654c-.811-.216-.163-1.2-.082-1.716.255-.016.6.056.734-.082.041-.587-.156-.933-.571-1.063a1.058,1.058,0,0,1,.9-.654c.27.083.244.464.325.735.8-.283,1.618-1.274,2.531-.49.354-.428.153-1.315.082-1.962-.687-.287-.856.525-1.306.736-.693-.16-.906.108-1.307.408-.686-.379-1.54-.2-2.2-.49-.448.014-.547.378-.817.572-.85-.23-1.576.521-2.04-.245,0-.4.339-.479.49-.738.252-.012.461.194.653,0-.171-.508-1.347-.011-1.55-.488.284-.207.4-.583.816-.655-.077-.25-.417-.235-.489-.491.069-.177.212-.278.163-.572m15.18,1.964a4.687,4.687,0,0,1,1.959,1.144c.155-.2.025-.683.164-.9-.7.01-1.571-.892-2.124-.244m-4.244.082a.935.935,0,0,0,.9.081c.013-.43-.8-.406-.9-.081m2.938-.082a.581.581,0,0,0,.49.572.549.549,0,0,0,.327-.654.837.837,0,0,0-.817.082m-1.876,1.144c-1.3.131-1.836-.5-2.613-.9-.622.06-.275,1.089-.734,1.309.468.894,1.226.163,2.04.082.31.4.027.787.082,1.471.914.093,2.95,1.34,1.144,1.719.007.639-.465.638-.9.654-.043.4.348.361.326.736-.328.925-1.833.672-2.285,1.472.259.476.026,1.445.9,1.308-.05-.677.041-1.212.653-1.227.336.1.187.687.489.818a2.186,2.186,0,0,1,1.877-.818c.034.287.163.839.735.818.114-.4.088-.948.572-.981.305.171.609.35.572.654.431-.107.416.237.814.163-.156-.438-.125-.386.083-.735-.374-.092-.408-.52-.654-.736.148-.915,1.307-.818,1.387-1.8a3.9,3.9,0,0,0-.978-.491c.239-.183.151-.452,0-.654.72-.248,1.814-.754,1.386-1.635-.5-.088-.313.5-.653.572a2.621,2.621,0,0,1-.816-.163c.183-.316-.1-.378-.082-.736.155-.283.509-.363.572-.736-.125-.286-.473-.345-.9-.327-.287.554-.118,2.492-1.387,1.717.2-.764-.5-1.071-.571-1.962a.958.958,0,0,0-1.06.408M9.883,20.361c-.818-.371-1.4.286-2.121.654.069,1.367.715,2.044,2.2,1.8.271-.272.439-.649,1.061-.572a2.482,2.482,0,0,0-1.144-1.88m7.836,3.679c.55.281.692-.487.98-.736-.521-.212-.863.291-.98.736m.326,1.308c0,.412.119.7.572.654.152-.174.056-.6.082-.9a.613.613,0,0,0-.654.245M4.5,25.921h.245c.022-.186-.02-.307-.163-.327-.026.112-.116.157-.082.327m7.59.246c.4.04.442-.32.326-.573a.353.353,0,0,0-.326.573M4.5,27.639c.492-.133.616-.638,1.142-.736a2.076,2.076,0,0,1,.082-.818c-.527.364-1.287.863-1.224,1.554" transform="translate(-0.906 5.026)" fill="#1a1918" fill-rule="evenodd"/>
                  <text id="NEPAL" transform="translate(12.059 39.487)" fill="#273777" font-size="5" font-family="Arial-BoldMT, Arial" font-weight="700"><tspan x="0" y="0">NE </tspan><tspan y="0" letter-spacing="-0.073em">P </tspan><tspan y="0">A </tspan><tspan x="0" y="6">L</tspan></text>
                </g>
                <path id="Stroke-132" d="M40.961,61.51A21.017,21.017,0,1,0,19.983,40.491,21,21,0,0,0,40.961,61.51Z" transform="translate(6.605 6.417)" fill="none" stroke="#d9222a" stroke-width="0.843" fill-rule="evenodd"/>
                <g id="Group-275" transform="translate(27.682 25.811)">
                  <g id="Group-136" transform="translate(14.774 0)">
                    <path id="Fill-134" d="M22.669,10.263c-1.543.14-3.34.052-5.3.163.134.616-.4,1.667,0,2.617.6.062.308-.962,0-.982.182-.09.4-.143.408-.409a10.321,10.321,0,0,1,2.2.082c.743.052,1.39-.51,1.715.245a3.712,3.712,0,0,1-.49,2.372c-1.225.075-1.869,0-2.939,0-.1-.421-.272-.762-.733-.817-.261-.072-.17.212-.327.245a12.182,12.182,0,0,1,0,2.7c.044,1.1.468,2.349-.163,3.272-.531-.627-.164-1.474-.163-2.208,0-2.6-.148-4.94-.164-7.687,1.039-.576,2.62.225,3.592-.327.257-.039.216.219.408.245.6-.466,1.08.081,1.552-.082.075-.512-.519-.353-.735-.572-.071-.263.211-.17.245-.328-.186-.525-.617-1.2-1.307-.736a1.534,1.534,0,0,1-.163.654c.389.182,1.177-.033,1.062.655-.78-.091-1.987.2-2.612-.491H18.1c-.345-.2-.38-.71-.817-.819-.3.492.4.617.572.9-.1.491-.564.539-.98.327-.512-.765.179-4.688-.245-5.233a.475.475,0,0,0-.817,0,16.2,16.2,0,0,1,0,4.661c.008.43.551.32.572.737a.668.668,0,0,1-1.143.082,2.814,2.814,0,0,0-.163-2.045c-.4.033-.461.411-.736.572H12.711c-.666-1.368.865-1.462.734-2.781.43-.411,1.365-.383,1.551.164-.568.267-.168,1.038-.654,1.309.149.232.478.286.654.491.568-.934-.01-1.605.163-2.944-.018-.364-.471-.291-.653-.49.019-.4-.144-.62-.082-1.063-.818-.167-.684.623-.979.981a2.329,2.329,0,0,0-1.469.245c-.108,1.782-.731,3.064-.082,4.743-.493,1.56-.066,3.828-.816,5.4-.784-.229-.407-1.286-.408-1.963a17.085,17.085,0,0,1,.08-3.925c-.391-1.174.063-2.2-.163-3.435-1.333-.329-3.1.088-4.815-.164-.524,1.027-.219,2.172-.245,3.108-.006.179-.131.232-.163.409-.04.212.169.583.163.9,0,.084-.167.267-.163.328.063,1.2.434,2.538-.245,3.843-.66-1.238-.18-3.346-.245-5.071C4.829,6.9,4.727,5.3,4.793,3.966c.734-.066,1.4.289,2.041-.163a15.545,15.545,0,0,0,4.9,0c.067-.239-.487-.265-.246-.409.212-.563.98-.094,1.47-.409V2.494c-.166-.187-.678-.03-.979-.081a.918.918,0,0,0-.408-.655,8.387,8.387,0,0,1-1.47.082C9.133.761,7.652,2.093,7.9,3.23c-.066.07-.225.049-.246.163-.68.055-.686-.566-.979-.9-.387.062-.561-.091-.9-.081-.381.217-.266.932-.98.818C4.581,2.336,5,1.272,4.3.94c-.514.057-.576.567-1.061.654-.98-.57-1.816.4-2.774.082C1.946-.362,6.024.462,8.549.7a25.048,25.048,0,0,1,7.1,2.045c2.3.976,3.964,3.122,5.877,4.579.27,1.091.98,1.745,1.143,2.944M17.282,5.192a11.039,11.039,0,0,0,0,2.29c.61-.546,1.808-.518,1.387-1.881-.405-.212-.835-.585-1.387-.409m1.8,2.862c.509-.225,1.056-.412,1.06-1.144-.608-.2-2.133.634-1.06,1.144m-.736,4.826c.675.434,2.494.608,2.857-.245-.565-.724-2.478-.777-2.857.245" transform="translate(-0.469 -0.333)" fill="#1a1918" fill-rule="evenodd"/>
                  </g>
                  <g id="Group-139" transform="translate(10.978 1.994)">
                    <path id="Fill-137" d="M1.388.226a8.8,8.8,0,0,0-1.061.817C.193.868.429.54.491.307c.276-.026.7-.49.9-.082" transform="translate(-0.287 -0.058)" fill="#1a1918" fill-rule="evenodd"/>
                  </g>
                  <g id="Group-142" transform="translate(17.304 2.158)">
                    <path id="Fill-140" d="M1.242.181a.936.936,0,0,1,0,.817C.889,1.052.784.858.589.754.673.429.795.142,1.242.181" transform="translate(-0.589 -0.178)" fill="#1a1918" fill-rule="evenodd"/>
                  </g>
                  <g id="Group-145" transform="translate(22.854 2.209)">
                    <path id="Fill-143" d="M2.936.495a1.865,1.865,0,0,1-.163.491A22.683,22.683,0,0,1,.324.9a1.228,1.228,0,0,0,0-.654C1.1.425,2.06-.068,2.936.495" transform="translate(-0.324 -0.216)" fill="#1a1918" fill-rule="evenodd"/>
                  </g>
                  <g id="Group-148" transform="translate(17.304 3.621)">
                    <path id="Fill-146" d="M1.405.476a.914.914,0,0,1-.163.654c-.382,0-.663-.1-.653-.49C.567.3,1.221.351,1.405.476" transform="translate(-0.589 -0.381)" fill="#1a1918" fill-rule="evenodd"/>
                  </g>
                  <g id="Group-151" transform="translate(14.684 4.778)">
                    <path id="Fill-149" d="M2.777,4.123c-.462.554-1.1.257-1.877.409-.963-.565-.349-2.165.325-2.7V1.261c.361-.321.531-.832,1.143-.9.292.2.389.591.571.9a10.717,10.717,0,0,0-.163,2.862M1.8,2.814c-.083.246.181.146.326.165V2.733a.456.456,0,0,0-.326.081" transform="translate(-0.403 -0.362)" fill="#1a1918" fill-rule="evenodd"/>
                  </g>
                  <g id="Group-154" transform="translate(21.057 4.82)">
                    <path id="Fill-152" d="M2.536.514c.466.329.222.795.163,1.39-.124,1.248.183,3.047.163,4.58A1.1,1.1,0,0,1,.822,6.075C1.3,5.486.989,4.859.9,4.112c-.037-.322.115-.711.082-1.063C.962,2.809.745,2.555.74,2.4c0-.138.212-.109.245-.246.025-.1-.188-.224-.163-.408s.3-.335,0-.655c.2-.757.863-.8,1.715-.572" transform="translate(-0.74 -0.392)" fill="#1a1918" fill-rule="evenodd"/>
                  </g>
                  <g id="Group-157" transform="translate(6.122 5.105)">
                    <path id="Fill-155" d="M4.357,4.444c-.413.059-.484-.224-.816-.245-.387.022-.46.358-.735.49a1.687,1.687,0,0,1-1.469-.654c-.4.089-.234.746-.734.736C-.022,4.123.566,3.2.195,2.235c.223-.243.592.162.816-.082a1.133,1.133,0,0,0,.245-.9C1.572.918,2.353,1.046,2.562.6c.668.062.616,1.146,1.306,1.308.2.049.5-.159.734-.082,1.1.368.769,2.2-.245,2.617M1.908,2.154c.01.959,1.858,1.716,2.531.737-.589-.2-1.569-.069-1.958-.655-.058-.3.14-.351.082-.654-.571-.3-.656.351-.654.572M.766,3.463a2.966,2.966,0,0,1,.571.245c-.026-.192-.129-.307-.082-.572-.193.079-.518.026-.49.327" transform="translate(-0.195 -0.6)" fill="#1a1918" fill-rule="evenodd"/>
                  </g>
                  <g id="Group-160" transform="translate(17.222 5.848)">
                    <path id="Fill-158" d="M.529,2.806C1.292,2.249.951,1.489.856.434c.339-.38.714-.007.816.492a15.058,15.058,0,0,1,.082,1.88c-.193.742-.984.767-1.224,0" transform="translate(-0.529 -0.278)" fill="#1a1918" fill-rule="evenodd"/>
                  </g>
                  <g id="Group-163" transform="translate(4.546 7.683)">
                    <path id="Fill-161" d="M1.939.955a2.916,2.916,0,0,0,0,1.063c-.369.276-.622.166-1.143.246C.708,1.49.813.267,1.939.955" transform="translate(-0.772 -0.752)" fill="#1a1918" fill-rule="evenodd"/>
                  </g>
                  <g id="Group-166" transform="translate(26.174 9.275)">
                    <path id="Fill-164" d="M1.654,1.9C2.778,2.446,2.516.92,3.122.676c.3,0,.367.232.572.327-.17.96-.027,1.727-.572,2.289a9.163,9.163,0,0,1-2.856-.08A15.461,15.461,0,0,1,.185,1.167,10.711,10.711,0,0,0,1.409.185c.48.322.2.931.245,1.718" transform="translate(-0.158 -0.185)" fill="#1a1918" fill-rule="evenodd"/>
                  </g>
                  <g id="Group-169" transform="translate(12.935 9.767)">
                    <path id="Fill-167" d="M3.589.625a.831.831,0,0,1,.082,1.063c.03.735,1.016.509,1.551.737.329-.672-.1-1.226.163-1.881,1.289.129.783,1.648.734,2.535-.071,1.291.485,2.746.163,3.843-.072.228-.4.194-.408.491-.121.447.208.445.326.654-.449.468.216,1.742.082,2.29-.264,1.076-1.729.818-2.938.818-.621-.493-.264-1.86-.163-2.454.527-.258.784.4.734.982.388.2.74-.058,1.225,0,.641-.591.218-1.039.245-1.718-.2-.1-.241-.358-.572-.327-.222.185.054.872-.162,1.063-1.224.185-1.27-2.321.407-1.962a2.237,2.237,0,0,0,.164-2.372,8.513,8.513,0,0,1-2.367.245c-.551-.386.013-.838-.245-1.226-.338-.51-.519.028-1.144-.164C.47,2.935.939,1.593,1.14.789A7.828,7.828,0,0,1,3.589.625M1.876,2.015c.289.3.739.2,1.142.164.264-.762-1.289-.963-1.142-.164" transform="translate(-0.853 -0.544)" fill="#1a1918" fill-rule="evenodd"/>
                  </g>
                  <g id="Group-172" transform="translate(1.807 9.848)">
                    <path id="Fill-170" d="M4.4,1.421c-.529.64.04,1.406-.326,2.045.572.762.089,2.042.408,3.189A5.059,5.059,0,0,0,4,8.7c.034.265.339.261.408.492-.459.684-.014,1.088.082,1.8-.307.365-.838.044-1.144-.082a4.9,4.9,0,0,1-2.692.245,1.916,1.916,0,0,1,.979-2.535,2.35,2.35,0,0,1,.408-1.635c.423-.242,1,.091,1.387-.082C3.4,5.6,3.2,4.186,3.834,3.384,3.793,2.368,2.993,1.293,3.589.6c.456.088.553.536.816.817M1.956,9.845c.337.18.669,0,.979-.082-.054-.822.222-1.441-.245-1.8-.024.816-.91,1.128-.734,1.881" transform="translate(-0.498 -0.603)" fill="#1a1918" fill-rule="evenodd"/>
                  </g>
                  <g id="Group-175" transform="translate(6.183 9.897)">
                    <path id="Fill-173" d="M.994.672c.267.478-.1,1.176.245,1.471.4-.077.038-.442.245-.654A4.407,4.407,0,0,1,4.83,1.163a5.952,5.952,0,0,1,0,2.127c-.549.622-2.282.057-2.2,1.308a5.008,5.008,0,0,0-1.388.082c-.377.976.176,2.191-.082,3.271.717-.147,2.052-.6,2.285.572,1.533-.309,1.848,1.2,1.388,2.372-1.476.55-3,.052-4.407.164A73.858,73.858,0,0,1,.423.672a1.225,1.225,0,0,1,.571,0m.9,1.717a2.342,2.342,0,0,0,.083.9c.844-.136.925-1.036,1.8-1.146-.32-.981-1.26.242-1.878.245M2.136,9.5a1.47,1.47,0,0,0,.98.162c-.183-.389-.377-.767-.9-.817-.125.12-.071.419-.082.655" transform="translate(-0.239 -0.639)" fill="#1a1918" fill-rule="evenodd"/>
                  </g>
                  <g id="Group-178" transform="translate(3.59 10.01)">
                    <path id="Fill-176" d="M.564.805a.533.533,0,0,1-.082.409Q.046,1.242.074.805a.4.4,0,0,1,.49,0" transform="translate(-0.072 -0.722)" fill="#1a1918" fill-rule="evenodd"/>
                  </g>
                  <g id="Group-181" transform="translate(1.465 11.5)">
                    <path id="Fill-179" d="M2.129.144a3.528,3.528,0,0,1-.163,2.29,5.283,5.283,0,0,1-1.713,0,2.706,2.706,0,0,1,.082-.982c.278-.1.62-.142.9-.245C1.319.9,1.028.974,1.069.717,1.32.43,1.592-.108,2.129.145" transform="translate(-0.249 -0.079)" fill="#1a1918" fill-rule="evenodd"/>
                  </g>
                  <g id="Group-184" transform="translate(37.616 11.78)">
                    <path id="Fill-182" d="M2.223,2.359c-.276-.052-.419-.235-.816-.164C1.479,1.332.637,1.468.753.724c.213-1.362,1.544.8,1.47,1.635" transform="translate(-0.742 -0.284)" fill="#1a1918" fill-rule="evenodd"/>
                  </g>
                  <g id="Group-187" transform="translate(21.303 11.833)">
                    <path id="Fill-185" d="M1.688.464a30.9,30.9,0,0,1,.245,5.807A.894.894,0,0,1,.219,6.189C.14,5.775.512,5.246.544,4.8S.292,4.085.219,3.653C.044,2.638.375,1.565.055.954.392.6,1.108.062,1.688.464" transform="translate(-0.055 -0.322)" fill="#1a1918" fill-rule="evenodd"/>
                  </g>
                  <g id="Group-190" transform="translate(26.934 12.874)">
                    <path id="Fill-188" d="M3.652.217c.566.319.261,1.033.491,1.718a3.2,3.2,0,0,1-3.266.491A10.678,10.678,0,0,1,.714.462C1.393-.022,2.644.448,3.652.217M1.776,1.525a1.718,1.718,0,0,0,1.142,0c.047-.693-1.349-.934-1.142,0" transform="translate(-0.714 -0.217)" fill="#1a1918" fill-rule="evenodd"/>
                  </g>
                  <g id="Group-193" transform="translate(26.223 12.956)">
                    <path id="Fill-191" d="M.334.277c.5.007.41.5.245.817A.479.479,0,0,1,.334.277" transform="translate(-0.194 -0.277)" fill="#1a1918" fill-rule="evenodd"/>
                  </g>
                  <g id="Group-196" transform="translate(18.673 14.253)">
                    <path id="Fill-194" d="M.744.37c.25-.059.24.141.49.082a1.375,1.375,0,0,1,0,.981C1,1.5,1.022,1.318.825,1.351.938.9.654.54.744.37" transform="translate(-0.726 -0.359)" fill="#1a1918" fill-rule="evenodd"/>
                  </g>
                  <g id="Group-199" transform="translate(0.408 15.062)">
                    <path id="Fill-197" d="M1.4,2.394C.737,2.514.648,2.059.34,1.822c0-.469.441-.486.653-.736C.853-.349,1.831-.04,1.972.759c.1.572-.382,1.225-.571,1.635" transform="translate(-0.34 -0.085)" fill="#1a1918" fill-rule="evenodd"/>
                  </g>
                  <g id="Group-202" transform="translate(11.638 15.618)">
                    <path id="Fill-200" d="M3.089.691c.394.654-.009,1.512,0,2.29,0,.427.251.656.163,1.063-.1.468-.53.77-.734,1.144-.48.058-1.006.342-1.47.165C.513,4.247.918,2.127.885.691c.609-.385,1.418-.117,2.2,0m-1.305,1.8c-.384.392-.021.885,0,1.308.542.052.544-.436.9-.572A3.275,3.275,0,0,1,2.19,1.018a.8.8,0,0,0-.407,1.473" transform="translate(-0.769 -0.491)" fill="#1a1918" fill-rule="evenodd"/>
                  </g>
                  <g id="Group-205" transform="translate(24.404 16.423)">
                    <path id="Fill-203" d="M6.388,3.779a18.743,18.743,0,0,1-3.754.245C2.2,3.805,2.142,3.208,1.9,2.8c-.454.011-.145.464-.08.654-.242.3-.432.659-.9.736a1.4,1.4,0,0,0-.326-.245A1.514,1.514,0,0,1,1.246,2.8c-.2-.387-.067-.668-.163-1.064.352-.308,1.051-.1,1.469,0,.047.608.014,1.295.491,1.473.979-.124.279-1.559,1.388-1.636C4.109.752,5.2-.125,6.144.344c.639.78.364,2.564.245,3.435M4.674,2.962c.759.024.907-.564.98-1.227-.1,0-.114-.1-.246-.082-.186.5-.709.652-.734,1.309" transform="translate(-0.593 -0.213)" fill="#1a1918" fill-rule="evenodd"/>
                  </g>
                  <g id="Group-208" transform="translate(35.53 17.402)">
                    <path id="Fill-206" d="M3.649.278a2.438,2.438,0,0,1-.734,2.29c-.753-.134-1.169.589-1.715.164a2.325,2.325,0,0,1,.572-1.146,1.52,1.52,0,0,0,.9-.164A.7.7,0,0,0,2.505.605C1.886.533.831.721.71,1.423a15.2,15.2,0,0,0,0,2.862c.188.8,1.419,1.563,1.795.572-.3-.5-1.01-.289-1.224-.981.331-.1.348-.14.163-.409.61-.065.6.489.98.654.3.058.35-.14.653-.082.973.73.144,1.945-.409,2.535-.722.107-1.337-.047-2.2,0C.014,6.242.15,5.929.221,5.349.4,3.864-.341,1.3.466.2A7.352,7.352,0,0,1,3.649.278" transform="translate(-0.082 -0.062)" fill="#1a1918" fill-rule="evenodd"/>
                  </g>
                  <g id="Group-211" transform="translate(18.775 17.438)">
                    <path id="Fill-209" d="M1.614.268a2.015,2.015,0,0,1,0,1.144C.5,1.982.558-.6,1.614.268" transform="translate(-0.8 -0.089)" fill="#1a1918" fill-rule="evenodd"/>
                  </g>
                  <g id="Group-214" transform="translate(32.077 18.763)">
                    <path id="Fill-212" d="M.4.191c.412,0,.533.283.816.409-.214.821.415,2.244-.163,2.944a3.73,3.73,0,0,1-.9-.164c.039-.649.453-.8.49-1.39S.153.812.4.191" transform="translate(-0.151 -0.191)" fill="#1a1918" fill-rule="evenodd"/>
                  </g>
                  <g id="Group-217" transform="translate(18.855 19.476)">
                    <path id="Fill-215" d="M.858.735c2.25-.269.229,2,0,0" transform="translate(-0.858 -0.712)" fill="#1a1918" fill-rule="evenodd"/>
                  </g>
                  <g id="Group-220" transform="translate(2.285 23.444)">
                    <path id="Fill-218" d="M.929,1.519C.9,1.254,1.073.911.848.538,2.1-.846,2.477,1.943.929,1.519" transform="translate(-0.848 -0.149)" fill="#1a1918" fill-rule="evenodd"/>
                  </g>
                  <g id="Group-223" transform="translate(12.154 23.587)">
                    <path id="Fill-221" d="M.453.254h.9c-.056.328.078.467.083.736C1.14,1.1.466,1.16.289.908.236.582.506.579.453.254" transform="translate(-0.282 -0.254)" fill="#1a1918" fill-rule="evenodd"/>
                  </g>
                  <g id="Group-226" transform="translate(0.164 23.919)">
                    <path id="Fill-224" d="M1.222,1.146c.206.175.572.191.734.409a3.115,3.115,0,0,1-.082.9c-.259.095-.665.044-.653.409.192.986,2.17.511,2.286,1.554.078.714-.841,1.466-1.959,1.144.038-.424.538-.387.408-.981-.077-.388-.458-.1-.653-.245C1.02,3.91,1.343,2.878.732,2.781A1.805,1.805,0,0,0,.161.9c.05-.6,1.266-.541,1.061.245" transform="translate(-0.161 -0.496)" fill="#1a1918" fill-rule="evenodd"/>
                  </g>
                  <g id="Group-229" transform="translate(23.678 25.059)">
                    <path id="Fill-227" d="M.217.464A27.393,27.393,0,0,1,3.156.709c.434,1.884-1.347,2.11-3.02,1.8A4.68,4.68,0,0,1,.217.464" transform="translate(-0.062 -0.464)" fill="#1a1918" fill-rule="evenodd"/>
                  </g>
                  <g id="Group-232" transform="translate(2.324 25.478)">
                    <path id="Fill-230" d="M.136,1.9c.223-.486-.37-.642,0-1.064C1.166.4,1.509,2.189.136,1.9" transform="translate(-0.012 -0.77)" fill="#1a1918" fill-rule="evenodd"/>
                  </g>
                  <g id="Group-235" transform="translate(14.12 25.635)">
                    <path id="Fill-233" d="M2,.179c-.007.116-.014.231.082.245A.716.716,0,0,1,.936.914C.89.771,1.036.435.855.424A.763.763,0,0,1,2,.179" transform="translate(-0.855 -0.019)" fill="#1a1918" fill-rule="evenodd"/>
                  </g>
                  <g id="Group-238" transform="translate(14.362 27.268)">
                    <path id="Fill-236" d="M.987.346C1.4.9,1.249,1.862.334,1.735-.131,1.112.475.5.987.346" transform="translate(-0.168 -0.346)" fill="#1a1918" fill-rule="evenodd"/>
                  </g>
                  <g id="Group-241" transform="translate(12.08 27.691)">
                    <path id="Fill-239" d="M1.534,1.213c-.17.321-.5.48-1.062.41.021-.294-.245-.3-.245-.573a.7.7,0,0,1,1.307.164" transform="translate(-0.228 -0.655)" fill="#1a1918" fill-rule="evenodd"/>
                  </g>
                  <g id="Group-244" transform="translate(25.302 31.256)">
                    <path id="Fill-242" d="M1.284.763c-.043.312-.6.107-.816.245A.388.388,0,0,1,.385.763c.147-.1.763-.158.9,0" transform="translate(-0.385 -0.664)" fill="#1a1918" fill-rule="evenodd"/>
                  </g>
                  <g id="Group-247" transform="translate(31.909 31.743)">
                    <path id="Fill-245" d="M4.441,2.547a5.853,5.853,0,0,1-1.062.327c-.053.083.053.6-.162.736a4.946,4.946,0,0,0-.98-.082c.053-.353-.141-.457-.245-.654A2.522,2.522,0,0,1,.032,2.465c-.05-.537.424-1,.246-1.636.42-.1.963-.07.979-.572C2.737-.067,3.639.35,3.869,1.811c.091.345.7.167.571.736m-3.1-.982c.054.73,1.315.854,1.633.246.177-.4-1.46-.708-1.633-.246" transform="translate(-0.029 -0.154)" fill="#1a1918" fill-rule="evenodd"/>
                  </g>
                  <g id="Group-250" transform="translate(25.016 31.789)">
                    <path id="Fill-248" d="M3.482,1.144c-.034.156-.03.352-.245.327a1.9,1.9,0,0,0,.571.736c.263.018.345-.144.653-.082.037.073.072.147.163.164-.142.518.157.733.245,1.391-.221.2-.453-.09-.816,0-.018-.264.144-.347.082-.655-.21-.322-1.109-.493-1.225,0-.073.429.4.308.328.737H1.768v-.49a1.4,1.4,0,0,0-1.224,0C0,2.752.218,1.53.218.817A.981.981,0,0,0,1.034.245c1.226-.268,1.721.449,2.449.9M1.36,1.962c.383.243,1.319.217,1.307-.409C2.488,1.194,1,1.033,1.36,1.962" transform="translate(-0.176 -0.187)" fill="#1a1918" fill-rule="evenodd"/>
                  </g>
                  <g id="Group-253" transform="translate(19.566 31.846)">
                    <path id="Fill-251" d="M3.067.229c.337.1.336.536.653.654.42.012.363-.454.653-.572.949.027,1.041,1.861.571,2.535a1.8,1.8,0,0,1-1.469-.409c-.259.5-.148.98-.571,1.39a8.125,8.125,0,0,1-2.367,0C.485,2.538.4-1.1,1.843.965,2.307.776,2.458.274,3.067.229M1.189,3.582c.946-.033.391-1.571.654-2.289A.4.4,0,0,1,1.6,1.211c-.647.7-.148,1.537-.408,2.371M2.822,1.947c.293.537,1.145.254,1.306-.245a.7.7,0,0,0-1.306.245" transform="translate(-0.514 -0.229)" fill="#1a1918" fill-rule="evenodd"/>
                  </g>
                  <g id="Group-256" transform="translate(29.682 31.846)">
                    <path id="Fill-254" d="M.729,3.5A2.425,2.425,0,0,0,.158,1.865C.374,1.205-.123.723.321.229c.313.132.937.389,1.061.9,0,0,0,1.137,0,1.308,0,.6-.114,1.128-.653,1.063" transform="translate(-0.129 -0.229)" fill="#1a1918" fill-rule="evenodd"/>
                  </g>
                  <g id="Group-259" transform="translate(14.936 32.255)">
                    <path id="Fill-257" d="M4.26,3.472c-.542.052-.3-.684-.9-.572-.4.1.136.418-.083.572-.142.213-.568.193-.815.082-.112-.3-.033-.784-.328-.9-.456.088-.262.827-.408,1.226-.469-.063-.778.194-1.142,0A1.737,1.737,0,0,0,.832,2.245c.079-.806,2.36-.845,2.53-.082.125-.174.294-.3.408-.491A5.823,5.823,0,0,0,3.28,1.1c.043-.231.2-.348.246-.572C5.264.477,4.694,2.464,4.26,3.472" transform="translate(-0.588 -0.528)" fill="#1a1918" fill-rule="evenodd"/>
                  </g>
                  <g id="Group-262" transform="translate(5.224 33.401)">
                    <path id="Fill-260" d="M7.014-1.151a2.585,2.585,0,0,1-.082,1.8c0,.237.461.194.245.41A29.686,29.686,0,0,1,.4.976C.554.744.673.483.974.4a2.978,2.978,0,0,0,1.8.41c.482-.671.307-1.494.9-2.045,1.231.007,2.212.172,3.346.082M4.32-.579c-.171.344.206.53.326.817A6.93,6.93,0,0,0,6.361.075c.018-.063,0-.161.082-.163C6.393-1.13,5.193-.5,4.32-.579" transform="translate(-0.403 1.233)" fill="#1a1918" fill-rule="evenodd"/>
                  </g>
                  <g id="Group-265" transform="translate(3.427 33.973)">
                    <path id="Fill-263" d="M.9.051h.326c-.018.263.144.346.082.654A.574.574,0,0,1,.819.378C.808.231.919.205.9.051" transform="translate(-0.818 -0.051)" fill="#1a1918" fill-rule="evenodd"/>
                  </g>
                  <g id="Group-268" transform="translate(19.499 19.182)">
                    <path id="Fill-266" d="M4.228,2.613a.832.832,0,0,0,1.387-.492H7.493c.186.169.139.57.408.655.547-.008.855-.405,1.388-.327.171.025.375.326.489.327.136,0,.325-.293.49-.327.592-.127,1.011.219,1.55.409-.237.846.344,1.777-.245,2.29.208.275,0,.475.245.654.621-.351-.1-1.434.326-1.8.054-.3-.176-.314-.162-.572.245-.081.323-.331.571-.409.294-.023.187.358.325.49-.517,1.617-.1,3.79-.082,5.153a.924.924,0,0,0,.082,1.144c.365-.768.5-1.768,1.551-1.636.432.054.7.353,1.143.573-.229.5.509,1.084-.082,1.471-.621-.057-.584-.775-1.141-.9-.26.211-.226.942-.164,1.226a3.866,3.866,0,0,0,2.776.082c-.011-.344-.317-.392-.327-.736.443-.444,1,.045,1.143.409a5.179,5.179,0,0,0-.653,1.227c.222.294,1.262.165,1.223-.328.01-.39-.333-.428-.408-.736.333-.294.391-.862.653-1.226a.952.952,0,0,1,.817.164c-.317,1.107.513,1.947-.163,2.781-.635-.037-.8.4-1.225.572-.328-.053-.967-.447-.98-.082-.35-.091-.987-.473-1.06.082-.287.014-.268-.276-.491-.327-1.407-.057-2.733.992-3.346-.245A26.915,26.915,0,0,0,11.9,6.947c-.428,1.582.136,3.585-.245,5.725-.266-.251-.993-.04-.9-.654-.656.265-1.508,1.34-2.2.572.134-.788-.167-1.859.734-2.372-.212-.94.546-1.417,1.387-1.553a1.811,1.811,0,0,1,.245-1.554,4.383,4.383,0,0,0-.49-.572c-.3-.058-.35.14-.653.082A3.775,3.775,0,0,0,8.39,5.149c-.3.024-.293.359-.734.245-.131-.851.035-2-.571-2.372-.782.359-1.237-.115-2.2-.082.04.668.68.736.817,1.308-.258.479-.209,1.263-.735,1.473-.648.07-1.34-.289-1.715,0-.065.283.123.314.083.572-.407.232-.361.755-.9.9-.236.064-.573-.107-.817,0-.825.364-.451,1.233-.49,2.127.425-.229,1.006-.3,1.307-.654.707.217.94.911,1.469,1.308a7.676,7.676,0,0,0,1.55-.082C5.99,10.915,5.177,12,4.962,13a2.578,2.578,0,0,0-1.306-.082c-.228-.238.074-.405.163-.572-.6-.393-1.382.254-1.8.572A11.849,11.849,0,0,0,.555,11.854c-.267-1.13.346-1.392.571-2.208-.025-.3-.346-.307-.49-.491.013-1.809-.442-3.841.082-5.4.239-.02.281.154.408.245A.938.938,0,0,1,2.351,3.84c-.158.607-.32,1.7.082,2.045.589-.14.008-1.009.571-1.226.7.164,1.153-.108,1.795,0A.5.5,0,0,0,4.962,4,3.848,3.848,0,0,1,3,4c-.265-.39-.36-.949-.817-1.144A3.422,3.422,0,0,0,.8,3.431C.459,3.193.48,2.87.555,2.368a1.319,1.319,0,0,1,1.469.164c.349-.358.149-.906.163-1.473C2.908.49,4.737.085,4.8,1.222c.03.538-.85.707-.571,1.391ZM8.472,3.921c-.048.757.958.419,1.307.572.173.236.215.6.571.655C11.264,4.171,9.556,3.291,8.472,3.921Zm-6.2,6.869c.219.265,1.088.229,1.224-.082-.473-.18-.524-.783-1.142-.817C2.137,10.156,2.482,10.5,2.269,10.791Zm8.406.49c-.105-.6.252-.78.082-1.226C10.094,9.294,9.649,11.551,10.676,11.281Zm2.121.327c.417.02.543.329.98.328-.047-.265.056-.381.082-.572-.571-.219-.632-.949-1.143-1.227a3.161,3.161,0,0,0,.08,1.471Zm-8.651-.817h.571v-.164H4.146Z" transform="translate(-0.465 -0.498)" fill="#1a1918" fill-rule="evenodd"/>
                  </g>
                  <g id="Group-271" transform="translate(0 19.907)">
                    <path id="Fill-269" d="M.531.162h.734c0,.327.24.415.326.654.025.216-.112.269-.326.245.637.453,2.207-.03,2.775.492.492.056.488-.383.9-.41,1.5.325,3.356-.27,4.489.328.51.149.714-.309,1.144-.328s.662.351,1.061.41c.575.084.958-.226,1.47-.41.817.656,1.466-.03,2.529,0,.187.168.14.57.409.654a1.846,1.846,0,0,0,.9-.654,3.178,3.178,0,0,1,1.387.164c.421,2.17.045,4.354.163,6.462-.051.357-.4.415-.571.654.326.211.858.489.571,1.063a3.3,3.3,0,0,1,.164,2.453,1.506,1.506,0,0,1-1.305,0,3.07,3.07,0,0,1-1.225.246c-.326.026-.222-.378-.491-.409a5.879,5.879,0,0,1-2.447.082c-.181-.18.143-.273.163-.492,0-.3-.382-.217-.245-.654-1.182.039-.443.885-.163,1.391-.226.283-.977.18-1.225,0-.935.278-2.5.662-3.1-.083-.364.019-.365.4-.572.573-.433-.057-.361-.62-.816-.655-.722.095-.7.934-1.469.982-.179-.171.04-.233,0-.491C5.5,13.019,4.363,13.717,3.8,13c-.367.179-.587.5-1.224.409-.527-.877,1.452-2.059-.326-2.617a1.174,1.174,0,0,1,.244-.9h.817c.267.114.156.607.408.736.175-1.517,1.374-1.173,2.2-.409.059.415-.2.506-.328.736.093.235.35.3.654.327.193-.678.224-1.519,1.224-1.39.359.3.053.853.326,1.146a1.409,1.409,0,0,0,.9-1.309c-.611-.36-1.478.129-2.285-.082C6,8.981,5.2,9.19,4.449,8.831c-.122-.259-.041-.723-.163-.982.394.015.78.38,1.142.164A10.26,10.26,0,0,1,4.694,6.7a1.981,1.981,0,0,0-.49.654c-.811-.217-.163-1.2-.082-1.717.255-.017.6.056.734-.082C4.9,4.972,4.7,4.626,4.286,4.5a1.06,1.06,0,0,1,.9-.654c.27.084.244.464.325.736.8-.283,1.618-1.274,2.531-.491.354-.428.153-1.315.082-1.962-.687-.288-.856.526-1.306.736-.693-.16-.906.109-1.307.409-.686-.379-1.54-.2-2.2-.491-.448.014-.547.378-.817.572-.85-.23-1.576.521-2.04-.245,0-.4.339-.479.49-.737.252-.013.461.194.653,0C1.421,1.861.245,2.357.042,1.88c.284-.206.4-.583.816-.655C.781.974.44.989.368.734.437.557.58.456.531.162m15.18,1.963a4.683,4.683,0,0,1,1.959,1.144c.155-.2.025-.684.163-.9-.7.01-1.569-.892-2.122-.244m-4.244.082a.934.934,0,0,0,.9.082c.013-.43-.8-.406-.9-.082m2.938-.082a.582.582,0,0,0,.49.572.548.548,0,0,0,.326-.654.834.834,0,0,0-.816.082M12.529,3.269c-1.3.131-1.835-.5-2.612-.9-.622.059-.275,1.089-.734,1.309.468.893,1.226.162,2.04.082.31.4.027.787.082,1.471.914.092,2.95,1.339,1.144,1.718.007.64-.465.639-.9.654-.043.4.348.361.326.737-.328.925-1.833.672-2.285,1.471.259.476.026,1.445.9,1.309-.05-.678.041-1.213.653-1.227.336.1.187.686.489.817a2.184,2.184,0,0,1,1.878-.817c.034.287.161.838.735.817.114-.4.088-.948.572-.981.305.172.609.351.571.654.432-.107.417.237.816.164-.156-.438-.125-.386.082-.736-.372-.091-.406-.519-.654-.736.148-.916,1.308-.817,1.389-1.8a3.872,3.872,0,0,0-.98-.491c.241-.184.152-.451,0-.654.721-.248,1.816-.755,1.387-1.636-.5-.086-.313.5-.653.572a2.6,2.6,0,0,1-.816-.162c.183-.316-.1-.378-.082-.737.155-.282.509-.361.572-.736-.125-.286-.473-.345-.9-.327-.287.554-.119,2.492-1.387,1.718.2-.764-.5-1.072-.571-1.963a.958.958,0,0,0-1.061.409M9.019,5.641C8.2,5.27,7.622,5.928,6.9,6.3c.069,1.367.715,2.045,2.2,1.8.271-.272.439-.649,1.061-.572a2.483,2.483,0,0,0-1.144-1.88m7.837,3.68c.55.281.692-.487.978-.737-.52-.212-.863.291-.978.737m.326,1.308c0,.411.119.7.572.654.151-.174.055-.6.081-.9a.61.61,0,0,0-.653.245M3.632,11.2h.245c.022-.186-.02-.307-.163-.327-.026.111-.116.156-.082.327m7.59.245c.4.04.442-.32.326-.572a.352.352,0,0,0-.326.572m-7.59,1.473c.492-.133.616-.637,1.142-.736a2.079,2.079,0,0,1,.082-.819c-.527.365-1.287.864-1.224,1.554" transform="translate(-0.042 -0.162)" fill="#1a1918" fill-rule="evenodd"/>
                  </g>
                  <g id="Group-274" transform="translate(5.045 35.52)">
                    <path id="Stroke-272" d="M.272.315h29.8" transform="translate(-0.272 -0.315)" fill="none" stroke="#d9222a" stroke-width="0.562" fill-rule="evenodd"/>
                  </g>
                </g>
                <path id="Stroke-276" d="M24.3,45.521A20.948,20.948,0,0,0,54.464,45.5" transform="translate(8.194 16.004)" fill="none" stroke="#273777" stroke-width="0.843" fill-rule="evenodd"/>
                <path id="Stroke-278" d="M24.035,45.355H54.877" transform="translate(8.097 15.949)" fill="none" stroke="#d9222a" stroke-width="0.843" fill-rule="evenodd"/>
                <g id="Group-287" transform="translate(0 0)">
                  <path id="Fill-279" d="M18.126,41.163l2.407-.8.3.9.491-.164-.8-2.412-.49.163.3.9-2.406.8.2.614Zm.907,1.508a1.619,1.619,0,1,0,2.961-.086A1.819,1.819,0,0,0,21.6,42a1.244,1.244,0,0,0-.419-.265,1.408,1.408,0,0,0-.5-.1,1.88,1.88,0,0,0-.774.185,1.538,1.538,0,0,0-.874.851Zm1.983-.348a.925.925,0,0,1,.524,1.173,1.112,1.112,0,0,1-.617.539,1.136,1.136,0,0,1-.828.1.894.894,0,0,1-.514-1.164,1.377,1.377,0,0,1,1.435-.646Zm-.289,4.535,2.233-.791L21.455,47.9l.393.561,2.946-1.115-.372-.534-2.028.822,1.426-1.684-.441-.631-2.052.725,1.441-1.6-.378-.543-2.063,2.381.4.573Zm2.288,3.1,1.452-1.366L23.9,50.893l.442.473,2.226-2.094-.41-.436-1.486,1.4.591-2.354-.43-.458-2.225,2.092.409.439ZM26,52.932l.984.713a2.165,2.165,0,0,0,.5.283,1.162,1.162,0,0,0,.51.067,1.331,1.331,0,0,0,.594-.237,1.935,1.935,0,0,0,.46-.471,2.165,2.165,0,0,0,.337-.647,1.3,1.3,0,0,0,.042-.58,1.069,1.069,0,0,0-.226-.51,2.331,2.331,0,0,0-.458-.4l-.955-.692Zm2.243-1.511a3.123,3.123,0,0,1,.413.334.626.626,0,0,1,.157.291.707.707,0,0,1-.025.349,1.734,1.734,0,0,1-.265.479,1.909,1.909,0,0,1-.38.416.632.632,0,0,1-.309.14.606.606,0,0,1-.286-.049,1.843,1.843,0,0,1-.333-.205l-.391-.282,1.184-1.642.235.17Zm2.674,4.64.238-.457-1.583-.826.383-.738,1.423.742.237-.457-1.422-.742.312-.6,1.528.8.239-.46-2.1-1.1-1.409,2.713,2.155,1.125Zm2.046.887,2.2-2.414-.635-.255-1.567,1.809.09-2.4-.65-.261-.075,3.265.639.257Zm3.916,1.138.118-.5-1.738-.408.19-.811,1.561.367.118-.5-1.561-.368.155-.66L37.4,55.6l.118-.5-2.307-.542-.7,2.977,2.366.557Zm2.962.423.066-.51-1.59-.207.322-2.5L38,55.213l-.387,3.008,2.23.289Zm.921-.307a1.733,1.733,0,0,0,2.258-.059,1.813,1.813,0,0,0-.064-2.325,1.54,1.54,0,0,0-1.14-.39,1.846,1.846,0,0,0-.686.14,1.282,1.282,0,0,0-.406.285,1.452,1.452,0,0,0-.286.427,1.878,1.878,0,0,0-.126.788A1.536,1.536,0,0,0,40.763,58.2Zm.438-1.968a.921.921,0,0,1,1.281-.037,1.118,1.118,0,0,1,.261.779,1.13,1.13,0,0,1-.227.8.821.821,0,0,1-.625.282.834.834,0,0,1-.643-.252,1.379,1.379,0,0,1-.047-1.576Zm3.567,2.1-.146-1.144.416-.053a3.858,3.858,0,0,0,.658-.13.955.955,0,0,0,.313-.186.86.86,0,0,0,.231-.335.964.964,0,0,0,.045-.483.927.927,0,0,0-.26-.566.845.845,0,0,0-.5-.238,3.907,3.907,0,0,0-.766.053l-1.026.133.39,3.034.64-.083Zm-.015-2.56a3.418,3.418,0,0,1,.462-.04.461.461,0,0,1,.275.1.382.382,0,0,1,.135.26.392.392,0,0,1-.041.245.43.43,0,0,1-.181.175,1.718,1.718,0,0,1-.5.112l-.352.045-.109-.861Zm3.058,1.977-.665-2.312L48.42,57.58l.6-.172-.057-2.49.666,2.314.576-.167-.847-2.938-.929.27.026,2.163-1.134-1.844-.926.27.844,2.938.576-.167ZM53.156,55.7l-.213-.468-1.623.747-.346-.758,1.459-.67-.216-.468-1.457.67-.282-.616,1.565-.72-.215-.471-2.152.991,1.274,2.779L53.156,55.7Zm1.145-.69-1.086-1.671,2.165.967.543-.354-1.667-2.563-.5.328,1.112,1.71-2.207-1-.527.343L53.8,55.336l.5-.328Zm3.352-2.459-1.676-1.907.71-.625-.341-.389-1.906,1.68.342.389.71-.628,1.678,1.907.483-.427ZM60.2,50l-.988-.844.866-1.017-.394-.337-.863,1.018-.55-.471,1-1.177-.393-.335L57.463,48.5l2.322,1.984Zm.231-2.5a3.45,3.45,0,0,0,.688.36.806.806,0,0,0,.383.029,1.01,1.01,0,0,0,.421-.177,1.877,1.877,0,0,0,.456-.534,1.738,1.738,0,0,0,.249-.572.977.977,0,0,0-.01-.452.853.853,0,0,0-.22-.368,4.121,4.121,0,0,0-.629-.458l-1.356-.858-.345.547,1.429.9a3.183,3.183,0,0,1,.424.3.42.42,0,0,1,.133.283.672.672,0,0,1-.131.408.719.719,0,0,1-.323.3.491.491,0,0,1-.358.005,3.236,3.236,0,0,1-.445-.253l-1.4-.883-.343.546,1.377.87ZM63.7,44.805,61.883,44l2.343-.368.263-.592L61.7,41.792l-.244.549,1.862.829-2.395.367-.253.575,2.787,1.242Zm1.1-2.571.383-1.155a1.983,1.983,0,0,0,.119-.562,1.148,1.148,0,0,0-.088-.508,1.335,1.335,0,0,0-.4-.5,1.892,1.892,0,0,0-.586-.3,2.174,2.174,0,0,0-.717-.13,1.358,1.358,0,0,0-.566.134,1.1,1.1,0,0,0-.419.368,2.5,2.5,0,0,0-.246.561l-.372,1.121,2.9.966Zm-2.111-1.691a3,3,0,0,1,.2-.5.622.622,0,0,1,.23-.238.715.715,0,0,1,.339-.081,1.744,1.744,0,0,1,.536.111,1.828,1.828,0,0,1,.509.239.635.635,0,0,1,.227.253.608.608,0,0,1,.037.287,1.653,1.653,0,0,1-.1.38l-.151.457L62.6,40.818l.09-.275Z" transform="translate(5.846 13.538)" fill="#273777" fill-rule="evenodd"/>
                  <path id="Fill-281" d="M29.676,62.476,28.658,66.2l1.668.458,1.508-5.516.924.253.208-.757L25.134,58.5l-.207.755,5.238,1.437-.23.844a6.476,6.476,0,0,0-1.853-.861,3.792,3.792,0,0,0-2.274-.029,2.448,2.448,0,0,0-1.241,3.41A2.3,2.3,0,0,0,26.074,65.1a2,2,0,0,0,2.683-1.62,1.651,1.651,0,0,0-.739-1.909A4.444,4.444,0,0,1,29.676,62.476Zm-2.416-.432c.278.075.335.445.175,1.1q-.259,1.094-.831.937c-.218-.059-.348-.249-.391-.568a1.608,1.608,0,0,1,.059-.728q.447-1.435,1.641-1.134l-.858.374a.586.586,0,0,1,.205.016Zm.686-3.722a.933.933,0,0,1,.5-.062,1.683,1.683,0,0,1,1.015.634l.862,1.242,2.007.285-1.59-2.085a2.27,2.27,0,0,0-1.567-.79,3.069,3.069,0,0,0-1.122.026l-.107.75Zm8.875,7.565c-.666-.025-.985-.4-.958-1.121l.116-3.04,1.958.074L37.8,65.416A.912.912,0,0,1,36.82,65.888Zm-2.081.5a2.3,2.3,0,0,0,1.59.649,2.2,2.2,0,0,0,1.423-.416l-.034.9,1.632.063.22-5.715.946.037.029-.783-6.858-.264-.03.783.621.023-.122,3.185a1.959,1.959,0,0,0,.583,1.538Zm8.738.9L42.822,61.6l.951-.109-.088-.779-3.155.364.09.779L41.1,61.8l.655,5.68,1.719-.2Zm5.156-2.615,1.642-.45-.345-1.259q-.22-.807.419-.981a.906.906,0,0,1,.67.045l.94,3.439,1.758-.482-1.507-5.517.913-.249-.207-.757L43.73,60.975l.207.755,6.515-1.786.283,1.033a1.062,1.062,0,0,0-.813-.049,1.513,1.513,0,0,0-.787.5,1.106,1.106,0,0,0-.26.843,1.8,1.8,0,0,0-1.018-.675,2.44,2.44,0,0,0-1.293.008A2.181,2.181,0,0,0,45,62.969a3.394,3.394,0,0,0-.018,2.089,2.448,2.448,0,0,0,1.426,1.68,3.425,3.425,0,0,0,2.293.088,5.28,5.28,0,0,0,1.219-.51l.04-1.188a3.864,3.864,0,0,1-1.366.795q-1.355.371-1.861-1.481a3.3,3.3,0,0,1-.123-1.117q.051-.733.561-.872a.7.7,0,0,1,.722.235,1.538,1.538,0,0,1,.382.68l.354,1.3Z" transform="translate(8.184 20.472)" fill="#273777" fill-rule="evenodd"/>
                  <path id="Fill-283" d="M10.326,34.491l3.64.907.484-1.95L9.063,32.107l.268-1.081-.738-.185L6.322,39.993l.738.185,1.52-6.122.824.205A8.928,8.928,0,0,0,8.52,36.45a5.073,5.073,0,0,0-.074,2.618,2.062,2.062,0,0,0,1.564,1.538,1.983,1.983,0,0,0,1.758-.354,2.979,2.979,0,0,0,1.062-1.806q.548-2.416-1.534-2.968-1.1-.291-1.89.984a6.018,6.018,0,0,1,.92-1.97ZM9.85,37.3q.121-.486,1.088-.278c.713.145,1.013.442.9.887a.672.672,0,0,1-.565.491,1.36,1.36,0,0,1-.714-.016,1.367,1.367,0,0,1-1.08-1.806l.349.961a.848.848,0,0,1,.02-.238Zm2.458-7.771a1.451,1.451,0,0,0,.768,1.363,1.562,1.562,0,0,0,1.533.1,3.155,3.155,0,0,0,1.345-1.307q1.457-2.453-.922-3.931-1.691-1.051-2.579-.218l.907-1.468L18.077,27l1.073-1.735-4.718-2.928L15,21.415l-.646-.4L9.487,28.883l.647.4,1.319-2.135q.979-.833,2.707.278,1.554.983,1.1,1.771-.449.772-1.289.252a.9.9,0,0,1-.457-.746,1.483,1.483,0,0,1,.358-.977l-.889.04a3.364,3.364,0,0,0-.672,1.761Zm9.244-15.072L15.77,19.582l.5.571,1.985-1.76A1.1,1.1,0,0,1,19.784,19.6a1.79,1.79,0,0,1-.618.973,4.77,4.77,0,0,1-1.537.852l.791.894.187-.166a1.616,1.616,0,0,1,1.356-.17,12.97,12.97,0,0,0,1.888.244,3.392,3.392,0,0,0,2.177-.9,5.978,5.978,0,0,0,1.01-1.2l-.405-1.1a3.484,3.484,0,0,1-.753,1.21,2.041,2.041,0,0,1-1.853.151q-.7-.177-.788-.183a1.8,1.8,0,0,0-.98.241,5.032,5.032,0,0,0,1.148-1.493,1.338,1.338,0,0,0-.1-1.557,1.374,1.374,0,0,0-.74-.412,1.155,1.155,0,0,0-.87.127l2.356-2.089-.5-.571ZM29.158,10.3c-.35-.057-.554-.2-.609-.441q-.226-.919,1.583-1.781a3.856,3.856,0,0,1,3.66,0L35.4,6.65A7.752,7.752,0,0,0,31.964,6.6a10.558,10.558,0,0,0-3.036.982,5.7,5.7,0,0,0-1.855,1.39,1.488,1.488,0,0,0-.192,1.862.707.707,0,0,0,.524.3l-.539.256.327.688.482-.229,2.382,5.022,1.81-.862-2.382-5.023.989-.472-.326-.688-.991.472Zm6.063-.7a4.748,4.748,0,0,0-.965.151,2.818,2.818,0,0,0-1.812,1.18,2.317,2.317,0,0,0-.179,1.9,2.2,2.2,0,0,0,1.214,1.472,3.235,3.235,0,0,0,2.2.068,2.382,2.382,0,0,0,1.152-.54l.131.49,1.938-.512L37.49,8.437l1.06-.28-.194-.737L31.329,9.276l.194.737,4.027-1.064,1.021,3.88a1.61,1.61,0,0,1-.813.543.966.966,0,0,1-.992-.264,1.778,1.778,0,0,1-.464-.836q-.39-1.486.863-1.829a1.576,1.576,0,0,1,.691-.025L35.221,9.6Zm8.746-1.392a4.68,4.68,0,0,0-.952-.123,2.935,2.935,0,0,0-2.115.661,2.323,2.323,0,0,0-.746,1.761,1.971,1.971,0,0,0,.88,1.747,3.912,3.912,0,0,0,2.218.624,2.136,2.136,0,0,0,1.065-.141l-.012.509,2.035.047L46.43,9.41a2.2,2.2,0,0,1,.941-.194q1.225.03,1.208,1.376a2.125,2.125,0,0,1-.227.96.925.925,0,0,1-.883.55,1.17,1.17,0,0,1-.721-.271l.382,1.1a3.871,3.871,0,0,0,.531.051,3.3,3.3,0,0,0,2.177-.655,2.238,2.238,0,0,0,.92-1.743A2.046,2.046,0,0,0,50.045,8.9a3.03,3.03,0,0,0-2-.7,3.428,3.428,0,0,0-1.59.332l.018-.8,5.12.12.018-.762L40.24,6.826l-.018.762,4.212.1-.1,4.114a1.6,1.6,0,0,1-.776.185,1.046,1.046,0,0,1-.928-.532,1.751,1.751,0,0,1-.239-.975,2.042,2.042,0,0,1,.241-.976.972.972,0,0,1,.922-.527,1.809,1.809,0,0,1,.762.222Zm10.09,6.1,1.162-5.438,1.086.233.16-.744-3.6-.773-.159.745.55.117L52.1,13.891l1.961.42Zm6.974-1.056,1.853.883-1.415,2.982,1.839.876,2.384-5.023,1,.479.327-.688L58.111,8.518l-.326.688,1.838.875a.846.846,0,0,1,.391.636,1.135,1.135,0,0,1-.085.691q-.439.93-1.7.328a5.184,5.184,0,0,1-1.16-.8l-.523,1.1a.967.967,0,0,1,.339.092q.495.234.735,1.264.429,1.835.46,1.918a2.677,2.677,0,0,0,1.363,1.549,3.46,3.46,0,0,0,.956.287l.773-.644a2.068,2.068,0,0,1-.634-.16,1.29,1.29,0,0,1-.623-.846,5.983,5.983,0,0,1-.155-.988,2.216,2.216,0,0,0-1-1.586,6.5,6.5,0,0,0,1.125.3A1.931,1.931,0,0,0,61.152,13a1.159,1.159,0,0,0-.12.253Zm.487-.7a.618.618,0,0,0,.2-.241,1.154,1.154,0,0,0,.034-.743,1.06,1.06,0,0,0-.405-.671l2.5,1.192-.609,1.285-1.725-.822ZM74.26,20.7a4.725,4.725,0,0,0-.539-.8,2.941,2.941,0,0,0-1.9-1.144,2.3,2.3,0,0,0-1.809.609,1.973,1.973,0,0,0-.721,1.82A3.941,3.941,0,0,0,70.3,23.261a2.172,2.172,0,0,0,.811.7l-.386.328,1.315,1.557L75,23.34a2.185,2.185,0,0,1,.769.576,1.157,1.157,0,0,1-.223,1.818,2.131,2.131,0,0,1-.868.467.923.923,0,0,1-1-.3,1.177,1.177,0,0,1-.276-.72L72.836,26.2a3.751,3.751,0,0,0,.315.432,3.293,3.293,0,0,0,1.935,1.195,2.222,2.222,0,0,0,1.909-.468,2.043,2.043,0,0,0,.785-1.652,3.034,3.034,0,0,0-.811-1.965,3.415,3.415,0,0,0-1.3-.972l.61-.517,3.309,3.916.58-.493-7.348-8.694-.579.493L74.96,20.7l-3.133,2.66a1.611,1.611,0,0,1-.653-.458,1.055,1.055,0,0,1-.219-1.049,1.749,1.749,0,0,1,.568-.826,2.038,2.038,0,0,1,.891-.467.965.965,0,0,1,1,.339,1.794,1.794,0,0,1,.342.718l.5-.92Zm1.716,11.876L81.087,30.4l.434,1.026.7-.3-1.438-3.392-.7.3.222.52-5.111,2.176Zm5.557-7.493a1.2,1.2,0,0,1,.312.487,2.158,2.158,0,0,1-.005,1.355l-.6,1.491.8,2.21.939-2.648a2.961,2.961,0,0,0-.148-2,4.166,4.166,0,0,0-.606-1.148l-.691.253ZM79.155,37.531a1.427,1.427,0,0,1,.048-.989.965.965,0,0,1,.675-.516l2.322-.579L79.9,38.557Q79.381,38.444,79.155,37.531Zm3.677-5.022-.738.183.174.7-3,.747a1.622,1.622,0,0,0-1.152,1.305,4.1,4.1,0,0,0,.021,2.081A3,3,0,0,0,79.5,39.563l1.074-.252,2.34-3.3.644,2.589.738-.183-1.467-5.908Zm-4.67,9.045,5.532-.453.092,1.11.758-.063-.3-3.675-.758.063.047.564L78,39.552l.164,2Z" transform="translate(1.573 1.662)" fill="#273777" fill-rule="evenodd"/>
                  <path id="Stroke-285" d="M47.711,95.018A47.25,47.25,0,1,0,.552,47.769,47.2,47.2,0,0,0,47.711,95.018Z" transform="translate(-0.552 -0.518)" fill="none" stroke="#273777" stroke-width="0.8" fill-rule="evenodd"/>
                </g>
              </g>
            </g>
          </g>
        </g>
      </g>
      <text id="नगर_विकास_कोष" data-name="नगर विकास कोष" transform="translate(139 73)" fill="#f8f8f8" font-size="41" font-family="NirmalaUI-Bold, Nirmala UI" font-weight="700"><tspan x="0" y="0">नगर</tspan><tspan y="0" font-family="GillSans-UltraBold, Gill Sans"> </tspan><tspan y="0">विकास</tspan><tspan y="0" font-family="GillSans-UltraBold, Gill Sans"> </tspan><tspan y="0">कोष</tspan></text>
    </g>
  </g>
</svg>
