<?xml version="1.0" encoding="UTF-8" standalone="no"?>
<svg xmlns="http://www.w3.org/2000/svg" height="71px" width="299px" version="1.1" xmlns:xlink="http://www.w3.org/1999/xlink" viewBox="0 0 299 71"><!-- Generator: Sketch 41.1 (35376) - http://www.bohemiancoding.com/sketch -->
 <title>Logo</title>
 <desc>Created with Sketch.</desc>
 <defs>
  <path id="path-1" d="m16.693 6.8439c-2.779-3.9057-7.3377-6.4525-12.49-6.4525-1.2883-0.00003-2.5391 0.15911-3.7344 0.45884l0.00005 13.673h16.224v-7.6791z"/>
  <path id="path-3" d="m0.10716 15.752c0 8.483 6.8634 15.36 15.33 15.36 8.468 0 15.33-6.877 15.33-15.36 0-8.4832-6.862-15.361-15.33-15.361v0.00037c-8.4664 0-15.33 6.8774-15.33 15.361"/>
  <polygon id="path-5" points="5.396 0.4545 0.40254 0.45783 0.40254 0.55348 5.396 0.55348"/>
  <path id="path-7" d="m0.27205 0.63394c0.18684 0.18733 0.37847 0.36986 0.57472 0.54736h20.538c0.227-0.20557 0.448-0.41784 0.663-0.63651v-0.10141l-21.776 0.01454 0.00005 0.17602z"/>
 </defs>
 <g id="Symbols" fill-rule="evenodd" fill="none">
  <g id="Navigation" transform="translate(-69 -5)">
   <g id="Logo">
    <g transform="translate(69 5)">
     <g id="Text" transform="translate(75.773 2.5)">
      <path id="Town-Development-Fun" fill="#F36026" d="m5.8971 53.137v-8.492h3.0554v-2.464h-8.9525v2.464h3.0718v8.492h2.8253zm9.3469 0.197c3.351 0 5.848-2.332 5.848-5.667 0-3.334-2.497-5.667-5.848-5.667s-5.8645 2.333-5.8645 5.667c0 3.335 2.5135 5.667 5.8645 5.667zm0-2.497c-1.807 0-2.99-1.396-2.99-3.17 0-1.79 1.183-3.17 2.99-3.17s2.973 1.38 2.973 3.17c0 1.774-1.166 3.17-2.973 3.17zm18.299 2.3l3.137-10.956h-3.186l-1.643 7.309-1.873-7.309h-2.168l-1.873 7.309-1.659-7.309h-3.17l3.138 10.956h2.989l1.659-6.866 1.659 6.866h2.99zm14.209 0v-10.956h-2.842v6.028l-4.435-6.028h-2.908v10.956h2.826v-6.34l4.632 6.34h2.727zm10.792 0c3.433 0 5.914-2.086 5.914-5.486 0-3.401-2.481-5.47-5.93-5.47h-4.6v10.956h4.616zm-0.016-2.464h-1.774v-6.028h1.79c2.004 0 3.023 1.314 3.023 3.006 0 1.626-1.117 3.022-3.039 3.022zm15.375 2.464v-2.464h-5.207v-1.856h5.092v-2.464h-5.092v-1.708h5.207v-2.464h-8.033v10.956h8.033zm8.164 0l4.123-10.956h-3.203l-2.694 7.901-2.711-7.901h-3.203l4.123 10.956h3.565zm12.96 0v-2.464h-5.207v-1.856h5.092v-2.464h-5.092v-1.708h5.207v-2.464h-8.032v10.956h8.032zm8.823 0v-2.464h-4.404v-8.492h-2.825v10.956h7.229zm6.36 0.197c3.35 0 5.84-2.332 5.84-5.667 0-3.334-2.49-5.667-5.84-5.667-3.36 0-5.87 2.333-5.87 5.667 0 3.335 2.51 5.667 5.87 5.667zm0-2.497c-1.81 0-2.99-1.396-2.99-3.17 0-1.79 1.18-3.17 2.99-3.17 1.8 0 2.97 1.38 2.97 3.17 0 1.774-1.17 3.17-2.97 3.17zm10.1 2.3v-3.679h2.66c2.46 0 3.81-1.659 3.81-3.631 0-1.987-1.35-3.646-3.81-3.646h-5.49v10.956h2.83zm2.23-6.143h-2.23v-2.349h2.23c0.76 0 1.37 0.427 1.37 1.182 0 0.74-0.61 1.167-1.37 1.167zm17.94 6.143v-10.956h-3.93l-2.28 6.045-2.3-6.045h-3.93v10.956h2.83v-7.244l2.78 7.244h1.24l2.76-7.244v7.244h2.83zm10 0v-2.464h-5.2v-1.856h5.09v-2.464h-5.09v-1.708h5.2v-2.464h-8.03v10.956h8.03zm11.83 0v-10.956h-2.84v6.028l-4.44-6.028h-2.9v10.956h2.82v-6.34l4.63 6.34h2.73zm7.24 0v-8.492h3.06v-2.464h-8.95v2.464h3.07v8.492h2.82zm11.44 0v-4.32h5.09v-2.464h-5.09v-1.708h5.2v-2.464h-8.03v10.956h2.83zm11.92 0.197c3.52 0 5.16-1.922 5.16-4.648v-6.505h-2.86v6.422c0 1.298-0.79 2.234-2.3 2.234-1.52 0-2.31-0.936-2.31-2.234v-6.422h-2.88v6.521c0 2.694 1.68 4.632 5.19 4.632zm17.32-0.197v-10.956h-2.85v6.028l-4.43-6.028h-2.91v10.956h2.83v-6.34l4.63 6.34h2.73zm6.58 0c3.44 0 5.92-2.086 5.92-5.486 0-3.401-2.48-5.47-5.93-5.47h-4.6v10.956h4.61zm-0.01-2.464h-1.78v-6.028h1.79c2.01 0 3.03 1.314 3.03 3.006 0 1.626-1.12 3.022-3.04 3.022z"/>
      <path id="gu/-ljsf;-sf]if" stroke="#4F589B" fill="#4F589B" d="m13.442 12.201h-13.442v-2.088h20.359v2.088h-4.35v19.663l-2.567-2.393v-9.7h-7.2648v4.48c0 0.58-0.174 0.899-0.522 0.957-0.203 0.058-0.4133 0.022-0.6308-0.108-0.2175-0.131-0.3697-0.312-0.4568-0.544l-2.1315-4.089c-0.174-0.348-0.261-0.783-0.261-1.305 0-0.435 0.0652-0.798 0.1957-1.088s0.3118-0.486 0.5438-0.587c0.232-0.102 0.464-0.152 0.696-0.152 0.29 0.029 0.522 0.043 0.696 0.043h9.1354v-5.177zm28.102-2.131v2.131h-4.35v19.663l-2.523-2.393v-17.27h-6.221v11.05c0.029 0.551 0.043 0.957 0.043 1.218 0 0.406-0.05 0.71-0.152 0.913-0.101 0.203-0.297 0.305-0.587 0.305-0.435 0-0.812-0.232-1.131-0.696l-3.437-4.568c-0.29-0.406-0.478-0.681-0.565-0.826-0.174-0.319-0.203-0.609-0.087-0.87 0.116-0.29 0.406-0.435 0.87-0.435h2.784v-6.091h-5.829v-2.131h21.185zm8.091 5.307c0-0.899-0.072-1.552-0.217-1.958s-0.479-0.812-1.001-1.218h-6.873v-2.088h14.964v2.088h-5.22c0.522 1.131 0.783 2.364 0.783 3.698 0 1.305-0.681 2.741-2.044 4.307-1.073 1.247-1.914 1.986-2.523 2.218 0 0.551 0.087 1.03 0.261 1.436 0.058 0.116 0.203 0.391 0.435 0.826 0.116 0.203 0.282 0.428 0.5 0.675 0.217 0.246 0.428 0.471 0.631 0.674l4.35 5.22-0.522 0.609-4.785-5.394c-1.45-1.624-2.473-2.813-3.067-3.567-0.595-0.754-0.965-1.284-1.11-1.588-0.145-0.305-0.275-0.602-0.391-0.892s-0.174-0.565-0.174-0.826c0-0.087 0.029-0.247 0.087-0.479 0.203-0.551 0.413-0.906 0.631-1.066 0.217-0.159 0.543-0.239 0.978-0.239 0.319 0.029 0.58 0.044 0.784 0.044h2.001c1.015-0.667 1.522-1.494 1.522-2.48zm23.404 13.92v-17.096h-2.175v-2.088h2.262c-0.232-0.3767-0.45-0.7755-0.653-1.196s-0.362-0.841-0.478-1.2615-0.218-0.8338-0.305-1.2398-0.13-0.7975-0.13-1.1745c0-0.4061 0.087-0.8701 0.261-1.3921 0.435-1.363 1.247-2.3056 2.436-2.8276 0.667-0.261 1.247-0.3915 1.74-0.3915 0.232 0 0.522 0.029 0.87 0.087 0.348 0.05801 0.776 0.14501 1.283 0.26101 0.508 0.11599 1.008 0.31899 1.501 0.60899 0.29 0.174 0.798 0.551 1.523 1.1311 0.725 0.58 1.392 1.276 2.001 2.088 0.406 0.5801 0.732 1.0876 0.978 1.5226 0.247 0.435 0.486 0.986 0.718 1.653 0.232 0.6671 0.385 1.1093 0.457 1.3268 0.073 0.2175 0.138 0.5438 0.196 0.9785h-0.609c-0.29-1.0437-0.754-2.1167-1.392-3.2188-0.203-0.319-0.392-0.6525-0.566-1.0005-0.348-0.522-0.754-1.0006-1.218-1.4356-0.319-0.261-0.623-0.5365-0.913-0.8265-0.551-0.464-1.102-0.7468-1.653-0.8483s-1.001-0.1522-1.349-0.1522c-0.58 0-1.232 0.1595-1.958 0.4785-1.247 0.551-2.03 1.3775-2.349 2.4796-0.029 0.058-0.065 0.2247-0.108 0.5002-0.044 0.2755-0.066 0.5003-0.066 0.6743 0 0.406 0.102 0.9135 0.305 1.5226 0.203 0.609 0.594 1.16 1.174 1.6527h4.003v2.088h-3.263v19.663l-2.523-2.567zm18.705-17.096h-12.919v-2.088h19.662v2.088h-4.35v19.663l-2.393-2.393v-5.742c-0.522 0.348-1.022 0.631-1.5 0.849-0.479 0.217-0.957 0.406-1.436 0.565-0.478 0.16-0.899 0.283-1.261 0.37-0.363 0.087-0.776 0.13-1.24 0.13-0.841 0-1.559-0.181-2.154-0.543-0.594-0.363-1.196-0.921-1.805-1.675-0.464-0.58-0.812-1.131-1.044-1.653s-0.348-1.088-0.348-1.697c0-0.29 0.036-0.652 0.109-1.087 0.072-0.435 0.355-0.914 0.848-1.436s1.117-0.986 1.871-1.392c0.522-0.29 1.066-0.493 1.631-0.609 0.566-0.116 1.167-0.174 1.805-0.174 1.015 0 1.914 0.261 2.697 0.783 0.667 0.435 1.276 1.102 1.827 2.001v-5.96zm-3.871 10.615c0.783-0.377 1.595-0.972 2.436-1.784 0.986-0.957 1.363-1.682 1.131-2.175-0.145-0.319-0.493-0.573-1.044-0.761-0.551-0.189-1.218-0.283-2.001-0.283-0.841 0-1.653 0.16-2.436 0.479-0.87 0.406-1.646 0.964-2.328 1.674-0.681 0.711-1.022 1.4-1.022 2.067 0 0.29 0.073 0.551 0.218 0.783 0.29 0.435 1.015 0.652 2.175 0.652 0.522 0 1.008-0.051 1.457-0.152 0.45-0.102 0.921-0.268 1.414-0.5zm22.317-10.615h-11.703v-2.088h24.623v2.088h-10.4v5.83c0.38-0.261 0.88-0.493 1.5-0.696 0.63-0.203 1.29-0.305 1.98-0.305 1.89 0 3.26 0.928 4.13 2.784 0.38 0.754 0.57 1.537 0.57 2.349 0 1.073-0.41 2.103-1.22 3.089-0.43 0.551-0.87 0.986-1.3 1.305-0.44 0.319-0.96 0.565-1.57 0.739l-1-1.957c0.38-0.174 0.67-0.305 0.87-0.392 0.61-0.29 1.1-0.565 1.48-0.826 1.07-0.783 1.61-1.697 1.61-2.741 0-0.464-0.1-0.855-0.31-1.174-0.23-0.464-0.57-0.762-1.02-0.892-0.45-0.131-1.02-0.196-1.72-0.196h-0.52c-0.64 0-1.4 0.464-2.3 1.392-0.29 0.29-0.68 0.769-1.18 1.436v9.918l-2.52-2.393v-4.567c-0.38 0.435-0.99 0.841-1.83 1.218s-1.69 0.565-2.56 0.565c-1.43 0-2.64-0.485-3.64-1.457-1-0.971-1.5-2.153-1.5-3.545 0-1.334 0.31-2.531 0.94-3.589 0.62-1.059 1.5-1.588 2.63-1.588 1.83 0 3.07 0.74 3.74 2.219l-0.56 0.478c-0.5-0.174-0.96-0.261-1.4-0.261-0.78 0-1.53 0.276-2.26 0.827-1.01 0.812-1.52 1.798-1.52 2.958 0 0.696 0.2 1.261 0.61 1.696 0.2 0.232 0.43 0.406 0.69 0.522s0.54 0.174 0.83 0.174c0.52 0 1.05-0.123 1.59-0.369 0.53-0.247 1.12-0.595 1.76-1.044 0.64-0.45 1.2-1.052 1.7-1.806 0.4-0.609 0.66-1.189 0.78-1.74v-7.961zm15.09 17.183v-17.183h-2.17v-2.088h9v2.088h-4.35v19.663l-2.48-2.48zm16.16-10.255c0.92 0.805 2.01 1.207 3.29 1.207 0.52 0 0.96-0.051 1.33-0.152 0.36-0.102 0.71-0.297 1.06-0.587 0.76-0.609 1.13-1.291 1.13-2.045v-5.351h-6.39c0.52 1.131 0.78 2.364 0.78 3.698 0 1-0.4 2.077-1.2 3.23zm-1.12 1.398c-0.94 1.053-1.69 1.686-2.25 1.897 0 0.551 0.09 1.03 0.26 1.436 0.06 0.116 0.21 0.391 0.44 0.826 0.12 0.203 0.28 0.428 0.5 0.675 0.22 0.246 0.43 0.471 0.63 0.674l4.35 5.22-0.52 0.609-4.79-5.394c-1.45-1.624-2.47-2.813-3.06-3.567-0.6-0.754-0.97-1.284-1.11-1.588-0.15-0.305-0.28-0.602-0.39-0.892-0.12-0.29-0.18-0.565-0.18-0.826 0-0.087 0.03-0.247 0.09-0.479 0.2-0.551 0.41-0.906 0.63-1.066 0.22-0.159 0.54-0.239 0.98-0.239 0.32 0.029 0.58 0.044 0.78 0.044h2c1.02-0.667 1.53-1.494 1.53-2.48 0-0.899-0.08-1.552-0.22-1.958-0.15-0.406-0.48-0.812-1-1.218h-6.88v-2.088h23.02v2.088h-4.35v19.663l-2.53-2.393v-7.917c-0.37 0.174-0.74 0.334-1.08 0.479-0.35 0.145-0.76 0.239-1.22 0.282-0.47 0.044-0.79 0.066-0.96 0.066-0.43 0-0.99-0.073-1.65-0.218-1.11-0.243-2.12-0.788-3.02-1.636zm1.12-1.398c-0.24 0.352-0.52 0.711-0.84 1.077-0.1 0.111-0.19 0.218-0.28 0.321-0.07-0.062-0.14-0.126-0.2-0.191l1.26-1.261 0.06 0.054zm39.74-6.928h-11.7v-2.088h24.62v2.088h-10.39v5.83c0.37-0.261 0.87-0.493 1.5-0.696 0.62-0.203 1.28-0.305 1.98-0.305 1.88 0 3.26 0.928 4.13 2.784 0.38 0.754 0.56 1.537 0.56 2.349 0 1.073-0.4 2.103-1.21 3.089-0.44 0.551-0.87 0.986-1.31 1.305-0.43 0.319-0.96 0.565-1.56 0.739l-1-1.957c0.37-0.174 0.66-0.305 0.87-0.392 0.6-0.29 1.1-0.565 1.47-0.826 1.08-0.783 1.61-1.697 1.61-2.741 0-0.464-0.1-0.855-0.3-1.174-0.23-0.464-0.57-0.762-1.02-0.892-0.45-0.131-1.03-0.196-1.72-0.196h-0.52c-0.64 0-1.41 0.464-2.31 1.392-0.29 0.29-0.68 0.769-1.17 1.436v9.918l-2.53-2.393v-4.567c-0.37 0.435-0.98 0.841-1.82 1.218s-1.7 0.565-2.57 0.565c-1.42 0-2.63-0.485-3.63-1.457-1-0.971-1.5-2.153-1.5-3.545 0-1.334 0.31-2.531 0.93-3.589 0.63-1.059 1.5-1.588 2.63-1.588 1.83 0 3.08 0.74 3.74 2.219l-0.56 0.478c-0.49-0.174-0.96-0.261-1.39-0.261-0.79 0-1.54 0.276-2.26 0.827-1.02 0.812-1.53 1.798-1.53 2.958 0 0.696 0.21 1.261 0.61 1.696 0.2 0.232 0.44 0.406 0.7 0.522s0.53 0.174 0.82 0.174c0.53 0 1.06-0.123 1.59-0.369 0.54-0.247 1.13-0.595 1.76-1.044 0.64-0.45 1.21-1.052 1.7-1.806 0.41-0.609 0.67-1.189 0.78-1.74v-7.961zm15.1 17.183v-17.183h-2.18v-2.088h9.01v2.088h-4.35v19.663l-2.48-2.48zm-5.31-24.882c-0.75-0.174-1.41-0.261-1.96-0.261h-0.54c-0.16 0-0.46 0.058-0.89 0.174l-1.22-2.9146c0.46 0 0.91 0.0073 1.35 0.0218 0.43 0.0145 0.91 0.0725 1.43 0.174 0.53 0.1015 1 0.2827 1.44 0.5438 0.03 0.029 0.74 0.5655 2.13 1.6095 0.7 0.551 1.29 1.073 1.78 1.5661 0.35 0.377 0.86 1.0005 1.53 1.8705 0.23 0.29 0.45 0.58 0.65 0.87 0.32 0.4351 0.65 0.9426 1 1.5226h-0.74c-0.61-0.957-1.29-1.7981-2.04-2.5231-0.96-0.928-1.56-1.479-1.79-1.653-0.61-0.4641-1.32-0.7976-2.13-1.0006zm14.27 7.6994h-2.13v-2.131h11v2.131h-6.39l8.18 8.135v3.176c-1.22 0.957-2.51 1.435-3.87 1.435-0.73 0-1.37-0.094-1.92-0.282-0.55-0.189-1.22-0.501-2.02-0.936s-1.47-1.102-2.02-2.001-0.83-1.885-0.83-2.958v-6.569zm2.48 1.305v6.874c0 0.928 0.35 1.696 1.04 2.305 0.7 0.609 1.53 0.914 2.48 0.914 0.81 0 1.67-0.211 2.57-0.631 0.9-0.421 1.51-0.921 1.83-1.501l-7.92-7.961zm8.18 15.878v-17.183h-2.18v-2.088h9.01v2.088h-4.35v19.663l-2.48-2.48z"/>
     </g>
     <g id="TDF-LOGO">
      <g id="Group-25" transform="translate(1.7284 1.7658)">
       <path id="Stroke-1" stroke="#273777" stroke-width=".843" d="m33.289 64.647c17.269 0 31.268-14.026 31.268-31.328 0-17.303-13.999-31.329-31.268-31.329-17.27-0.0004-31.269 14.026-31.269 31.329 0.0002 17.302 13.999 31.328 31.269 31.328z"/>
       <path id="Fill-3" fill="#fff" d="m33.289 66.482c18.28 0 33.1-14.848 33.1-33.164 0-18.315-14.82-33.163-33.1-33.163-18.281-0.00001-33.101 14.848-33.101 33.163 0.00014 18.316 14.82 33.164 33.101 33.164"/>
       <path id="Stroke-5" stroke="#273777" stroke-width=".8" d="m33.289 66.482c18.28 0 33.1-14.848 33.1-33.164 0-18.315-14.82-33.163-33.1-33.163-18.281-0.00001-33.101 14.848-33.101 33.163 0.00014 18.316 14.82 33.164 33.101 33.164z"/>
       <path id="Stroke-7" stroke="#273777" stroke-width=".843" d="m33.289 55.584c12.266 0 22.21-9.963 22.21-22.253s-9.944-22.253-22.21-22.253c-12.267 0-22.211 9.963-22.211 22.253s9.944 22.253 22.211 22.253z"/>
       <path id="Stroke-9" stroke="#273777" stroke-width=".843" d="m22.207 14.526c0.025 0.217 0.043 0.436 0.043 0.66 0 3.962-3.205 7.174-7.159 7.174-0.384 0-0.704 0.002-1.071-0.056-0.024 0.043-0.052 0.083-0.076 0.125 1.091 1.259 1.701 2.857 1.701 4.656 0 2.934-1.76 5.453-4.279 6.564l-0.012 0.17c2.707 1.023 4.635 3.637 4.635 6.708 0 1.567-0.507 3.013-1.358 4.194l0.064 0.139c0.288-0.039 0.579-0.064 0.877-0.064 3.955 0 7.161 3.212 7.161 7.174 0 0.16-0.007 0.317-0.019 0.474l0.242 0.184s2.616-1.352 4.175-1.352c2.752 0 5.137 1.558 6.336 3.84 0 0 0.386 0.073 0.387 0.016 1.17-2.366 3.604-3.994 6.418-3.994 1.566 0 3.01 0.509 4.188 1.364 0.04-0.023 0.082-0.044 0.122-0.068-0.03-0.265-0.049-0.535-0.049-0.808 0-3.962 3.206-7.175 7.161-7.175 0.248 0 0.493 0.013 0.735 0.038 0.077-0.132 0.162-0.26 0.236-0.394-0.911-1.204-1.458-2.699-1.458-4.326 0-2.92 1.744-5.427 4.243-6.547-0.001-0.014-0.002-0.027-0.002-0.04-2.535-1.105-4.31-3.634-4.31-6.579 0-1.603 0.532-3.078 1.417-4.272-0.092-0.162-0.177-0.33-0.273-0.49-0.328 0.046-0.661 0.078-1.001 0.078-3.955 0-7.16-3.211-7.16-7.173 0-0.275 0.018-0.544 0.048-0.811-0.064-0.036-0.125-0.078-0.19-0.114-1.22 0.968-2.759 1.55-4.436 1.55-2.94 0-5.463-1.777-6.566-4.316-0.063 0.001-0.125 0.007-0.188 0.009-0.987 2.398-3.236 4.126-5.917 4.391-0.143 0.016-0.289 0.025-0.434 0.033-0.091 0.003-0.178 0.02-0.27 0.02-0.019 0-0.036-0.003-0.055-0.004-0.028 0.001-0.055 0.004-0.083 0.004-1.348 0-2.605-0.377-3.681-1.027-0.054-0.032-0.142 0.045-0.142 0.045z"/>
       <path id="Stroke-11" stroke="#273777" stroke-width=".562" d="m31.388 13.223c0.46 0.276 0.997 0.435 1.573 0.435 0.567 0 1.098-0.154 1.554-0.425"/>
       <path id="Stroke-13" stroke="#273777" stroke-width=".562" d="m41.524 15.159c0.53 0.916 1.518 1.532 2.651 1.532 0.063 0 0.126-0.001 0.189-0.006"/>
       <path id="Stroke-15" stroke="#273777" stroke-width=".562" d="m49.84 21.784c-0.038 0.192-0.057 0.391-0.057 0.594 0 1.19 0.675 2.22 1.662 2.729"/>
       <path id="Stroke-17" stroke="#273777" stroke-width=".562" d="m53.154 31.454c-0.263 0.453-0.413 0.979-0.413 1.54 0 0.644 0.198 1.241 0.536 1.735"/>
       <path id="Stroke-19" stroke="#273777" stroke-width=".562" d="m13.599 35.286c0.275-0.46 0.433-0.999 0.433-1.575 0-0.609-0.177-1.176-0.482-1.653"/>
       <path id="Stroke-21" stroke="#273777" stroke-width=".562" d="m15.29 25.008c0.956-0.519 1.605-1.532 1.605-2.699 0-0.064-0.002-0.127-0.006-0.189"/>
       <path id="Stroke-23" stroke="#273777" stroke-width=".562" d="m22.025 16.888c0.067 0.004 0.134 0.006 0.203 0.006 1.149 0 2.15-0.635 2.674-1.574"/>
      </g>
      <path id="Stroke-26" stroke="#273777" stroke-width=".562" d="m25.467 18.269l1.964 3.117"/>
      <path id="Stroke-27" stroke="#273777" stroke-width=".562" d="m44.595 18.218l-1.858 2.997"/>
      <path id="Stroke-28" stroke="#273777" stroke-width=".562" d="m50.498 34.992h3.907"/>
      <path id="Stroke-29" stroke="#273777" stroke-width=".562" d="m15.807 35.484h3.908"/>
      <g id="Group-36" fill="#273777" transform="translate(17.284 15.619)">
       <path id="Fill-30" d="m2.1853 10.608l0.9801 0.544 0.2568-0.464-1.4503-0.805 0.1422-0.257-0.199-0.1105-1.205 2.1785 0.19893 0.11 0.80617-1.457 0.2215 0.123c-0.1599 0.154-0.2885 0.318-0.3846 0.492-0.1365 0.247-0.1968 0.471-0.181 0.672 0.0176 0.234 0.1346 0.412 0.3508 0.532 0.1744 0.096 0.3486 0.116 0.5224 0.057 0.1735-0.058 0.311-0.184 0.4122-0.377 0.2023-0.387 0.1173-0.687-0.2554-0.9-0.1977-0.113-0.3969-0.081-0.5976 0.095 0.1322-0.208 0.2596-0.352 0.3818-0.433m-0.3064 0.687c0.0428-0.077 0.1514-0.07 0.3261 0.021 0.1943 0.098 0.2614 0.2 0.2028 0.306-0.0336 0.061-0.0968 0.087-0.1907 0.079-0.0724-0.005-0.1394-0.027-0.2025-0.064-0.2487-0.151-0.3137-0.338-0.197-0.56l0.0411 0.278c0.0038-0.023 0.0107-0.042 0.0202-0.06"/>
       <path id="Fill-32" d="m33.303 10.135c-0.018-0.086-0.044-0.1668-0.079-0.242-0.1-0.2156-0.243-0.3534-0.427-0.4132-0.171-0.0577-0.357-0.0391-0.559 0.0549-0.199 0.093-0.32 0.2393-0.364 0.4387-0.04 0.1826-0.008 0.3856 0.095 0.6076 0.062 0.132 0.116 0.21 0.163 0.233l-0.137 0.064 0.227 0.489 1.05-0.491c0.073 0.056 0.128 0.121 0.163 0.198 0.091 0.195 0.016 0.351-0.225 0.467-0.101 0.047-0.196 0.071-0.284 0.072-0.124 0.003-0.208-0.042-0.251-0.136-0.03-0.063-0.034-0.131-0.013-0.206l-0.25 0.236c0.013 0.045 0.03 0.09 0.05 0.132 0.096 0.208 0.24 0.351 0.432 0.429 0.191 0.078 0.383 0.074 0.574-0.012 0.185-0.083 0.307-0.214 0.367-0.391s0.043-0.366-0.05-0.566c-0.064-0.139-0.156-0.25-0.276-0.333l0.216-0.101 0.572 1.228 0.206-0.097-1.269-2.7263-0.206 0.0963 0.47 1.01-1.112 0.52c-0.064-0.042-0.111-0.095-0.141-0.159-0.046-0.099-0.035-0.196 0.033-0.29 0.054-0.076 0.131-0.138 0.232-0.185 0.104-0.049 0.201-0.0723 0.291-0.0717 0.12 0.0012 0.204 0.0507 0.249 0.1477 0.026 0.056 0.036 0.125 0.031 0.211l0.222-0.214zm-0.254 3.008l1.503-0.702 0.124 0.267 0.206-0.096-0.411-0.883-0.206 0.096 0.063 0.135-1.503 0.702 0.224 0.481zm1.481-2.301c0.042 0.029 0.074 0.069 0.098 0.119 0.046 0.1 0.051 0.221 0.014 0.363l-0.159 0.422 0.262 0.563 0.243-0.744c0.049-0.151 0.027-0.328-0.067-0.531-0.055-0.118-0.119-0.212-0.192-0.285l-0.199 0.093z"/>
       <path id="Fill-34" d="m17.246 0.96989c-0.077-0.06078-0.109-0.12663-0.095-0.19698 0.033-0.1846 0.226-0.27746 0.579-0.27746 0.378 0 0.668 0.15702 0.873 0.4705l0.546-0.1784c-0.196-0.19473-0.468-0.34613-0.815-0.45475-0.301-0.09398-0.579-0.13563-0.836-0.1255-0.253 0.01013-0.453 0.05572-0.599 0.13676-0.193 0.10637-0.279 0.26564-0.257 0.47782 0.006 0.05571 0.036 0.10524 0.091 0.14801h-0.157v0.22741h0.141v1.6619h0.529v-1.6619h0.29v-0.22741h-0.29zm1.187 0.39061c-0.086-0.0203-0.171-0.0304-0.256-0.0304-0.24 0-0.421 0.0681-0.542 0.2032-0.121 0.135-0.18 0.314-0.174 0.5369 0.005 0.22 0.076 0.3922 0.211 0.5177 0.135 0.125 0.321 0.188 0.558 0.188 0.163 0 0.273-0.0231 0.331-0.0686v0.1519h0.53v-1.6619h0.289v-0.22741h-1.919v0.22741h1.1v1.1993c-0.08 0.063-0.161 0.0945-0.244 0.0945-0.104 0-0.183-0.0506-0.235-0.1519-0.042-0.0782-0.063-0.1705-0.063-0.2769 0-0.3056 0.115-0.4598 0.344-0.4626 0.061 0 0.119 0.0152 0.178 0.0456l-0.108-0.2848z"/>
      </g>
      <g id="Group-131" transform="translate(19.877 19.083)">
       <g id="Group-39" transform="translate(11.235)">
        <mask id="mask-2" fill="white">
         <use xlink:href="#path-1"/>
        </mask>
        <path id="Fill-37" fill="#1A1918" mask="url(#mask-2)" d="m16.693 7.5902c-1.128 0.1021-2.441 0.0381-3.877 0.1194 0.098 0.4503-0.289 1.2183 0 1.9127 0.435 0.045 0.225-0.7031 0-0.7178 0.133-0.0658 0.292-0.1047 0.298-0.2987 0.462-0.0814 1.095 0.0242 1.61 0.0598 0.543 0.038 1.016-0.3724 1.253 0.1792-0.019 0.7905-0.005 1.2612-0.358 1.7332-0.895 0.055-1.366-0.002-2.148 0-0.07-0.308-0.199-0.557-0.536-0.5972-0.191-0.0528-0.124 0.1552-0.239 0.1792 0.173 0.621-0.027 1.3 0 1.972 0.032 0.807 0.342 1.717-0.119 2.391-0.388-0.458-0.12-1.077-0.119-1.614 0.002-1.897-0.108-3.6105-0.12-5.6176 0.759-0.4208 1.915 0.1646 2.625-0.2389 0.188-0.0286 0.158 0.1601 0.298 0.1792 0.436-0.3403 0.789 0.0589 1.134-0.0597 0.055-0.3741-0.379-0.2581-0.537-0.4183-0.052-0.1922 0.154-0.1246 0.179-0.2398-0.136-0.3836-0.451-0.8745-0.955-0.5377-0.028 0.2251-0.016 0.2537-0.119 0.478 0.284 0.1333 0.86-0.0243 0.776 0.4788-0.57-0.0667-1.452 0.1498-1.909-0.3585h-0.477c-0.252-0.1472-0.278-0.5186-0.597-0.5983-0.216 0.3593 0.289 0.4511 0.418 0.6572-0.075 0.3585-0.412 0.394-0.716 0.239-0.374-0.5594 0.131-3.4262-0.179-3.8245-0.16-0.2052-0.45-0.2476-0.597 0 0.068 1.3083 0.26 2.2677 0 3.4063 0.006 0.3143 0.403 0.2337 0.418 0.5385-0.148 0.3663-0.602 0.3204-0.835 0.0598 0.094-0.7204 0.156-0.8849-0.119-1.4945-0.294 0.0242-0.337 0.3005-0.538 0.4182h-1.1923c-0.4866-1.0001 0.6323-1.0685 0.5367-2.0322 0.3146-0.3004 0.9976-0.2796 1.1336 0.1195-0.415 0.1949-0.123 0.7585-0.478 0.9568 0.109 0.1697 0.349 0.2087 0.478 0.3585 0.415-0.6823-0.007-1.1733 0.119-2.1517-0.013-0.2658-0.344-0.213-0.477-0.3584 0.014-0.2927-0.105-0.4529-0.06-0.7767-0.598-0.1221-0.5 0.4554-0.7156 0.7169-0.4486-0.0312-0.8288 0.0061-1.0734 0.1792-0.0786 1.3023-0.534 2.2391-0.0596 3.4661-0.3604 1.1403-0.0484 2.7975-0.5963 3.9448-0.573-0.167-0.2973-0.9395-0.2981-1.4347-0.0044-0.9542-0.1565-1.9595 0.0587-2.8686-0.286-0.8581 0.0458-1.6114-0.1192-2.5101-0.974-0.2407-2.2634 0.0641-3.5191-0.1195-0.3828 0.7507-0.1598 1.5871-0.1788 2.2711-0.0044 0.1308-0.096 0.1697-0.1193 0.2988-0.0294 0.1549 0.1236 0.426 0.1193 0.6571-0.0018 0.0615-0.1219 0.1949-0.1193 0.2399 0.0458 0.8754 0.3172 1.8546-0.1789 2.8088-0.4822-0.9048-0.1314-2.4452-0.1789-3.7058-0.0345-0.9031-0.1089-2.0764-0.0605-3.0479 0.5367-0.0484 1.0224 0.2113 1.4916-0.1194 0.9973 0.1117 2.5961 0.2666 3.5795 0 0.0493-0.1749-0.356-0.194-0.1797-0.2988 0.1547-0.4112 0.7164-0.0684 1.0742-0.2987v-0.3593c-0.121-0.1368-0.4952-0.0217-0.7156-0.0589-0.0527-0.2069-0.1261-0.3931-0.2981-0.4788-0.3474 0.0312-0.668 0.0883-1.0742 0.0597-0.7061-0.78789-1.788 0.1853-1.61 1.0166-0.0484 0.051-0.1642 0.0355-0.1798 0.1194-0.4969 0.0399-0.5012-0.4138-0.7155-0.658-0.2826 0.045-0.4097-0.0667-0.656-0.0589-0.2782 0.1585-0.1944 0.6814-0.7164 0.5975-0.1547-0.6538 0.1504-1.4313-0.3578-1.6737-0.3759 0.04152-0.4208 0.4147-0.7751 0.4779-0.7165-0.41647-1.3274 0.2953-2.0274 0.0598 1.0793-1.4893 4.06-0.88755 5.905-0.71697 1.7889 0.16537 3.6843 0.85547 5.1893 1.4945 1.682 0.7135 2.897 2.2815 4.295 3.3465 0.197 0.7975 0.716 1.2754 0.835 2.1517m-3.937-3.7059c-0.128 0.5585 0.012 1.0676 0 1.6737 0.446-0.3992 1.321-0.3784 1.014-1.375-0.296-0.155-0.61-0.4277-1.014-0.2987m1.313 2.0919c0.372-0.1645 0.772-0.3013 0.775-0.8364-0.444-0.1481-1.559 0.4632-0.775 0.8364m-0.538 3.5266c0.493 0.3169 1.823 0.4442 2.088-0.1792-0.413-0.529-1.811-0.568-2.088 0.1792"/>
       </g>
       <path id="Fill-40" fill="#1A1918" d="m9.7339 1.9122c-0.2446 0.213-0.5661 0.349-0.7752 0.5975-0.0985-0.1282 0.0743-0.368 0.1193-0.5377 0.2013-0.0191 0.5081-0.3585 0.6559-0.0598"/>
       <path id="Fill-42" fill="#1A1918" d="m14.029 1.9122c0.092 0.1091 0.092 0.4892 0 0.5975-0.257 0.0389-0.334-0.1031-0.477-0.1793 0.061-0.2372 0.15-0.4467 0.477-0.4182"/>
       <path id="Fill-44" fill="#1A1918" d="m19.517 2.1513c-0.02 0.1394-0.072 0.2468-0.119 0.3585-0.707-0.0416-1.197 0.0424-1.79-0.0598 0.043-0.2372 0.043-0.2398 0-0.4779 0.568 0.1281 1.269-0.2321 1.909 0.1792"/>
       <path id="Fill-46" fill="#1A1918" d="m14.149 3.0479c0.034 0.2338-0.052 0.3472-0.12 0.4779-0.279 0-0.485-0.0718-0.477-0.3584-0.016-0.2468 0.462-0.2104 0.597-0.1195"/>
       <path id="Fill-48" fill="#1A1918" d="m13.373 6.5741c-0.338 0.4052-0.807 0.1879-1.372 0.2987-0.703-0.413-0.255-1.5819 0.238-1.9724v-0.4182c0.264-0.2347 0.388-0.6079 0.836-0.6572 0.213 0.1446 0.284 0.4321 0.417 0.6572-0.208 0.5281-0.088 1.3862-0.119 2.0919m-0.716-0.9568c-0.06 0.1801 0.132 0.1065 0.239 0.1204v-0.1793c-0.104-0.0052-0.186 0.013-0.239 0.0589"/>
       <path id="Fill-50" fill="#1A1918" d="m17.608 3.9443c0.341 0.2407 0.163 0.581 0.119 1.0157-0.09 0.9117 0.134 2.2269 0.12 3.3473-0.315 0.6867-1.44 0.4234-1.492-0.2987 0.35-0.4303 0.123-0.8883 0.06-1.4347-0.027-0.2355 0.084-0.5195 0.059-0.7767-0.016-0.1757-0.175-0.361-0.179-0.4779-0.002-0.1005 0.155-0.0797 0.179-0.1801 0.019-0.0727-0.137-0.1637-0.119-0.2979 0.019-0.1394 0.218-0.245 0-0.4788 0.144-0.5533 0.631-0.5853 1.253-0.4182"/>
       <path id="Fill-52" fill="#1A1918" d="m8.4218 6.8727c-0.3016 0.0433-0.3535-0.1636-0.5963-0.1792-0.2826 0.0164-0.3362 0.2615-0.5375 0.3584-0.5091-0.0069-0.8617-0.1723-1.0734-0.4779-0.2929 0.0649-0.1711 0.5455-0.5366 0.5377-0.4563-0.4736-0.0268-1.1499-0.2982-1.8529 0.1633-0.1775 0.433 0.1186 0.5963-0.0598 0.1417-0.1359 0.1936-0.3628 0.1789-0.6572 0.2316-0.2459 0.802-0.1524 0.9549-0.4779 0.4883 0.045 0.4503 0.8373 0.9541 0.9559 0.1469 0.0355 0.3673-0.116 0.5367-0.0598 0.8019 0.2693 0.5617 1.6097-0.1789 1.9127m-1.7898-1.6737c0.0069 0.7005 1.3577 1.2538 1.8494 0.5386-0.4304-0.1455-1.1468-0.0502-1.4311-0.4788-0.0423-0.2217 0.102-0.2563 0.0596-0.478-0.4174-0.2216-0.4796 0.2563-0.4779 0.4182m-0.8348 0.9568c0.1582 0.0407 0.2835 0.1143 0.4174 0.1792-0.019-0.1402-0.0942-0.2242-0.0596-0.4182-0.1409 0.058-0.3785 0.0191-0.3578 0.239"/>
       <path id="Fill-54" fill="#1A1918" d="m13.492 6.4544c0.558-0.4069 0.309-0.9619 0.239-1.7334 0.248-0.278 0.522-0.0052 0.596 0.3593 0.069 0.336 0.061 1.3724 0.06 1.3741-0.141 0.542-0.719 0.5602-0.895 0"/>
       <path id="Fill-56" fill="#1A1918" d="m5.0815 6.0957c-0.0268 0.3342-0.0683 0.4606 0 0.7767-0.2696 0.2017-0.4546 0.1212-0.8357 0.1801-0.0639-0.5663 0.013-1.4599 0.8357-0.9568"/>
       <path id="Fill-58" fill="#1A1918" d="m21.128 8.3668c0.821 0.3975 0.63-0.7178 1.073-0.8961 0.218 0.0008 0.268 0.1697 0.418 0.2389-0.124 0.7014-0.02 1.2625-0.418 1.6729-0.557-0.0104-1.468 0.1714-2.087-0.0589 0.005-0.4537-0.128-0.9672-0.06-1.4945 0.323-0.2147 0.611-0.4623 0.895-0.7178 0.351 0.2356 0.148 0.6806 0.179 1.2555"/>
       <path id="Fill-60" fill="#1A1918" d="m12.359 7.5303c0.205 0.1593 0.228 0.5594 0.059 0.7767 0.022 0.5368 0.743 0.3723 1.134 0.5386 0.24-0.491-0.073-0.8962 0.119-1.375 0.942 0.0944 0.573 1.2044 0.537 1.8529-0.052 0.9435 0.354 2.0075 0.119 2.8085-0.052 0.167-0.295 0.142-0.298 0.359-0.088 0.326 0.152 0.325 0.239 0.478-0.329 0.342 0.158 1.273 0.059 1.673-0.192 0.787-1.263 0.598-2.147 0.598-0.454-0.36-0.193-1.36-0.119-1.793 0.385-0.189 0.573 0.29 0.536 0.717 0.284 0.148 0.541-0.042 0.896 0 0.468-0.432 0.159-0.759 0.178-1.255-0.143-0.076-0.176-0.261-0.418-0.239-0.162 0.135 0.04 0.637-0.118 0.777-0.895 0.135-0.928-1.697 0.297-1.434 0.406-0.328 0.377-1.328 0.12-1.734-0.483 0.148-0.923 0.16-1.73 0.18-0.403-0.283 0.01-0.6125-0.179-0.8965-0.247-0.3723-0.379 0.0208-0.836-0.1195-0.728-0.2251-0.385-1.2053-0.238-1.7932 0.611-0.1576 1.028-0.1403 1.79-0.1195m-1.253 1.0157c0.211 0.2225 0.541 0.148 0.835 0.1195 0.193-0.5568-0.942-0.704-0.835-0.1195"/>
       <path id="Fill-62" fill="#1A1918" d="m5.0815 8.1278c-0.3863 0.4675 0.0294 1.0277-0.2385 1.4944 0.4182 0.5568 0.0648 1.4928 0.2981 2.3308-0.1823 0.436-0.3534 0.882-0.3578 1.494 0.0251 0.194 0.2481 0.19 0.2982 0.359-0.3353 0.5-0.0104 0.795 0.0596 1.314-0.2247 0.267-0.6127 0.032-0.8357-0.059-0.4934 0.195-1.3127 0.34-1.9677 0.179-0.3163-0.753 0.0777-1.675 0.7155-1.853-0.032-0.53 0.0821-0.914 0.2982-1.195 0.3093-0.177 0.7285 0.067 1.0137-0.06-0.0156-0.951-0.1677-1.983 0.299-2.5695-0.0294-0.7429-0.6145-1.5282-0.1789-2.0322 0.3336 0.0641 0.4044 0.3914 0.5963 0.5975m-1.7898 6.1562c0.2463 0.132 0.4892-0.002 0.7156-0.06-0.0398-0.601 0.1625-1.053-0.1789-1.315-0.0173 0.597-0.6654 0.824-0.5367 1.375"/>
       <path id="Fill-64" fill="#1A1918" d="m5.9761 7.5902c0.1953 0.3489-0.0735 0.8598 0.1789 1.0754 0.2955-0.0563 0.0276-0.323 0.1789-0.478 0.49-0.4139 1.8537-0.4676 2.4457-0.239 0.0821 0.4191 0.1045 1.1386 0 1.5542-0.401 0.4546-1.6679 0.0416-1.61 0.9562-0.3431 0.015-0.7605-0.045-1.0146 0.059-0.2757 0.714 0.1288 1.601-0.0596 2.391 0.5237-0.107 1.4993-0.44 1.6696 0.418 1.12-0.226 1.3507 0.874 1.0146 1.734-1.0786 0.402-2.1916 0.038-3.2209 0.119-0.1556-2.551-0.2005-5.2512 0-7.5898 0.2376-0.0329 0.1797-0.0329 0.4174 0m0.6559 1.2546c-0.006 0.245-0.0121 0.4901 0.0605 0.658 0.6171-0.0995 0.6758-0.7567 1.3119-0.8372-0.2342-0.717-0.9213 0.1766-1.3724 0.1792m0.1789 5.2002c0.1461 0.133 0.4261 0.131 0.7164 0.119-0.1339-0.284-0.2756-0.56-0.6568-0.598-0.0916 0.088-0.0518 0.307-0.0596 0.479"/>
       <path id="Fill-66" fill="#1A1918" d="m3.8883 7.7095c0.019 0.1385-0.0095 0.2294-0.0596 0.2987-0.2126 0.0138-0.312-0.0857-0.2982-0.2987 0.0761-0.0814 0.2817-0.0814 0.3578 0"/>
       <path id="Fill-68" fill="#1A1918" d="m3.3514 8.7854c0.1166 0.6026 0.1279 1.2156-0.1193 1.6736-0.3949 0.134-0.8201 0.002-1.2522 0-0.0018-0.261-0.0199-0.5376 0.0596-0.7177 0.2031-0.0753 0.4528-0.1039 0.6559-0.1792 0.064-0.2234-0.1486-0.1706-0.1192-0.3585 0.184-0.2095 0.3828-0.6026 0.7752-0.4182"/>
       <path id="Fill-70" fill="#1A1918" d="m29.479 10.459c-0.202-0.038-0.306-0.172-0.597-0.12 0.053-0.631-0.562-0.5314-0.477-1.0751 0.155-0.9958 1.128 0.5818 1.074 1.1951"/>
       <path id="Fill-72" fill="#1A1918" d="m17.668 9.0843c0.253 1.2627 0.172 2.5267 0.179 4.2437-0.208 0.557-1.122 0.634-1.252-0.06-0.058-0.302 0.214-0.689 0.237-1.016 0.024-0.329-0.184-0.522-0.237-0.837-0.128-0.742 0.114-1.5263-0.121-1.9723 0.247-0.2554 0.77-0.6519 1.194-0.3584"/>
       <path id="Fill-74" fill="#1A1918" d="m22.738 9.7415c0.414 0.233 0.191 0.7555 0.359 1.2555-0.497 0.515-1.636 0.709-2.387 0.358-0.128-0.469-0.07-0.834-0.12-1.4342 0.496-0.3542 1.411-0.0104 2.148-0.1793m-1.372 0.9555c0.169 0.096 0.667 0.096 0.835 0 0.035-0.506-0.986-0.682-0.835 0"/>
       <path id="Fill-76" fill="#1A1918" d="m20.173 9.8014c0.364 0.0052 0.3 0.3666 0.179 0.5976-0.301-0.024-0.361-0.4115-0.179-0.5976"/>
       <path id="Fill-78" fill="#1A1918" d="m14.566 10.758c0.182-0.044 0.175 0.103 0.358 0.059 0.062 0.168 0.114 0.56 0 0.717-0.169 0.05-0.155-0.084-0.298-0.059 0.082-0.329-0.126-0.594-0.06-0.717"/>
       <path id="Fill-80" fill="#1A1918" d="m1.9795 13.029c-0.4848 0.087-0.5505-0.245-0.7752-0.419-0.0034-0.342 0.3224-0.355 0.4771-0.537-0.102-1.049 0.6127-0.824 0.7155-0.239 0.0744 0.418-0.2791 0.895-0.4174 1.195"/>
       <path id="Fill-82" fill="#1A1918" d="m11.106 11.893c0.288 0.478-0.007 1.105 0 1.674 0.004 0.311 0.184 0.479 0.12 0.776-0.074 0.342-0.388 0.563-0.537 0.837-0.351 0.042-0.7355 0.25-1.0743 0.12-0.3906-0.808-0.095-2.358-0.1192-3.407 0.445-0.281 1.0365-0.086 1.6105 0m-0.954 1.315c-0.2806 0.287-0.015 0.647 0 0.956 0.396 0.038 0.398-0.318 0.656-0.418-0.27-0.459-0.473-1.075-0.358-1.614-0.6313 0.037-0.7221 0.744-0.298 1.076"/>
       <path id="Fill-84" fill="#1A1918" d="m22.977 14.941c-0.785 0.19-1.787 0.163-2.744 0.179-0.317-0.16-0.36-0.596-0.538-0.896-0.332 0.008-0.106 0.34-0.058 0.478-0.178 0.222-0.316 0.482-0.657 0.538-0.059-0.081-0.159-0.12-0.239-0.179 0.042-0.397 0.221-0.656 0.477-0.837-0.144-0.283-0.049-0.488-0.119-0.777 0.258-0.226 0.768-0.076 1.073 0 0.035 0.444 0.011 0.946 0.359 1.076 0.716-0.091 0.204-1.14 1.015-1.196-0.235-0.598 0.562-1.239 1.252-0.896 0.466 0.57 0.266 1.874 0.179 2.51m-1.253-0.597c0.554 0.017 0.662-0.413 0.716-0.897-0.076-0.003-0.083-0.077-0.18-0.06-0.135 0.362-0.518 0.476-0.536 0.957"/>
       <path id="Fill-86" fill="#1A1918" d="m29.479 13.208c0.16 0.562-0.094 1.254-0.537 1.674-0.55-0.098-0.855 0.43-1.253 0.119 0.048-0.37 0.239-0.596 0.418-0.837 0.283 0.025 0.488-0.029 0.655-0.12 0.126-0.232 0.011-0.454-0.119-0.597-0.453-0.053-1.224 0.085-1.312 0.597-0.067 0.396-0.064 1.819 0 2.092 0.138 0.588 1.037 1.142 1.312 0.418-0.218-0.362-0.738-0.211-0.894-0.716 0.242-0.071 0.254-0.103 0.119-0.299 0.446-0.048 0.439 0.357 0.716 0.478 0.221 0.042 0.256-0.102 0.477-0.06 0.712 0.533 0.106 1.422-0.299 1.853-0.528 0.078-0.977-0.035-1.61 0-0.33-0.243-0.23-0.472-0.179-0.896 0.134-1.085-0.41-2.961 0.179-3.766 0.687-0.131 1.666-0.148 2.327 0.06"/>
       <path id="Fill-88" fill="#1A1918" d="m15.222 13.208c0.105 0.231 0.056 0.594 0 0.836-0.813 0.416-0.772-1.469 0-0.836"/>
       <path id="Fill-90" fill="#1A1918" d="m24.528 14.045c0.3-0.003 0.389 0.207 0.596 0.298-0.156 0.601 0.303 1.64-0.119 2.152-0.232-0.027-0.472-0.046-0.656-0.119 0.028-0.475 0.331-0.588 0.358-1.016 0.026-0.435-0.357-0.862-0.179-1.315"/>
       <path id="Fill-92" fill="#1A1918" d="m14.685 14.582c1.645-0.196 0.168 1.463 0 0"/>
       <path id="Fill-94" fill="#1A1918" d="m2.6355 18.467c-0.0198-0.193 0.1055-0.444-0.0596-0.717 0.9126-1.011 1.1909 1.027 0.0596 0.717"/>
       <path id="Fill-96" fill="#1A1918" d="m9.913 17.571h0.656c-0.041 0.24 0.057 0.341 0.06 0.537-0.214 0.078-0.7065 0.125-0.8352-0.059-0.0389-0.238 0.1581-0.24 0.1192-0.478"/>
       <path id="Fill-98" fill="#1A1918" d="m1.8006 18.288c0.1504 0.128 0.4183 0.139 0.5367 0.299 0.0294 0.268-0.0302 0.447-0.0596 0.657-0.1893 0.069-0.4857 0.032-0.4771 0.299 0.14 0.72 1.5858 0.373 1.6705 1.136 0.0571 0.522-0.6144 1.071-1.4319 0.836 0.0276-0.31 0.3932-0.283 0.2981-0.717-0.0562-0.283-0.3344-0.073-0.477-0.179-0.2074-0.311 0.0285-1.065-0.4174-1.136 0.2056-0.573-0.1253-1.102-0.4174-1.374 0.0363-0.44 0.9255-0.396 0.7751 0.179"/>
       <path id="Fill-100" fill="#1A1918" d="m18.324 18.647c0.716 0.116 1.438-0.014 2.147 0.179 0.317 1.376-0.984 1.542-2.207 1.315-0.098-0.567-0.053-1.127 0.06-1.494"/>
       <path id="Fill-102" fill="#1A1918" d="m2.6953 19.782c0.1633-0.355-0.2705-0.469 0-0.777 0.7527-0.324 1.0033 0.985 0 0.777"/>
       <path id="Fill-104" fill="#1A1918" d="m12.061 19.184c-0.006 0.085-0.011 0.169 0.059 0.18-0.058 0.351-0.491 0.651-0.835 0.358-0.034-0.105 0.072-0.351-0.06-0.358 0.086-0.284 0.588-0.404 0.836-0.18"/>
       <path id="Fill-106" fill="#1A1918" d="m12.001 20.26c0.301 0.404 0.192 1.109-0.477 1.016-0.34-0.456 0.103-0.905 0.477-1.016"/>
       <path id="Fill-108" fill="#1A1918" d="m10.689 20.977c-0.125 0.235-0.367 0.351-0.7762 0.3 0.0155-0.215-0.1789-0.219-0.1789-0.419 0.1391-0.451 0.9131-0.342 0.9551 0.119"/>
       <path id="Fill-110" fill="#1A1918" d="m20.054 23.249c-0.031 0.227-0.439 0.077-0.596 0.179-0.032-0.048-0.063-0.097-0.061-0.179 0.107-0.077 0.558-0.116 0.657 0"/>
       <path id="Fill-112" fill="#1A1918" d="m27.451 25.281c-0.247 0.118-0.419 0.139-0.777 0.239-0.038 0.06 0.039 0.435-0.118 0.537-0.255-0.004-0.417-0.099-0.716-0.059 0.039-0.259-0.103-0.335-0.179-0.478-0.48 0.093-1.138-0.02-1.432-0.299-0.036-0.392 0.31-0.734 0.18-1.196 0.306-0.07 0.703-0.051 0.715-0.418 1.081-0.236 1.741 0.068 1.909 1.136 0.067 0.252 0.513 0.122 0.418 0.538m-2.267-0.718c0.04 0.533 0.961 0.624 1.193 0.18 0.13-0.292-1.067-0.518-1.193-0.18"/>
       <path id="Fill-114" fill="#1A1918" d="m21.605 24.265c-0.025 0.114-0.022 0.257-0.179 0.239 0.09 0.228 0.247 0.389 0.417 0.537 0.192 0.013 0.253-0.105 0.477-0.059 0.027 0.053 0.053 0.107 0.12 0.119-0.104 0.378 0.115 0.536 0.179 1.017-0.162 0.143-0.331-0.066-0.597 0-0.013-0.194 0.106-0.254 0.06-0.479-0.154-0.236-0.811-0.36-0.895 0-0.054 0.313 0.293 0.225 0.239 0.538h-1.074v-0.358c-0.279-0.094-0.666-0.181-0.895 0-0.394-0.379-0.238-1.272-0.238-1.793 0.276-0.062 0.509-0.167 0.596-0.419 0.896-0.195 1.258 0.329 1.79 0.658m-1.551 0.597c0.28 0.178 0.963 0.158 0.955-0.299-0.131-0.262-1.222-0.38-0.955 0.299"/>
       <path id="Fill-116" fill="#1A1918" d="m17.071 23.607c0.247 0.072 0.246 0.391 0.477 0.478 0.307 0.009 0.266-0.332 0.477-0.418 0.694 0.02 0.761 1.36 0.418 1.853-0.394 0.136-0.8-0.127-1.073-0.299-0.19 0.364-0.109 0.716-0.418 1.016-0.526 0.018-1.232 0.15-1.73 0-0.038-0.942-0.097-3.598 0.955-2.092 0.339-0.138 0.449-0.505 0.894-0.538m-1.372 2.45c0.691-0.024 0.286-1.148 0.478-1.672-0.083 0.001-0.131-0.029-0.18-0.06-0.473 0.508-0.108 1.123-0.298 1.732m1.193-1.195c0.215 0.393 0.837 0.186 0.955-0.179-0.202-0.453-0.88-0.289-0.955 0.179"/>
       <path id="Fill-118" fill="#1A1918" d="m23.036 25.998c0.061-0.307-0.146-0.882-0.417-1.195 0.158-0.483-0.205-0.835 0.119-1.196 0.229 0.096 0.685 0.284 0.776 0.658 0 0.003-0.001 0.831 0 0.956 0.003 0.44-0.083 0.824-0.478 0.777"/>
       <path id="Fill-120" fill="#1A1918" d="m14.506 26.057c-0.395 0.038-0.217-0.499-0.656-0.418-0.29 0.075 0.1 0.306-0.06 0.418-0.104 0.156-0.415 0.141-0.596 0.06-0.082-0.216-0.024-0.573-0.239-0.657-0.333 0.064-0.192 0.604-0.298 0.896-0.343-0.046-0.569 0.142-0.835 0 0.204-0.345 0.372-0.746 0.179-1.195 0.058-0.589 1.725-0.617 1.849-0.06 0.092-0.127 0.216-0.222 0.299-0.358-0.106-0.154-0.237-0.281-0.359-0.418 0.031-0.169 0.145-0.255 0.18-0.418 1.27-0.039 0.853 1.414 0.536 2.15"/>
       <path id="Fill-122" fill="#1A1918" d="m9.5553 24.802c0.1054 0.395 0.1486 0.96-0.0597 1.315 0.0026 0.173 0.3371 0.142 0.1789 0.299-1.6687 0.092-3.3825 0.226-4.951-0.059 0.1106-0.169 0.1979-0.361 0.4174-0.419 0.3431 0.194 0.7346 0.34 1.3128 0.299 0.3525-0.49 0.2246-1.092 0.6559-1.494 0.8996 0.005 1.6169 0.125 2.4457 0.059m-1.9687 0.419c-0.1253 0.251 0.1504 0.387 0.2385 0.597 0.471-0.044 0.8132 0.027 1.2531-0.119 0.013-0.046 0.0018-0.118 0.0597-0.12-0.0363-0.761-0.9135-0.302-1.5513-0.358"/>
       <path id="Fill-124" fill="#1A1918" d="m3.4708 25.161h0.2385c-0.013 0.192 0.1054 0.253 0.0596 0.478-0.1771-0.022-0.2938-0.103-0.3577-0.239-0.0078-0.107 0.0734-0.127 0.0596-0.239"/>
       <path id="Fill-126" fill="#1A1918" d="m17.906 15.898c0.32 0.336 0.99 0.115 1.014-0.36h1.372c0.136 0.124 0.102 0.417 0.298 0.479 0.401-0.006 0.625-0.296 1.015-0.239 0.125 0.018 0.274 0.238 0.358 0.239 0.099 0.001 0.237-0.214 0.358-0.239 0.433-0.093 0.738 0.16 1.133 0.299-0.173 0.618 0.251 1.299-0.179 1.673 0.152 0.201 0.002 0.348 0.179 0.478 0.453-0.256-0.077-1.047 0.238-1.315 0.04-0.218-0.129-0.229-0.118-0.418 0.179-0.059 0.236-0.242 0.417-0.299 0.215-0.016 0.137 0.262 0.238 0.359-0.378 1.182-0.075 2.77-0.06 3.765-0.139 0.288-0.185 0.626 0.06 0.837 0.267-0.561 0.364-1.292 1.134-1.196 0.315 0.04 0.508 0.258 0.834 0.419-0.166 0.368 0.372 0.792-0.059 1.075-0.455-0.041-0.428-0.566-0.835-0.657-0.189 0.154-0.164 0.689-0.119 0.896 0.459 0.305 1.541 0.258 2.028 0.06-0.008-0.251-0.232-0.286-0.239-0.538 0.324-0.324 0.733 0.033 0.835 0.299-0.234 0.224-0.31 0.605-0.477 0.897 0.163 0.215 0.922 0.121 0.895-0.24 0.007-0.285-0.244-0.312-0.299-0.537 0.243-0.215 0.287-0.631 0.478-0.897 0.254-0.076 0.388 0.014 0.597 0.12-0.233 0.809 0.375 1.423-0.12 2.032-0.464-0.027-0.585 0.29-0.895 0.418-0.239-0.039-0.707-0.326-0.715-0.059-0.256-0.067-0.721-0.346-0.776 0.059-0.21 0.011-0.196-0.201-0.358-0.239-1.029-0.041-1.998 0.725-2.446-0.179-0.044-1.284 0.108-2.679-0.179-3.825-0.313 1.156 0.1 2.62-0.179 4.184-0.194-0.184-0.726-0.03-0.656-0.478-0.479 0.194-1.101 0.979-1.61 0.418 0.098-0.576-0.121-1.359 0.537-1.734-0.155-0.686 0.399-1.035 1.014-1.135-0.063-0.421-0.082-0.895 0.179-1.136-0.121-0.137-0.215-0.303-0.358-0.418-0.221-0.042-0.256 0.102-0.477 0.06-0.268-0.429-0.557-0.837-1.015-1.076-0.22 0.018-0.214 0.263-0.536 0.18-0.096-0.622 0.025-1.462-0.418-1.734-0.571 0.263-0.904-0.084-1.611-0.06 0.03 0.489 0.497 0.538 0.597 0.956-0.188 0.35-0.153 0.923-0.537 1.077-0.474 0.051-0.979-0.212-1.253 0-0.048 0.207 0.09 0.229 0.06 0.418-0.297 0.17-0.263 0.551-0.656 0.657-0.172 0.047-0.419-0.078-0.597 0-0.603 0.266-0.329 0.901-0.358 1.554 0.311-0.167 0.736-0.22 0.955-0.478 0.517 0.159 0.687 0.666 1.074 0.956 0.409 0.011 0.798 0.003 1.133-0.06 0.393 0.749-0.201 1.538-0.358 2.272-0.364-0.071-0.547-0.151-0.954-0.06-0.167-0.174 0.054-0.296 0.119-0.418-0.438-0.288-1.01 0.185-1.313 0.418-0.318-0.298-0.706-0.527-1.073-0.777-0.195-0.826 0.253-1.017 0.417-1.614-0.018-0.221-0.253-0.224-0.357-0.358 0.009-1.322-0.324-2.807 0.059-3.945 0.175-0.015 0.206 0.112 0.298 0.179 0.163-0.206 0.636-0.357 0.896-0.119-0.116 0.443-0.234 1.239 0.059 1.494 0.431-0.102 0.006-0.738 0.418-0.896 0.511 0.119 0.842-0.079 1.312 0 0.167-0.083 0.192-0.309 0.119-0.479-0.473 0.12-0.933 0.127-1.431 0-0.194-0.285-0.263-0.693-0.597-0.836-0.363 0.114-0.776 0.18-1.014 0.418-0.249-0.174-0.233-0.41-0.179-0.777 0.35-0.215 0.831-0.096 1.073 0.12 0.255-0.262 0.109-0.663 0.12-1.076 0.527-0.416 1.864-0.712 1.909 0.119 0.021 0.393-0.622 0.517-0.418 1.017zm3.102 0.955c-0.036 0.554 0.7 0.307 0.955 0.419 0.126 0.172 0.157 0.44 0.417 0.478 0.668-0.714-0.58-1.357-1.372-0.897zm-4.533 5.021c0.16 0.194 0.795 0.167 0.895-0.06-0.346-0.132-0.383-0.572-0.835-0.598-0.157 0.194 0.096 0.444-0.06 0.658zm6.144 0.358c-0.077-0.438 0.184-0.57 0.059-0.896-0.484-0.556-0.809 1.094-0.059 0.896zm1.55 0.239c0.305 0.015 0.397 0.241 0.717 0.24-0.035-0.194 0.04-0.279 0.059-0.418-0.417-0.16-0.461-0.694-0.835-0.897-0.01 0.299-0.099 0.801 0.059 1.075zm-6.322-0.597h0.417v-0.12h-0.417v0.12z"/>
       <path id="Fill-128" fill="#1A1918" d="m1.2637 14.881h0.5367c0.0008 0.239 0.1754 0.303 0.2385 0.478 0.0181 0.158-0.0821 0.197-0.2385 0.179 0.4658 0.331 1.6126-0.021 2.0283 0.36 0.3595 0.04 0.3569-0.28 0.6559-0.3 1.0941 0.237 2.4526-0.197 3.2805 0.24 0.3724 0.109 0.5219-0.226 0.8357-0.24 0.3214-0.013 0.4839 0.256 0.7751 0.3 0.42 0.061 0.7001-0.166 1.0741-0.3 0.597 0.48 1.071-0.021 1.849 0 0.136 0.123 0.102 0.417 0.299 0.478 0.298-0.08 0.476-0.28 0.656-0.478 0.4-0.021 0.75 0.006 1.013 0.12 0.308 1.586 0.033 3.182 0.12 4.722-0.038 0.261-0.294 0.303-0.418 0.478 0.239 0.154 0.628 0.358 0.418 0.777 0.286 0.465 0.289 1.212 0.12 1.792-0.273 0.16-0.677 0.13-0.955 0-0.326 0.122-0.566 0.185-0.895 0.18-0.237 0.019-0.161-0.276-0.358-0.299-0.492 0.128-1.142 0.177-1.789 0.06-0.132-0.132 0.104-0.199 0.119-0.359-0.001-0.218-0.279-0.159-0.179-0.478-0.8641 0.028-0.324 0.647-0.119 1.016-0.165 0.207-0.714 0.132-0.8954 0-0.6836 0.204-1.8261 0.484-2.266-0.06-0.2661 0.014-0.267 0.292-0.4182 0.419-0.3163-0.042-0.2636-0.453-0.5963-0.479-0.5281 0.069-0.5134 0.682-1.0734 0.718-0.1305-0.125 0.0294-0.171 0-0.359-0.1875 0.431-1.018 0.941-1.4319 0.419-0.2679 0.13-0.4287 0.367-0.8945 0.298-0.3854-0.641 1.0613-1.505-0.2385-1.912-0.0294-0.308 0.0562-0.501 0.178-0.658h0.5972c0.1953 0.083 0.1141 0.444 0.2981 0.538 0.1279-1.108 1.0042-0.857 1.6109-0.299 0.0432 0.303-0.1486 0.37-0.2394 0.538 0.0683 0.171 0.2558 0.223 0.4779 0.239 0.1409-0.495 0.1634-1.11 0.8945-1.016 0.2627 0.223 0.0389 0.624 0.2385 0.838 0.3975-0.141 0.6006-0.475 0.6559-0.957-0.4468-0.263-1.0802 0.094-1.6696-0.06-0.2956-0.487-0.8867-0.335-1.432-0.597-0.089-0.19-0.0302-0.528-0.1193-0.718 0.2878 0.011 0.5704 0.278 0.8349 0.119-0.2291-0.268-0.3466-0.647-0.5367-0.956-0.1409 0.138-0.2766 0.282-0.3578 0.478-0.5928-0.158-0.1192-0.877-0.0596-1.254 0.1867-0.012 0.4381 0.041 0.5367-0.06 0.0302-0.429-0.1141-0.682-0.4175-0.777 0.1297-0.249 0.3077-0.449 0.6568-0.478 0.1971 0.061 0.1781 0.339 0.2377 0.537 0.5868-0.207 1.1822-0.931 1.8494-0.358 0.2584-0.313 0.1115-0.961 0.0596-1.434-0.5021-0.21-0.6257 0.384-0.9541 0.538-0.5064-0.117-0.6619 0.079-0.9549 0.298-0.5012-0.277-1.1252-0.147-1.61-0.358-0.3275 0.01-0.4001 0.276-0.5972 0.418-0.6213-0.168-1.1519 0.381-1.4907-0.179 0.0034-0.295 0.248-0.35 0.3578-0.539 0.184-0.009 0.337 0.142 0.477 0-0.1253-0.371-0.9843-0.008-1.133-0.357 0.2074-0.151 0.2913-0.426 0.5963-0.479-0.0561-0.183-0.305-0.172-0.3577-0.359 0.0501-0.129 0.1546-0.203 0.1192-0.418m11.094 1.435c0.63 0.126 1.001 0.512 1.432 0.836 0.113-0.145 0.018-0.499 0.12-0.658-0.514 0.007-1.148-0.652-1.552-0.178m-3.1013 0.06c0.1313 0.098 0.4883 0.184 0.6559 0.059 0.0095-0.314-0.5842-0.297-0.6559-0.059m2.1473-0.06c0.006 0.253 0.161 0.357 0.358 0.418 0.155-0.085 0.284-0.193 0.239-0.478-0.221-0.121-0.421-0.025-0.597 0.06m-1.371 0.836c-0.9509 0.096-1.3415-0.368-1.9093-0.658-0.4546 0.044-0.2013 0.796-0.5367 0.957 0.3423 0.653 0.8962 0.119 1.4908 0.06 0.2264 0.291 0.0199 0.575 0.0596 1.075 0.668 0.068 2.1556 0.979 0.8357 1.256 0.0052 0.467-0.3396 0.466-0.6568 0.478-0.0311 0.291 0.2541 0.264 0.2385 0.538-0.2394 0.676-1.3395 0.491-1.6696 1.076 0.1893 0.348 0.019 1.056 0.6559 0.956-0.0363-0.495 0.0303-0.886 0.4771-0.897 0.2454 0.073 0.1365 0.502 0.3577 0.598 0.3008-0.332 0.8301-0.702 1.3721-0.598 0.025 0.21 0.119 0.613 0.537 0.598 0.083-0.295 0.064-0.693 0.418-0.717 0.223 0.125 0.445 0.256 0.418 0.478 0.315-0.078 0.304 0.173 0.595 0.119-0.114-0.32-0.091-0.282 0.061-0.537-0.273-0.067-0.298-0.38-0.478-0.538 0.108-0.669 0.955-0.598 1.014-1.315-0.203-0.155-0.456-0.26-0.715-0.359 0.175-0.134 0.11-0.33 0-0.478 0.526-0.181 1.326-0.551 1.013-1.195-0.362-0.064-0.229 0.368-0.477 0.418-0.226-0.012-0.424-0.052-0.596-0.119 0.134-0.231-0.071-0.276-0.06-0.538 0.113-0.207 0.372-0.265 0.418-0.538-0.091-0.209-0.346-0.252-0.657-0.239-0.21 0.405-0.086 1.821-1.014 1.255 0.144-0.558-0.362-0.783-0.417-1.434-0.426-0.069-0.626 0.091-0.775 0.298m-2.5661 1.734c-0.598-0.271-1.0206 0.209-1.5503 0.478 0.0501 0.999 0.5228 1.494 1.6108 1.314 0.1979-0.199 0.3206-0.474 0.7752-0.418-0.0674-0.571-0.4165-1.185-0.8357-1.374m5.7271 2.689c0.402 0.205 0.506-0.356 0.716-0.538-0.381-0.155-0.631 0.213-0.716 0.538m0.238 0.956c0 0.301 0.087 0.512 0.418 0.478 0.111-0.127 0.041-0.437 0.06-0.657-0.256-0.037-0.385 0.054-0.478 0.179m-9.9015 0.418h0.1789c0.0164-0.136-0.0147-0.224-0.1193-0.239-0.019 0.082-0.0847 0.115-0.0596 0.239m5.5473 0.18c0.2895 0.029 0.3232-0.234 0.2385-0.419-0.2325-0.017-0.3975 0.229-0.2385 0.419m-5.5473 1.076c0.3595-0.097 0.4503-0.466 0.8348-0.538-0.0112-0.231-0.0017-0.441 0.0597-0.598-0.3855 0.266-0.9403 0.631-0.8945 1.136"/>
       <mask id="mask-4" fill="white">
        <use xlink:href="#path-3"/>
       </mask>
       <text id="NEPAL" font-size="3.977" font-family="Arial-BoldMT, Arial" mask="url(#mask-4)" font-weight="bold" fill="#273777">
        <tspan y="29.5369209" x="9.71885185">NE</tspan>
        <tspan y="29.5369209" x="15.2435418" letter-spacing="-.29729">P</tspan>
        <tspan y="29.5369209" x="17.3037142">A</tspan>
        <tspan y="34.6670279" x="9.71885185">L</tspan>
       </text>
      </g>
      <path id="Stroke-132" stroke="#D9222A" stroke-width=".843" d="m35.314 50.195c8.466 0 15.331-6.877 15.331-15.361 0-8.482-6.865-15.359-15.331-15.359-8.467 0-15.331 6.877-15.331 15.359 0 8.484 6.864 15.361 15.331 15.361z"/>
      <g id="Group-275" transform="translate(20.741 19.083)">
       <g id="Group-136" fill="#1A1918" transform="translate(10.37)">
        <path id="Fill-134" d="m16.693 7.5902c-1.128 0.1021-2.441 0.0381-3.877 0.1194 0.098 0.4503-0.289 1.2183 0 1.9127 0.435 0.045 0.225-0.7031 0-0.7178 0.133-0.0658 0.292-0.1047 0.298-0.2987 0.462-0.0814 1.095 0.0242 1.61 0.0598 0.543 0.038 1.016-0.3724 1.253 0.1792-0.019 0.7905-0.005 1.2612-0.358 1.7332-0.895 0.055-1.366-0.002-2.148 0-0.07-0.308-0.199-0.557-0.536-0.5972-0.191-0.0528-0.124 0.1552-0.239 0.1792 0.173 0.621-0.027 1.3 0 1.972 0.032 0.807 0.342 1.717-0.119 2.391-0.388-0.458-0.12-1.077-0.119-1.614 0.002-1.897-0.108-3.6105-0.12-5.6176 0.759-0.4208 1.915 0.1646 2.625-0.2389 0.188-0.0286 0.158 0.1601 0.298 0.1792 0.436-0.3403 0.789 0.0589 1.134-0.0597 0.055-0.3741-0.379-0.2581-0.537-0.4183-0.052-0.1922 0.154-0.1246 0.179-0.2398-0.136-0.3836-0.451-0.8745-0.955-0.5377-0.028 0.2251-0.016 0.2537-0.119 0.478 0.284 0.1333 0.86-0.0243 0.776 0.4788-0.57-0.0667-1.452 0.1498-1.909-0.3585h-0.477c-0.252-0.1472-0.278-0.5186-0.597-0.5983-0.216 0.3593 0.289 0.4511 0.418 0.6572-0.075 0.3585-0.412 0.394-0.716 0.239-0.374-0.5594 0.131-3.4262-0.179-3.8245-0.16-0.2052-0.45-0.2476-0.597 0 0.068 1.3083 0.26 2.2677 0 3.4063 0.006 0.3143 0.403 0.2337 0.418 0.5385-0.148 0.3663-0.602 0.3204-0.835 0.0598 0.094-0.7204 0.156-0.8849-0.119-1.4945-0.294 0.0242-0.337 0.3005-0.538 0.4182h-1.1923c-0.4866-1.0001 0.6323-1.0685 0.5367-2.0322 0.3146-0.3004 0.9976-0.2796 1.1336 0.1195-0.415 0.1949-0.123 0.7585-0.478 0.9568 0.109 0.1697 0.349 0.2087 0.478 0.3585 0.415-0.6823-0.007-1.1733 0.119-2.1517-0.013-0.2658-0.344-0.213-0.477-0.3584 0.014-0.2927-0.105-0.4529-0.06-0.7767-0.598-0.1221-0.5 0.4554-0.7156 0.7169-0.4486-0.0312-0.8288 0.0061-1.0734 0.1792-0.0786 1.3023-0.534 2.2391-0.0596 3.4661-0.3604 1.1403-0.0484 2.7975-0.5963 3.9448-0.573-0.167-0.2973-0.9395-0.2981-1.4347-0.0044-0.9542-0.1565-1.9595 0.0587-2.8686-0.286-0.8581 0.0458-1.6114-0.1192-2.5101-0.974-0.2407-2.2634 0.0641-3.5191-0.1195-0.3828 0.7507-0.1598 1.5871-0.1788 2.2711-0.0044 0.1308-0.096 0.1697-0.1193 0.2988-0.0294 0.1549 0.1236 0.426 0.1193 0.6571-0.0018 0.0615-0.1219 0.1949-0.1193 0.2399 0.0458 0.8754 0.3172 1.8546-0.1789 2.8088-0.4822-0.9048-0.1314-2.4452-0.1789-3.7058-0.0345-0.9031-0.1089-2.0764-0.0605-3.0479 0.5367-0.0484 1.0224 0.2113 1.4916-0.1194 0.9973 0.1117 2.5961 0.2666 3.5795 0 0.0493-0.1749-0.356-0.194-0.1797-0.2988 0.1547-0.4112 0.7164-0.0684 1.0742-0.2987v-0.3593c-0.121-0.1368-0.4952-0.0217-0.7156-0.0589-0.0527-0.2069-0.1261-0.3931-0.2981-0.4788-0.3474 0.0312-0.668 0.0883-1.0742 0.0597-0.7061-0.78789-1.788 0.1853-1.61 1.0166-0.0484 0.051-0.1642 0.0355-0.1798 0.1194-0.4969 0.0399-0.5012-0.4138-0.7155-0.658-0.2826 0.045-0.4097-0.0667-0.656-0.0589-0.2782 0.1585-0.1944 0.6814-0.7164 0.5975-0.1547-0.6538 0.1504-1.4313-0.3578-1.6737-0.3759 0.04152-0.4208 0.4147-0.7751 0.4779-0.7165-0.41647-1.3274 0.2953-2.0274 0.0598 1.0793-1.4893 4.06-0.88755 5.905-0.71697 1.7889 0.16537 3.6843 0.85547 5.1893 1.4945 1.682 0.7135 2.897 2.2815 4.295 3.3465 0.197 0.7975 0.716 1.2754 0.835 2.1517m-3.937-3.7059c-0.128 0.5585 0.012 1.0676 0 1.6737 0.446-0.3992 1.321-0.3784 1.014-1.375-0.296-0.155-0.61-0.4277-1.014-0.2987m1.313 2.0919c0.372-0.1645 0.772-0.3013 0.775-0.8364-0.444-0.1481-1.559 0.4632-0.775 0.8364m-0.538 3.5266c0.493 0.3169 1.823 0.4442 2.088-0.1792-0.413-0.529-1.811-0.568-2.088 0.1792"/>
       </g>
       <g id="Group-139" fill="#1A1918" transform="translate(7.7778 1.7317)">
        <path id="Fill-137" d="m1.0919 0.18053c-0.24455 0.213-0.56604 0.34894-0.77517 0.59744-0.09852-0.12815 0.07432-0.36799 0.11926-0.5377 0.20136-0.01904 0.50815-0.35846 0.65591-0.05974"/>
       </g>
       <g id="Group-142" fill="#1A1918" transform="translate(12.099 1.7317)">
        <path id="Fill-140" d="m1.0662 0.18053c0.0916 0.1091 0.0916 0.48921 0 0.59744-0.25757 0.03896-0.33448-0.10304-0.47708-0.17923 0.06136-0.23725 0.15037-0.44678 0.47708-0.41821"/>
       </g>
       <g id="Group-145" fill="#1A1918" transform="translate(16.42 1.7317)">
        <path id="Fill-143" d="m2.2331 0.41959c-0.0199 0.13941-0.0717 0.24677-0.1193 0.35847-0.7069-0.04156-1.1969 0.04242-1.7897-0.05975 0.04318-0.23724 0.04318-0.23984-0.00003-0.47795 0.56778 0.12815 1.2686-0.23205 1.909 0.17923"/>
       </g>
       <g id="Group-148" fill="#1A1918" transform="translate(12.099 2.5976)">
        <path id="Fill-146" d="m1.1856 0.45033c0.0346 0.23378-0.0519 0.34721-0.1193 0.47795-0.2791 0-0.48478-0.07186-0.477-0.35846-0.01642-0.24677 0.4615-0.2104 0.5963-0.11949"/>
       </g>
       <g id="Group-151" fill="#1A1918" transform="translate(10.37 3.4634)">
        <path id="Fill-149" d="m2.1382 3.1107c-0.3379 0.4052-0.8072 0.1879-1.3715 0.2987-0.70344-0.413-0.25492-1.5819 0.2377-1.9724v-0.4182c0.2636-0.23468 0.388-0.60787 0.8356-0.65722 0.2135 0.1446 0.2844 0.43206 0.4175 0.65722-0.2083 0.5281-0.0882 1.3862-0.1193 2.0919m-0.7156-0.9568c-0.0605 0.1801 0.1323 0.1065 0.2386 0.1204v-0.1793c-0.1037-0.0052-0.1858 0.013-0.2386 0.0589"/>
       </g>
       <g id="Group-154" fill="#1A1918" transform="translate(14.691 3.4634)">
        <path id="Fill-152" d="m2.0526 0.4809c0.3405 0.2407 0.1625 0.581 0.1193 1.0156-0.0907 0.9118 0.134 2.227 0.1193 3.3474-0.3146 0.6867-1.4398 0.4234-1.4916-0.2987 0.35-0.4303 0.12267-0.8884 0.05959-1.4347-0.02679-0.2355 0.08382-0.5195 0.05962-0.7767-0.01641-0.1757-0.17543-0.361-0.17888-0.4779-0.0026-0.1005 0.15469-0.0797 0.17888-0.1801 0.01815-0.0728-0.1374-0.1637-0.11925-0.2979 0.01901-0.1394 0.21774-0.245 0-0.4788 0.14432-0.55328 0.63084-0.58531 1.253-0.4182"/>
       </g>
       <g id="Group-157" fill="#1A1918" transform="translate(4.321 3.4634)">
        <path id="Fill-155" d="m3.2366 3.4093c-0.3016 0.0433-0.3535-0.1636-0.5963-0.1792-0.2826 0.0164-0.3362 0.2615-0.5375 0.3584-0.509-0.0069-0.8616-0.1723-1.0734-0.4779-0.29293 0.0649-0.17108 0.5455-0.53663 0.5377-0.4563-0.4736-0.02679-1.1499-0.29815-1.853 0.16333-0.1775 0.43296 0.1187 0.59629-0.0597 0.14173-0.1359 0.19358-0.3628 0.17889-0.6572 0.2316-0.24588 0.802-0.15237 0.9549-0.47793 0.4883 0.04502 0.4503 0.83733 0.9541 0.95593 0.1469 0.0355 0.3673-0.1161 0.5367-0.0598 0.802 0.2693 0.5617 1.6096-0.1789 1.9127m-1.7898-1.6737c0.007 0.7005 1.3577 1.2538 1.8494 0.5386-0.4303-0.1455-1.1468-0.0503-1.4311-0.4789-0.0423-0.2216 0.102-0.2562 0.0596-0.4779-0.4174-0.2217-0.4796 0.2563-0.4779 0.4182m-0.83478 0.9568c0.15815 0.0407 0.28346 0.1143 0.41738 0.1792-0.019-0.1403-0.09417-0.2243-0.0596-0.4182-0.14086 0.058-0.37852 0.019-0.35778 0.239"/>
       </g>
       <g id="Group-160" fill="#1A1918" transform="translate(12.099 4.3293)">
        <path id="Fill-158" d="m0.52923 2.1252c0.55737-0.407 0.30852-0.962 0.23852-1.7335 0.24805-0.27793 0.52195-0.00518 0.59625 0.35934 0.0692 0.33596 0.0605 1.3724 0.0597 1.3742-0.1409 0.542-0.71903 0.5602-0.89447 0"/>
       </g>
       <g id="Group-163" fill="#1A1918" transform="translate(2.5926 5.1951)">
        <path id="Fill-161" d="m1.6247 0.90057c-0.0268 0.33423-0.0683 0.46063 0 0.77663-0.2696 0.2018-0.4546 0.1213-0.83569 0.1801-0.06395-0.5662 0.01297-1.4598 0.83569-0.95673"/>
       </g>
       <g id="Group-166" fill="#1A1918" transform="translate(19.012 6.9268)">
        <path id="Fill-164" d="m1.2511 1.44c0.8219 0.3974 0.63-0.71779 1.0733-0.89616 0.2178 0.00087 0.2679 0.16971 0.4183 0.23898-0.1244 0.70138-0.0199 1.2624-0.4183 1.6728-0.5574-0.0103-1.4682 0.1715-2.087-0.0588 0.00518-0.4537-0.12791-0.9672-0.05963-1.4945 0.32234-0.21473 0.61098-0.46236 0.89443-0.71779 0.3509 0.23552 0.1478 0.68056 0.1789 1.2555"/>
       </g>
       <g id="Group-169" fill="#1A1918" transform="translate(8.642 6.9268)">
        <path id="Fill-167" d="m2.8525 0.6035c0.2049 0.15932 0.2282 0.5593 0.0597 0.7767 0.0216 0.5368 0.7423 0.3723 1.1338 0.5385 0.2402-0.4909-0.0735-0.8961 0.1193-1.3749 0.9419 0.09433 0.5721 1.2044 0.5366 1.8529-0.0518 0.9438 0.3543 2.007 0.1193 2.8088-0.0527 0.1663-0.2956 0.142-0.2982 0.3585-0.0881 0.3264 0.1521 0.3255 0.2386 0.4779-0.3284 0.342 0.1581 1.2728 0.0596 1.6737-0.1927 0.7862-1.2635 0.5975-2.1475 0.5975-0.4537-0.3602-0.1928-1.3594-0.1193-1.7932 0.3854-0.1888 0.573 0.29 0.5367 0.7178 0.2834 0.1472 0.5409-0.0425 0.8953 0 0.4684-0.4321 0.159-0.7594 0.1789-1.2555-0.1435-0.0762-0.1763-0.2615-0.4183-0.239-0.1625 0.1351 0.0397 0.6373-0.1184 0.7767-0.8945 0.1351-0.9282-1.6962 0.2973-1.4339 0.4061-0.3281 0.3768-1.3282 0.1201-1.7334-0.4831 0.1472-0.923 0.1593-1.7301 0.1792-0.4027-0.2823 0.0095-0.6121-0.1789-0.8961-0.2472-0.3724-0.3794 0.0207-0.8357-0.1195-0.72851-0.2252-0.38542-1.2053-0.2385-1.7932 0.611-0.1576 1.0284-0.14028 1.7897-0.1195m-1.2522 1.0156c0.2109 0.2226 0.5401 0.1481 0.8348 0.1195 0.1928-0.5567-0.9419-0.7039-0.8348-0.1195"/>
       </g>
       <g id="Group-172" fill="#1A1918" transform="translate(.86420 6.9268)">
        <path id="Fill-170" d="m3.3531 1.2009c-0.3863 0.4676 0.0294 1.0278-0.2385 1.4945 0.4182 0.5567 0.0648 1.4927 0.2981 2.3309-0.1823 0.4355-0.3534 0.8814-0.3578 1.4936 0.0251 0.1939 0.2481 0.1905 0.2982 0.3593-0.3353 0.4996-0.0104 0.7949 0.0596 1.3144-0.2247 0.2667-0.6127 0.032-0.8357-0.0598-0.4934 0.1957-1.3127 0.3403-1.9677 0.1793-0.31634-0.7525 0.07774-1.6746 0.7155-1.853-0.032-0.5299 0.0821-0.9134 0.2982-1.1948 0.3093-0.1767 0.7285 0.0666 1.0137-0.0598-0.0156-0.9516-0.1677-1.9837 0.299-2.5698-0.0294-0.7429-0.6145-1.5283-0.1789-2.0322 0.3336 0.06407 0.4044 0.39137 0.5963 0.5974m-1.7898 6.1563c0.2463 0.1316 0.4892-0.0018 0.7156-0.0598-0.0398-0.6009 0.1625-1.0529-0.1789-1.3152-0.0173 0.5966-0.6654 0.8243-0.5367 1.375"/>
       </g>
       <g id="Group-175" fill="#1A1918" transform="translate(4.321 6.9268)">
        <path id="Fill-173" d="m0.79091 0.66333c0.19531 0.34897-0.07345 0.85977 0.17889 1.0754 0.2956-0.0563 0.02766-0.3229 0.1789-0.4779 0.49-0.41391 1.8537-0.46759 2.4457-0.239 0.0821 0.4191 0.1045 1.1386 0 1.5542-0.401 0.4546-1.6679 0.0416-1.61 0.9559-0.3431 0.0156-0.7605-0.045-1.0146 0.0597-0.27568 0.7135 0.1288 1.601-0.05963 2.3907 0.52373-0.1074 1.4994-0.4399 1.6696 0.4182 1.12-0.226 1.3507 0.8736 1.0146 1.7334-1.0785 0.4018-2.1916 0.0381-3.2209 0.1195-0.15555-2.5508-0.20049-5.2514 0.00001-7.5901 0.23765-0.03287 0.17975-0.03287 0.4174 0.00003m0.65589 1.2547c-0.006 0.245-0.0121 0.49 0.0605 0.658 0.6171-0.0996 0.6758-0.7568 1.3119-0.8373-0.2342-0.7169-0.9212 0.1767-1.3724 0.1793m0.1789 5.2003c0.1461 0.1324 0.4261 0.1307 0.7164 0.1186-0.1339-0.284-0.2756-0.5602-0.6567-0.5974-0.0916 0.0874-0.0519 0.3065-0.0597 0.4788"/>
       </g>
       <g id="Group-178" fill="#1A1918" transform="translate(2.5926 6.9268)">
        <path id="Fill-176" d="m0.43149 0.78265c0.01902 0.13853-0.0095 0.22945-0.05963 0.29875-0.21259 0.0138-0.31197-0.08575-0.29814-0.29875 0.07605-0.0814 0.28172-0.0814 0.35777 0"/>
       </g>
       <g id="Group-181" fill="#1A1918" transform="translate(.86420 8.6585)">
        <path id="Fill-179" d="m1.623 0.12685c0.1166 0.60263 0.1279 1.2156-0.1193 1.6736-0.3949 0.1344-0.82012 0.0019-1.2522 0.0001-0.00175-0.2606-0.0199-0.5377 0.05961-0.7177 0.20309-0.0754 0.45284-0.10395 0.65593-0.17928 0.06396-0.22339-0.14864-0.17057-0.11926-0.35847 0.18412-0.20953 0.38282-0.60263 0.77522-0.4182"/>
       </g>
       <g id="Group-184" fill="#1A1918" transform="translate(26.79 8.6585)">
        <path id="Fill-182" d="m1.8244 1.8002c-0.2014-0.0381-0.3059-0.1714-0.5963-0.1195 0.0527-0.6312-0.56258-0.5316-0.47789-1.0754 0.15556-0.99571 1.1287 0.5819 1.0742 1.1949"/>
       </g>
       <g id="Group-187" fill="#1A1918" transform="translate(15.556 8.6585)">
        <path id="Fill-185" d="m1.2482 0.42574c0.2532 1.2625 0.1719 2.5266 0.1788 4.2436-0.2082 0.5567-1.1217 0.6338-1.2522-0.0598-0.05787-0.3021 0.21435-0.6892 0.23768-1.0165 0.0242-0.3281-0.18407-0.5212-0.23765-0.8364-0.1279-0.742 0.11407-1.5265-0.12013-1.9724 0.2463-0.25542 0.77-0.65198 1.1935-0.35846"/>
       </g>
       <g id="Group-190" fill="#1A1918" transform="translate(19.012 9.5244)">
        <path id="Fill-188" d="m2.8614 0.21716c0.4139 0.23291 0.1909 0.75502 0.3586 1.2554-0.4969 0.5152-1.6359 0.7092-2.3869 0.3585-0.12791-0.4693-0.06915-0.83468-0.11927-1.4347 0.49607-0.35415 1.4104-0.0104 2.1476-0.17924m-1.3715 0.95594c0.1685 0.0952 0.6663 0.0952 0.8348 0 0.0346-0.50657-0.9861-0.68233-0.8348 0"/>
       </g>
       <g id="Group-193" fill="#1A1918" transform="translate(19.012 9.5244)">
        <path id="Fill-191" d="m0.29625 0.27699c0.36382 0.00519 0.29987 0.36625 0.17889 0.59744-0.30074-0.02425-0.36037-0.41128-0.17889-0.59744"/>
       </g>
       <g id="Group-196" fill="#1A1918" transform="translate(12.963 10.39)">
        <path id="Fill-194" d="m0.7388 0.36738c0.18235-0.04329 0.17543 0.10304 0.3578 0.05975 0.0622 0.16797 0.1141 0.55934 0 0.71697-0.16854 0.0493-0.15471-0.084-0.29817-0.0598 0.0821-0.32902-0.12531-0.5931-0.05963-0.71692"/>
       </g>
       <g id="Group-199" fill="#1A1918" transform="translate(0 11.256)">
        <path id="Fill-197" d="m1.1153 1.7726c-0.48478 0.0874-0.55046-0.2451-0.77515-0.4182-0.00346-0.3429 0.32234-0.35503 0.47704-0.53773-0.10198-1.0486 0.61271-0.82342 0.71551-0.23897 0.0744 0.4182-0.2791 0.8953-0.4174 1.1949"/>
       </g>
       <g id="Group-202" fill="#1A1918" transform="translate(7.7778 11.256)">
        <path id="Fill-200" d="m2.4643 0.63692c0.2878 0.47798-0.0069 1.1049 0 1.6737 0.0035 0.3117 0.1833 0.4797 0.1193 0.7767-0.0735 0.342-0.3872 0.5628-0.5367 0.8364-0.3508 0.0424-0.7354 0.2502-1.0742 0.1204-0.39058-0.8079-0.09502-2.3578-0.11922-3.4072 0.44502-0.28138 1.0362-0.0857 1.6108 0.00002m-0.954 1.3153c-0.2809 0.2866-0.0156 0.6467 0 0.9559 0.3958 0.0381 0.3975-0.3187 0.6559-0.4183-0.2705-0.4589-0.4727-1.0753-0.3586-1.6139-0.6309 0.03723-0.7216 0.7438-0.2973 1.0763"/>
       </g>
       <g id="Group-205" fill="#1A1918" transform="translate(17.284 12.122)">
        <path id="Fill-203" d="m4.8285 2.8191c-0.7847 0.1897-1.7863 0.1628-2.7438 0.1793-0.3172-0.1602-0.3595-0.5966-0.5375-0.8962-0.3319 0.0078-0.1063 0.3394-0.0588 0.478-0.1772 0.2216-0.3154 0.4814-0.65678 0.5377-0.05877-0.0806-0.15902-0.1195-0.23852-0.1793 0.04148-0.3965 0.22123-0.6554 0.477-0.8364-0.14429-0.2831-0.0492-0.4883-0.11922-0.7775 0.25752-0.2252 0.76822-0.0754 1.0733 0 0.0346 0.4442 0.0104 0.9463 0.3587 1.0762 0.7155-0.0909 0.2039-1.1394 1.0145-1.1957-0.235-0.59832 0.5626-1.2391 1.2522-0.89618 0.4667 0.56973 0.2662 1.8737 0.1789 2.5101m-1.2531-0.5974c0.5549 0.0173 0.6629-0.4122 0.7165-0.897-0.0761-0.0026-0.083-0.0762-0.1798-0.0598-0.1357 0.362-0.5185 0.4762-0.5367 0.9568"/>
       </g>
       <g id="Group-208" fill="#1A1918" transform="translate(25.926 12.988)">
        <path id="Fill-206" d="m2.6886 0.2201c0.1599 0.56194-0.0933 1.2538-0.5367 1.6737-0.5505-0.0978-0.8547 0.4303-1.253 0.1195 0.04835-0.3706 0.2393-0.5966 0.4182-0.8373 0.2826 0.0251 0.4874-0.0286 0.6551-0.1195 0.1262-0.23203 0.0104-0.45456-0.1193-0.59742-0.4528-0.05282-1.2237 0.08485-1.3118 0.59742-0.06743 0.3957-0.06398 1.8183-0.00003 2.0919 0.13741 0.5879 1.037 1.1421 1.3118 0.4182-0.2178-0.3628-0.738-0.2112-0.89442-0.7169 0.24202-0.071 0.25412-0.1022 0.11922-0.2987 0.446-0.0476 0.4391 0.3576 0.7165 0.4779 0.2203 0.0425 0.2558-0.1021 0.477-0.0597 0.7112 0.5334 0.1054 1.4217-0.299 1.8529-0.528 0.0779-0.97742-0.0346-1.61 0-0.33014-0.2433-0.23076-0.4719-0.1789-0.8961 0.13308-1.085-0.4105-2.9613 0.17889-3.7656 0.68701-0.13165 1.6653-0.1481 2.3264 0.0597"/>
       </g>
       <g id="Group-211" fill="#1A1918" transform="translate(12.963 12.988)">
        <path id="Fill-209" d="m1.3946 0.2201c0.1055 0.23118 0.0562 0.59398 0 0.8364-0.81317 0.4156-0.77169-1.4693 0-0.8364"/>
       </g>
       <g id="Group-214" fill="#1A1918" transform="translate(23.333 13.854)">
        <path id="Fill-212" d="m0.33021 0.19109c0.30074-0.00259 0.38975 0.20694 0.5963 0.29872-0.15642 0.59999 0.30329 1.6399-0.11926 2.1517-0.23161-0.0269-0.47185-0.0459-0.65593-0.1195 0.02852-0.4745 0.33099-0.5879 0.35778-1.0157 0.02679-0.4346-0.35691-0.8615-0.17889-1.3152"/>
       </g>
       <g id="Group-217" fill="#1A1918" transform="translate(12.963 13.854)">
        <path id="Fill-215" d="m0.85823 0.72879c1.6446-0.19655 0.16767 1.4624 0 0"/>
       </g>
       <g id="Group-220" fill="#1A1918" transform="translate(.86420 17.317)">
        <path id="Fill-218" d="m0.90715 1.1499c-0.01988-0.19305 0.10545-0.44414-0.05963-0.71689 0.91258-1.0113 1.1909 1.0269 0.05963 0.71689"/>
       </g>
       <g id="Group-223" fill="#1A1918" transform="translate(8.642 17.317)">
        <path id="Fill-221" d="m0.40686 0.25361h0.65594c-0.0406 0.23984 0.057 0.34114 0.0605 0.53769-0.21434 0.07793-0.70693 0.12469-0.8357-0.05974-0.03888-0.23811 0.15815-0.23984 0.11926-0.47795"/>
       </g>
       <g id="Group-226" fill="#1A1918" transform="translate(0 17.317)">
        <path id="Fill-224" d="m0.93644 0.97097c0.15036 0.12813 0.41826 0.13943 0.53666 0.29873 0.0294 0.2684-0.0302 0.4476-0.0596 0.6572-0.1893 0.0692-0.4857 0.032-0.47706 0.2987 0.13996 0.7204 1.5858 0.3732 1.6705 1.136 0.0571 0.5221-0.6144 1.0711-1.4319 0.8364 0.0276-0.31 0.3932-0.2831 0.2981-0.7169-0.0562-0.2832-0.3344-0.0728-0.47703-0.1793-0.2074-0.3108 0.02853-1.065-0.4174-1.136 0.20568-0.5731-0.12531-1.1022-0.41741-1.3741 0.0363-0.43982 0.92554-0.39566 0.77518 0.17927"/>
       </g>
       <g id="Group-229" fill="#1A1918" transform="translate(17.284 18.183)">
        <path id="Fill-227" d="m0.1756 0.46358c0.71642 0.11602 1.438-0.01386 2.1475 0.17923 0.3172 1.3767-0.9843 1.5421-2.2071 1.3152-0.098543-0.5671-0.052741-1.1264 0.0596-1.4944"/>
       </g>
       <g id="Group-232" fill="#1A1918" transform="translate(1.7284 18.183)">
        <path id="Fill-230" d="m0.10267 1.5992c0.16333-0.355-0.2705-0.4693 0-0.7775 0.75271-0.32383 1.0033 0.9853 0 0.7775"/>
       </g>
       <g id="Group-235" fill="#1A1918" transform="translate(9.5062 19.049)">
        <path id="Fill-233" d="m1.6903 0.13568c-0.0052 0.08485-0.0104 0.16884 0.0596 0.17923-0.0579 0.35154-0.4917 0.65112-0.83567 0.35846-0.0337-0.10476 0.0726-0.35067-0.05963-0.35846 0.08556-0.284 0.5885-0.40349 0.8357-0.17923"/>
       </g>
       <g id="Group-238" fill="#1A1918" transform="translate(10.37 19.915)">
        <path id="Fill-236" d="m0.76637 0.34565c0.30073 0.40349 0.19185 1.1082-0.47704 1.0156-0.33963-0.45534 0.10284-0.90472 0.47704-1.0156"/>
       </g>
       <g id="Group-241" fill="#1A1918" transform="translate(8.642 19.915)">
        <path id="Fill-239" d="m1.1827 1.0626c-0.1245 0.2346-0.36647 0.3506-0.7761 0.2996 0.01556-0.2148-0.17888-0.2191-0.17888-0.41911 0.13913-0.45111 0.91348-0.34201 0.95498 0.11951"/>
       </g>
       <g id="Group-244" fill="#1A1918" transform="translate(18.148 22.512)">
        <path id="Fill-242" d="m1.0416 0.73632c-0.0311 0.22772-0.439 0.07793-0.59628 0.17923-0.03197-0.04762-0.06222-0.09697-0.06049-0.17923 0.10716-0.07619 0.5574-0.11516 0.65677 0"/>
       </g>
       <g id="Group-247" fill="#1A1918" transform="translate(23.333 23.378)">
        <path id="Fill-245" d="m3.253 1.9025c-0.2463 0.1187-0.4183 0.1394-0.776 0.239-0.0389 0.0606 0.0389 0.4355-0.1184 0.5377-0.255-0.0043-0.4174-0.0996-0.7165-0.0597 0.0389-0.2581-0.1028-0.3343-0.1788-0.478-0.47967 0.0935-1.1382-0.0199-1.432-0.2987-0.036312-0.3922 0.31023-0.7342 0.17974-1.1958 0.30679-0.07008 0.70345-0.05103 0.71555-0.41815 1.0811-0.23638 1.7405 0.0684 1.909 1.136 0.0665 0.252 0.5133 0.1221 0.4174 0.5377m-2.2668-0.7178c0.03978 0.5334 0.96098 0.6243 1.1935 0.1801 0.1296-0.2917-1.0673-0.51774-1.1935-0.1801"/>
       </g>
       <g id="Group-250" fill="#1A1918" transform="translate(18.148 23.378)">
        <path id="Fill-248" d="m2.5925 0.88655c-0.0251 0.11425-0.0216 0.25715-0.1789 0.23895 0.0899 0.2286 0.2472 0.3897 0.4174 0.5377 0.1919 0.013 0.2524-0.1056 0.4771-0.0597 0.0268 0.0537 0.0527 0.1073 0.1192 0.1195-0.1037 0.3783 0.115 0.5359 0.1789 1.0165-0.1616 0.1437-0.331-0.0658-0.5963 0-0.0129-0.1931 0.1054-0.2537 0.0596-0.4788-0.1538-0.2356-0.8106-0.3602-0.8953 0-0.0535 0.3134 0.293 0.2251 0.2394 0.5385h-1.0742v-0.3584c-0.2783-0.0936-0.66541-0.181-0.89442 0-0.39408-0.3793-0.23852-1.272-0.23852-1.7932 0.27654-0.0615 0.50901-0.16627 0.59629-0.41824 0.89615-0.19568 1.2574 0.32816 1.7898 0.65719m-1.5513 0.59745c0.28 0.1775 0.9636 0.1584 0.9549-0.2987-0.1305-0.26239-1.2211-0.38014-0.9549 0.2987"/>
       </g>
       <g id="Group-253" fill="#1A1918" transform="translate(13.827 23.378)">
        <path id="Fill-251" d="m2.38 0.22893c0.2463 0.07187 0.2454 0.39137 0.477 0.47795 0.3068 0.00866 0.2653-0.33162 0.4771-0.4182 0.6939 0.01991 0.7605 1.3602 0.4174 1.8529-0.3941 0.1368-0.8003-0.1264-1.0734-0.2987-0.1892 0.3636-0.108 0.716-0.4174 1.0156-0.5263 0.0182-1.2323 0.1507-1.7301 0-0.03801-0.942-0.09677-3.5976 0.955-2.0919 0.3387-0.13764 0.4493-0.50477 0.8944-0.53767m-1.3723 2.4504c0.6913-0.0242 0.286-1.1481 0.4779-1.6728-0.083 0.0017-0.1314-0.0286-0.1798-0.05978-0.47271 0.50828-0.108 1.123-0.2981 1.7326m1.1934-1.1949c0.2143 0.3923 0.8366 0.1853 0.9541-0.1792-0.2014-0.45285-0.8798-0.2892-0.9541 0.1792"/>
       </g>
       <g id="Group-256" fill="#1A1918" transform="translate(21.605 23.378)">
        <path id="Fill-254" d="m0.56735 2.6195c0.06049-0.3065-0.14692-0.8815-0.41741-1.1949 0.15815-0.48229-0.20482-0.83469 0.11926-1.1958 0.22901 0.09615 0.68444 0.28405 0.7752 0.65809 0.0008 0.00347-0.0009 0.83121 0 0.95591 0.0034 0.4398-0.08298 0.8243-0.47705 0.7767"/>
       </g>
       <g id="Group-259" fill="#1A1918" transform="translate(10.37 23.378)">
        <path id="Fill-257" d="m3.2718 2.6793c-0.3958 0.0381-0.2169-0.4996-0.656-0.4182-0.2903 0.0745 0.0994 0.3056-0.0605 0.4182-0.1037 0.1559-0.4148 0.1411-0.5954 0.0597-0.0821-0.2164-0.0242-0.5732-0.2394-0.6571-0.3335 0.064-0.1918 0.6043-0.2981 0.8961-0.3431-0.0459-0.56866 0.142-0.83483 0 0.20395-0.3455 0.3716-0.7463 0.17889-1.1949 0.0579-0.5887 1.7249-0.6173 1.8493-0.0597 0.0916-0.1273 0.2152-0.2225 0.2982-0.3585-0.1054-0.1541-0.2368-0.2814-0.3587-0.41818 0.0312-0.16884 0.1452-0.25456 0.1798-0.4182 1.2704-0.0381 0.8538 1.414 0.5367 2.1508"/>
       </g>
       <g id="Group-262" transform="translate(3.4568 25.976)">
        <mask id="mask-6" fill="white">
         <use xlink:href="#path-5"/>
        </mask>
        <path id="Fill-260" fill="#1A1918" mask="url(#mask-6)" d="m5.2343-1.1731c0.1054 0.39478 0.1486 0.95932-0.0597 1.3143 0.0026 0.17319 0.3371 0.14202 0.1789 0.29961-1.6687 0.09178-3.3824 0.22512-4.951-0.05975 0.11066-0.16884 0.19794-0.36019 0.41745-0.41907 0.34305 0.19482 0.73455 0.34028 1.3128 0.29958 0.3525-0.49007 0.2246-1.0918 0.6558-1.4945 0.8996 0.0052 1.6169 0.1256 2.4457 0.0598m-1.9687 0.41816c-0.1253 0.2511 0.1504 0.38704 0.2385 0.59744 0.471-0.04416 0.8133 0.02684 1.2531-0.11949 0.013-0.04589 0.0018-0.11775 0.0597-0.11948-0.0363-0.76113-0.9135-0.30219-1.5513-0.35847"/>
       </g>
       <g id="Group-265" fill="#1A1918" transform="translate(1.7284 25.11)">
        <path id="Fill-263" d="m0.8782 0.051172h0.2385c-0.0129 0.19222 0.1054 0.25283 0.0596 0.47795-0.17711-0.02164-0.29378-0.10303-0.35773-0.23897-0.00778-0.10737 0.07345-0.12642 0.05963-0.23898"/>
       </g>
       <g id="Group-268" fill="#1A1918" transform="translate(13.827 13.854)">
        <path id="Fill-266" d="m3.2149 2.0438c0.3198 0.3369 0.9895 0.1152 1.0137-0.3593h1.3724c0.1356 0.1238 0.1019 0.4165 0.2981 0.4788 0.4001-0.006 0.6248-0.2961 1.0146-0.2389 0.1253 0.0181 0.2739 0.2381 0.3577 0.2389 0.0994 0.0009 0.2377-0.2138 0.3578-0.2389 0.433-0.0927 0.7389 0.1601 1.133 0.2987-0.1729 0.6182 0.2515 1.2988-0.1789 1.6737 0.1521 0.2009 0.0026 0.3472 0.1789 0.4779 0.4537-0.2563-0.0761-1.0477 0.2385-1.3152 0.0398-0.2182-0.1288-0.2295-0.1184-0.4182 0.1789-0.0589 0.2359-0.2416 0.4174-0.2987 0.2152-0.0165 0.1366 0.2615 0.2377 0.3584-0.3777 1.1819-0.0752 2.7699-0.0597 3.7656-0.1391 0.2875-0.1849 0.626 0.0597 0.8364 0.267-0.561 0.3647-1.2918 1.1336-1.1957 0.316 0.0398 0.508 0.258 0.835 0.4191-0.167 0.368 0.372 0.7922-0.06 1.0754-0.454-0.0416-0.427-0.5663-0.834-0.6572-0.19 0.1541-0.165 0.6883-0.12 0.8961 0.459 0.3048 1.541 0.2572 2.029 0.0598-0.008-0.2511-0.232-0.2866-0.239-0.5377 0.324-0.3247 0.733 0.0329 0.835 0.2987-0.234 0.2234-0.31 0.6052-0.477 0.897 0.162 0.2148 0.922 0.1204 0.894-0.2398 0.007-0.2849-0.243-0.3126-0.298-0.5377 0.243-0.2147 0.286-0.6303 0.477-0.8962 0.254-0.0762 0.388 0.0139 0.597 0.1195-0.232 0.8087 0.375 1.4226-0.119 2.0322-0.464-0.0269-0.586 0.29-0.895 0.4182-0.24-0.039-0.707-0.3264-0.716-0.0598-0.256-0.0666-0.721-0.3454-0.775 0.0598-0.21 0.0104-0.196-0.2018-0.359-0.239-1.028-0.0415-1.9976 0.7247-2.4453-0.1792-0.0441-1.2841 0.108-2.679-0.1789-3.8254-0.3128 1.156 0.0994 2.6201-0.1789 4.1838-0.1944-0.1835-0.7259-0.0294-0.6559-0.4779-0.4796 0.1939-1.1019 0.9793-1.61 0.4182 0.0977-0.5758-0.1219-1.3585 0.5367-1.7334-0.1547-0.6867 0.3992-1.0356 1.0137-1.1352-0.0631-0.4208-0.0821-0.8953 0.1789-1.136-0.121-0.1376-0.2144-0.303-0.3578-0.4182-0.2213-0.0424-0.2558 0.1022-0.4771 0.0598-0.2679-0.4286-0.5565-0.8373-1.0145-1.0754-0.2204 0.0173-0.2143 0.2623-0.5367 0.1792-0.0959-0.6217 0.0259-1.4616-0.4174-1.7334-0.5712 0.2623-0.9039-0.084-1.6109-0.0598 0.0294 0.4884 0.497 0.5377 0.5972 0.9559-0.1884 0.3498-0.153 0.923-0.5375 1.0763-0.4736 0.0511-0.9792-0.2113-1.2531 0-0.0475 0.2069 0.0899 0.2294 0.0605 0.4182-0.2973 0.1697-0.2636 0.5515-0.656 0.6572-0.1728 0.0467-0.4191-0.078-0.5971 0-0.60322 0.2658-0.32927 0.9013-0.35779 1.5542 0.31029-0.1671 0.73539-0.2199 0.95489-0.478 0.5168 0.1585 0.6871 0.6659 1.0734 0.9559 0.4087 0.0104 0.7985 0.0026 1.1329-0.0597 0.3933 0.7481-0.2004 1.5377-0.3577 2.2711-0.3639-0.071-0.5471-0.1506-0.9541-0.0597-0.1668-0.1741 0.0544-0.2961 0.1193-0.4182-0.4382-0.2875-1.0103 0.1853-1.3128 0.4182-0.3189-0.2979-0.70601-0.5273-1.0733-0.7767-0.1953-0.826 0.25321-1.0174 0.41741-1.6139-0.01815-0.2208-0.25321-0.2243-0.35778-0.3585 0.00951-1.3222-0.32321-2.8071 0.05963-3.9448 0.17457-0.0148 0.20568 0.1125 0.29815 0.1792 0.16249-0.2061 0.63519-0.3567 0.89529-0.1195-0.1158 0.4433-0.2342 1.239 0.0596 1.4945 0.4304-0.1022 0.0061-0.7377 0.4175-0.8962 0.5116 0.1195 0.8425-0.0788 1.3118 0 0.1677-0.0831 0.1927-0.3091 0.1193-0.4788-0.4727 0.1195-0.9334 0.1273-1.4311 0-0.1936-0.2849-0.2628-0.6936-0.5972-0.8364-0.363 0.1143-0.77519 0.1801-1.0137 0.4182-0.2489-0.1741-0.23334-0.4096-0.1789-0.7767 0.35-0.2156 0.8314-0.0961 1.0733 0.1195 0.255-0.2615 0.1089-0.6624 0.1193-1.0762 0.5272-0.41566 1.8641-0.71178 1.909 0.1194 0.0216 0.3931-0.6213 0.5169-0.4174 1.0165zm3.1016 0.956c-0.0354 0.5532 0.7 0.3065 0.9549 0.4182 0.1262 0.1723 0.1573 0.4407 0.4175 0.4788 0.668-0.7144-0.5799-1.3577-1.3724-0.897zm-4.5327 5.0202c0.1599 0.1939 0.7951 0.1671 0.8944-0.0598-0.3456-0.1316-0.3828-0.5723-0.8348-0.5974-0.1564 0.1931 0.0959 0.4433-0.0596 0.6572zm6.1436 0.3584c-0.0769-0.4381 0.184-0.5697 0.0596-0.8961-0.4848-0.5559-0.8098 1.0935-0.0596 0.8961zm1.5503 0.239c0.3051 0.0147 0.3967 0.2407 0.7163 0.2398-0.034-0.1939 0.041-0.2788 0.06-0.4182-0.4176-0.1601-0.4617-0.6935-0.835-0.897-0.0104 0.2996-0.0994 0.8018 0.0587 1.0754zm-6.3224-0.5974h0.4174v-0.1195h-0.4174v0.1195z"/>
       </g>
       <g id="Group-271" fill="#1A1918" transform="translate(0 14.72)">
        <path id="Fill-269" d="m0.39952 0.16174h0.53667c0.00086 0.23898 0.17541 0.30305 0.23851 0.47795 0.0182 0.15759-0.0821 0.19655-0.23851 0.17923 0.46581 0.33078 1.6126-0.02164 2.0283 0.35938 0.3595 0.0406 0.3569-0.27972 0.6559-0.29963 1.0941 0.23723 2.4526-0.19742 3.2805 0.23983 0.3724 0.1091 0.522-0.22598 0.8357-0.23983 0.3214-0.01299 0.4839 0.25633 0.7751 0.29963 0.42 0.0614 0.7-0.1654 1.0742-0.29963 0.5971 0.47973 1.0711-0.02165 1.8481 0 0.137 0.12293 0.102 0.41643 0.299 0.47793 0.299-0.0796 0.477-0.2797 0.656-0.47793 0.401-0.02165 0.751 0.00606 1.014 0.11949 0.308 1.5862 0.033 3.182 0.119 4.7223-0.037 0.2606-0.293 0.3031-0.417 0.478 0.238 0.1541 0.627 0.3576 0.417 0.7766 0.286 0.4659 0.29 1.2122 0.12 1.7924-0.273 0.1601-0.676 0.1298-0.954 0-0.326 0.122-0.567 0.1853-0.895 0.1801-0.238 0.019-0.162-0.2762-0.359-0.2988-0.491 0.1282-1.141 0.1767-1.7884 0.0598-0.1323-0.1316 0.1045-0.1992 0.1192-0.3593-0.0008-0.2182-0.2791-0.1585-0.1789-0.478-0.8642 0.0286-0.324 0.6468-0.1192 1.0165-0.1651 0.207-0.7138 0.1316-0.8953 0-0.6836 0.2035-1.8261 0.484-2.266-0.0606-0.2661 0.0139-0.267 0.2918-0.4182 0.4191-0.3163-0.0416-0.2636-0.4529-0.5963-0.4788-0.528 0.0692-0.5134 0.6823-1.0734 0.7178-0.1305-0.1247 0.0294-0.1706 0-0.3585-0.1875 0.4312-1.018 0.9412-1.4319 0.4182-0.2679 0.1307-0.4287 0.3671-0.8945 0.2987-0.3854-0.6407 1.0613-1.5048-0.2385-1.9127-0.0294-0.3073 0.0562-0.5004 0.178-0.6571h0.5972c0.1953 0.0831 0.1141 0.4433 0.2981 0.5377 0.1279-1.1083 1.0042-0.8572 1.6109-0.2988 0.0432 0.3031-0.1486 0.3698-0.2394 0.5377 0.0683 0.1715 0.2558 0.2226 0.4779 0.239 0.1409-0.4953 0.1634-1.11 0.8945-1.0156 0.2627 0.2225 0.0389 0.6234 0.2385 0.8372 0.3975-0.1402 0.6006-0.4744 0.6559-0.9567-0.4468-0.2632-1.0802 0.0944-1.6696-0.0598-0.2956-0.4874-0.8867-0.3351-1.432-0.5974-0.089-0.1896-0.0302-0.5282-0.1193-0.7178 0.2878 0.0113 0.5704 0.2779 0.8349 0.1195-0.2291-0.2684-0.3466-0.6477-0.5367-0.9559-0.1409 0.1377-0.2765 0.2814-0.3578 0.4779-0.5928-0.1584-0.1192-0.8771-0.0596-1.2546 0.1867-0.0121 0.4381 0.0407 0.5367-0.0597 0.0302-0.4295-0.1141-0.6823-0.4175-0.7776 0.1297-0.2485 0.3077-0.4485 0.6568-0.4779 0.1971 0.0615 0.1781 0.3394 0.2377 0.5377 0.5868-0.207 1.1822-0.9308 1.8494-0.3585 0.2584-0.3126 0.1115-0.9611 0.0596-1.4338-0.5021-0.2104-0.6257 0.3844-0.9541 0.5377-0.5064-0.1169-0.6619 0.0796-0.9549 0.2987-0.5012-0.2771-1.1252-0.1472-1.61-0.3585-0.3275 0.0104-0.4001 0.2762-0.5972 0.4182-0.6213-0.168-1.152 0.381-1.4907-0.1792 0.00345-0.2953 0.24801-0.3498 0.35777-0.5386 0.18407-0.0095 0.33703 0.142 0.47703 0-0.1253-0.3714-0.98432-0.0086-1.133-0.3576 0.20745-0.1506 0.29128-0.42597 0.59634-0.47879-0.05618-0.18269-0.30506-0.1723-0.35778-0.35846 0.05012-0.12901 0.15469-0.20348 0.11926-0.41821m11.094 1.4348c0.63 0.1264 1.001 0.5117 1.432 0.8364 0.113-0.1455 0.018-0.4996 0.119-0.6581-0.513 0.007-1.147-0.652-1.551-0.1783m-3.1015 0.0597c0.1313 0.0987 0.4883 0.1844 0.6559 0.0597 0.0095-0.3143-0.5842-0.2969-0.6559-0.0597m2.1475-0.0597c0.006 0.2528 0.161 0.3567 0.358 0.4182 0.154-0.0849 0.284-0.1931 0.238-0.478-0.22-0.1212-0.421-0.0251-0.596 0.0598m-1.3715 0.8364c-0.9506 0.0961-1.3412-0.3689-1.909-0.6581-0.4545 0.0433-0.2013 0.7957-0.5366 0.9568 0.3422 0.6528 0.8961 0.1186 1.4907 0.0597 0.2264 0.291 0.0199 0.575 0.0596 1.0754 0.668 0.0676 2.1558 0.9784 0.8357 1.2555 0.0052 0.4676-0.3396 0.4667-0.6568 0.478-0.0311 0.2909 0.2541 0.2641 0.2385 0.5385-0.2394 0.6763-1.3395 0.491-1.6696 1.0754 0.1893 0.3481 0.019 1.0564 0.6559 0.9568-0.0363-0.4953 0.0303-0.8866 0.4771-0.897 0.2454 0.0727 0.1365 0.5013 0.3577 0.5974 0.3008-0.3316 0.8297-0.7022 1.3724-0.5974 0.025 0.2095 0.1179 0.6121 0.5369 0.5974 0.083-0.2953 0.064-0.6927 0.418-0.7169 0.223 0.1255 0.445 0.2563 0.417 0.4779 0.316-0.0779 0.305 0.1732 0.596 0.1195-0.114-0.3204-0.091-0.2823 0.06-0.5377-0.272-0.0667-0.297-0.3792-0.478-0.5377 0.108-0.6693 0.956-0.5974 1.015-1.3152-0.203-0.155-0.456-0.2598-0.716-0.3585 0.176-0.1342 0.111-0.3299 0-0.4779 0.527-0.181 1.327-0.5516 1.014-1.1958-0.362-0.0632-0.229 0.368-0.477 0.4182-0.226-0.0112-0.424-0.0519-0.596-0.1186 0.134-0.2312-0.071-0.2762-0.06-0.5385 0.113-0.2061 0.372-0.2641 0.418-0.5377-0.091-0.2087-0.346-0.252-0.657-0.239-0.21 0.4052-0.087 1.8209-1.014 1.2555 0.144-0.5585-0.362-0.7836-0.4173-1.4347-0.426-0.0684-0.6257 0.0909-0.7752 0.2987m-2.5658 1.7334c-0.598-0.271-1.0206 0.2096-1.5503 0.478 0.0501 0.9992 0.5228 1.4944 1.6108 1.3143 0.1979-0.1991 0.3206-0.4745 0.7752-0.4182-0.0674-0.5706-0.4165-1.1853-0.8357-1.3741m5.7273 2.6894c0.402 0.2052 0.506-0.3559 0.715-0.5386-0.38-0.155-0.631 0.213-0.715 0.5386m0.238 0.9559c-0.001 0.3004 0.087 0.5117 0.418 0.4779 0.11-0.1273 0.04-0.4372 0.059-0.6572-0.255-0.0372-0.384 0.0537-0.477 0.1793m-9.9017 0.4182h0.1789c0.0164-0.136-0.0147-0.2243-0.1193-0.239-0.019 0.0814-0.0847 0.1143-0.0596 0.239m5.5473 0.1792c0.2895 0.0294 0.3232-0.2338 0.2385-0.4182-0.2325-0.0173-0.3975 0.2286-0.2385 0.4182m-5.5473 1.0763c0.3595-0.097 0.4503-0.4659 0.8348-0.5377-0.0112-0.2312-0.0017-0.4408 0.0597-0.5983-0.3855 0.2666-0.9403 0.6312-0.8945 1.136"/>
       </g>
       <g id="Group-274" transform="translate(3.4568 25.976)">
        <mask id="mask-8" fill="white">
         <use xlink:href="#path-7"/>
        </mask>
        <path id="Stroke-272" stroke="#D9222A" stroke-width=".562" mask="url(#mask-8)" d="m0.27205 0.31543h21.776"/>
       </g>
      </g>
      <path id="Stroke-276" stroke="#273777" stroke-width=".843" d="m24.297 45.516c2.787 2.885 6.693 4.679 11.017 4.679 4.33 0 8.243-1.8 11.03-4.693"/>
      <path id="Stroke-278" stroke="#D9222A" stroke-width=".843" d="m24.035 45.355h22.54"/>
      <g id="Group-287" transform="translate(0 .034115)">
       <path id="Fill-279" fill="#273777" d="m18.071 40.495l1.759-0.586 0.218 0.656 0.359-0.12-0.587-1.763-0.358 0.119 0.219 0.659-1.758 0.586 0.148 0.449zm0.663 1.102c-0.102 0.27-0.082 0.565 0.059 0.882 0.14 0.314 0.344 0.523 0.613 0.628s0.568 0.084 0.898-0.062c0.332-0.148 0.548-0.359 0.65-0.631 0.103-0.271 0.084-0.565-0.056-0.88-0.077-0.174-0.172-0.316-0.285-0.425-0.085-0.083-0.187-0.147-0.306-0.194-0.12-0.048-0.243-0.073-0.368-0.075-0.169-0.002-0.359 0.043-0.566 0.135-0.324 0.145-0.538 0.352-0.639 0.622zm1.449-0.254c0.165 0.057 0.287 0.174 0.365 0.352 0.08 0.178 0.085 0.346 0.018 0.505-0.067 0.158-0.217 0.29-0.451 0.394-0.236 0.105-0.438 0.129-0.605 0.072-0.167-0.058-0.289-0.173-0.365-0.345-0.077-0.172-0.081-0.34-0.011-0.506 0.07-0.164 0.22-0.298 0.451-0.401 0.234-0.104 0.434-0.129 0.598-0.071zm-0.211 3.314l1.632-0.578-1.1 1.341 0.287 0.41 2.153-0.815-0.272-0.39-1.482 0.601 1.042-1.231-0.322-0.461-1.5 0.53 1.053-1.169-0.276-0.397-1.508 1.74 0.293 0.419zm1.672 2.262l1.061-0.998-0.416 1.685 0.323 0.346 1.627-1.53-0.3-0.319-1.086 1.021 0.432-1.72-0.314-0.335-1.626 1.529 0.299 0.321zm2.183 2.177l0.719 0.521c0.142 0.102 0.264 0.17 0.366 0.207 0.138 0.046 0.262 0.063 0.373 0.049 0.147-0.018 0.291-0.075 0.434-0.173 0.116-0.08 0.228-0.194 0.336-0.344 0.122-0.17 0.204-0.327 0.246-0.473 0.043-0.145 0.053-0.287 0.031-0.424-0.021-0.138-0.077-0.262-0.165-0.373-0.065-0.083-0.178-0.182-0.335-0.295l-0.698-0.506-1.307 1.811zm1.639-1.104c0.156 0.113 0.257 0.194 0.302 0.244 0.061 0.067 0.099 0.138 0.115 0.213 0.016 0.077 0.01 0.161-0.018 0.255s-0.093 0.21-0.194 0.35-0.193 0.241-0.278 0.304c-0.084 0.062-0.16 0.097-0.226 0.102-0.066 0.006-0.136-0.006-0.209-0.036-0.055-0.023-0.136-0.072-0.243-0.15l-0.286-0.206 0.865-1.2 0.172 0.124zm1.954 3.391l0.174-0.334-1.157-0.604 0.28-0.539 1.04 0.542 0.173-0.334-1.039-0.542 0.228-0.439 1.117 0.582 0.175-0.336-1.536-0.801-1.03 1.983 1.575 0.822zm1.495 0.648l1.606-1.764-0.464-0.186-1.145 1.322 0.066-1.755-0.475-0.191-0.055 2.386 0.467 0.188zm2.862 0.832l0.086-0.367-1.27-0.298 0.139-0.593 1.141 0.268 0.086-0.366-1.141-0.269 0.113-0.482 1.226 0.288 0.086-0.368-1.686-0.396-0.509 2.176 1.729 0.407zm2.165 0.309l0.048-0.373-1.162-0.151 0.235-1.824-0.468-0.061-0.283 2.198 1.63 0.211zm0.673-0.224c0.21 0.198 0.488 0.292 0.836 0.284 0.343-0.009 0.614-0.118 0.814-0.327 0.199-0.209 0.294-0.494 0.285-0.854-0.01-0.364-0.12-0.646-0.332-0.845s-0.489-0.293-0.833-0.285c-0.19 0.006-0.357 0.039-0.501 0.102-0.108 0.047-0.207 0.116-0.297 0.208-0.089 0.093-0.159 0.197-0.209 0.312-0.067 0.157-0.098 0.349-0.092 0.576 0.009 0.356 0.119 0.632 0.329 0.829zm0.32-1.438c0.115-0.131 0.27-0.198 0.465-0.203 0.194-0.005 0.351 0.053 0.471 0.176 0.121 0.123 0.184 0.313 0.191 0.569 0.007 0.259-0.048 0.455-0.166 0.588-0.116 0.133-0.269 0.201-0.457 0.206s-0.345-0.057-0.47-0.184-0.191-0.317-0.198-0.571c-0.007-0.257 0.049-0.45 0.164-0.581zm2.607 1.537l-0.107-0.836 0.304-0.039c0.212-0.028 0.372-0.059 0.481-0.095 0.08-0.028 0.157-0.073 0.229-0.136 0.073-0.064 0.129-0.145 0.169-0.245 0.04-0.099 0.05-0.217 0.033-0.353-0.023-0.177-0.087-0.314-0.19-0.414-0.104-0.1-0.224-0.157-0.362-0.174-0.089-0.011-0.275 0.002-0.56 0.039l-0.75 0.097 0.285 2.217 0.468-0.061zm-0.011-1.871c0.168-0.022 0.281-0.031 0.338-0.029 0.077 0.004 0.145 0.029 0.201 0.075s0.089 0.109 0.099 0.19c0.009 0.065-0.001 0.125-0.03 0.179-0.029 0.053-0.073 0.097-0.132 0.128s-0.181 0.059-0.365 0.082l-0.257 0.033-0.08-0.629 0.226-0.029zm2.235 1.445l-0.486-1.69 0.931 1.562 0.436-0.126-0.042-1.82 0.487 1.691 0.421-0.122-0.619-2.147-0.679 0.197 0.019 1.581-0.829-1.348-0.677 0.197 0.617 2.147 0.421-0.122zm3.906-1.504l-0.156-0.342-1.186 0.546-0.253-0.554 1.066-0.49-0.158-0.342-1.065 0.49-0.206-0.45 1.144-0.526-0.157-0.344-1.573 0.724 0.931 2.031 1.613-0.743zm0.837-0.504l-0.794-1.221 1.582 0.707 0.397-0.259-1.218-1.873-0.367 0.24 0.813 1.25-1.613-0.728-0.385 0.251 1.218 1.873 0.367-0.24zm2.45-1.797l-1.225-1.394 0.519-0.457-0.249-0.284-1.393 1.228 0.25 0.284 0.519-0.459 1.226 1.394 0.353-0.312zm1.864-1.865l-0.722-0.617 0.633-0.743-0.288-0.246-0.631 0.744-0.402-0.344 0.732-0.86-0.287-0.245-1.038 1.22 1.697 1.45 0.306-0.359zm0.169-1.83c0.21 0.133 0.379 0.222 0.503 0.263 0.084 0.029 0.178 0.036 0.28 0.021s0.204-0.058 0.308-0.129c0.103-0.072 0.214-0.202 0.333-0.39 0.098-0.157 0.159-0.297 0.182-0.418s0.021-0.231-0.007-0.33c-0.027-0.098-0.082-0.188-0.161-0.269-0.081-0.08-0.234-0.192-0.46-0.335l-0.991-0.627-0.252 0.4 1.044 0.659c0.15 0.094 0.252 0.168 0.31 0.221 0.057 0.052 0.089 0.121 0.097 0.207 0.008 0.085-0.024 0.184-0.096 0.298-0.07 0.111-0.148 0.184-0.236 0.22-0.087 0.034-0.174 0.036-0.262 0.004-0.055-0.021-0.163-0.082-0.325-0.185l-1.022-0.645-0.251 0.399 1.006 0.636zm2.387-1.964l-1.329-0.592 1.712-0.269 0.192-0.433-2.038-0.908-0.178 0.401 1.361 0.606-1.75 0.268-0.185 0.42 2.037 0.908 0.178-0.401zm0.805-1.879l0.28-0.844c0.055-0.165 0.085-0.302 0.087-0.411 0.004-0.146-0.018-0.269-0.064-0.371-0.061-0.136-0.16-0.256-0.295-0.363-0.111-0.088-0.253-0.16-0.428-0.218-0.198-0.066-0.373-0.098-0.524-0.095-0.151 0.004-0.289 0.037-0.414 0.098-0.123 0.061-0.225 0.152-0.306 0.269-0.058 0.089-0.119 0.225-0.18 0.41l-0.272 0.819 2.116 0.706zm-1.543-1.236c0.061-0.183 0.108-0.304 0.143-0.362 0.045-0.078 0.101-0.136 0.168-0.174 0.068-0.038 0.15-0.057 0.248-0.059 0.097-0.001 0.228 0.026 0.392 0.081 0.163 0.054 0.288 0.112 0.372 0.175 0.085 0.061 0.14 0.123 0.166 0.185 0.025 0.061 0.034 0.131 0.027 0.21-0.004 0.06-0.027 0.153-0.07 0.278l-0.11 0.334-1.402-0.467 0.066-0.201z"/>
       <path id="Fill-281" fill="#273777" d="m28.221 61.139l-0.744 2.724 1.219 0.335 1.102-4.031 0.675 0.185 0.152-0.553-5.724-1.569-0.151 0.552 3.828 1.05-0.168 0.617c-0.445-0.294-0.896-0.503-1.354-0.629-0.647-0.177-1.202-0.184-1.662-0.021-0.537 0.19-0.887 0.585-1.051 1.187-0.133 0.485-0.085 0.919 0.144 1.305 0.229 0.387 0.596 0.642 1.101 0.768 1.009 0.25 1.664-0.144 1.961-1.184 0.157-0.551-0.022-1.016-0.54-1.395 0.555 0.191 0.959 0.411 1.212 0.659zm-1.766-0.316c0.203 0.055 0.245 0.325 0.128 0.806-0.126 0.533-0.328 0.761-0.607 0.685-0.159-0.043-0.254-0.182-0.286-0.415-0.027-0.178-0.012-0.356 0.043-0.532 0.218-0.699 0.617-0.975 1.199-0.829l-0.627 0.273c0.055-0.005 0.105 0 0.15 0.012zm0.501-2.72c0.113-0.048 0.235-0.063 0.366-0.045 0.261 0.037 0.508 0.192 0.742 0.463l0.63 0.908 1.467 0.208-1.162-1.524c-0.235-0.309-0.617-0.502-1.145-0.577-0.306-0.043-0.58-0.037-0.82 0.019l-0.078 0.548zm6.486 5.529c-0.487-0.018-0.72-0.292-0.7-0.819l0.085-2.222 1.431 0.054-0.101 2.642c-0.108 0.244-0.347 0.359-0.715 0.345zm-1.521 0.362c0.302 0.298 0.689 0.456 1.162 0.474 0.395 0.015 0.742-0.086 1.04-0.304l-0.025 0.658 1.193 0.046 0.161-4.177 0.691 0.027 0.021-0.572-5.012-0.193-0.022 0.572 0.454 0.017-0.089 2.328c-0.017 0.451 0.124 0.826 0.426 1.124zm6.386 0.657l-0.479-4.152 0.695-0.08-0.064-0.569-2.306 0.266 0.066 0.569 0.353-0.04 0.479 4.151 1.256-0.145zm3.768-1.911l1.2-0.329-0.252-0.92c-0.107-0.393-0.005-0.632 0.306-0.717 0.184-0.051 0.348-0.039 0.49 0.033l0.687 2.513 1.285-0.352-1.101-4.032 0.667-0.182-0.151-0.553-6.714 1.841 0.151 0.552 4.761-1.305 0.207 0.755c-0.161-0.089-0.359-0.1-0.594-0.036-0.234 0.064-0.426 0.186-0.575 0.366-0.149 0.179-0.212 0.385-0.19 0.616-0.184-0.247-0.432-0.411-0.744-0.493-0.312-0.083-0.628-0.081-0.945 0.006-0.565 0.155-0.946 0.487-1.141 0.996-0.164 0.447-0.168 0.956-0.013 1.527 0.16 0.583 0.507 0.992 1.042 1.228 0.502 0.212 1.061 0.233 1.676 0.064 0.299-0.081 0.596-0.206 0.891-0.373l0.029-0.868c-0.367 0.305-0.7 0.498-0.998 0.581-0.66 0.181-1.114-0.18-1.36-1.082-0.079-0.288-0.109-0.561-0.09-0.816 0.025-0.357 0.162-0.569 0.41-0.637 0.19-0.052 0.366 0.005 0.528 0.172 0.132 0.135 0.225 0.301 0.279 0.497l0.259 0.948z"/>
       <path id="Fill-283" fill="#273777" d="m9.248 26.939l2.66 0.663 0.354-1.425-3.9369-0.98 0.1961-0.79-0.5392-0.135-1.6601 6.688 0.5392 0.135 1.1105-4.474 0.6024 0.15c-0.2973 0.533-0.5125 1.066-0.6456 1.6-0.1875 0.757-0.2057 1.394-0.0544 1.913 0.1745 0.603 0.5556 0.978 1.1433 1.124 0.4727 0.118 0.9014 0.031 1.2847-0.259 0.385-0.29 0.643-0.73 0.776-1.32 0.267-1.177-0.106-1.901-1.1213-2.169-0.5376-0.142-0.9973 0.097-1.381 0.719 0.1996-0.652 0.4243-1.132 0.6723-1.44zm-0.3474 2.052c0.0588-0.237 0.3241-0.304 0.7951-0.203 0.5213 0.106 0.7403 0.323 0.6593 0.648-0.046 0.186-0.183 0.306-0.413 0.359-0.1754 0.042-0.35 0.039-0.522-0.012-0.681-0.201-0.9446-0.641-0.789-1.32l0.2549 0.702c-0.0026-0.064 0.0018-0.122 0.0147-0.174zm1.7964-5.679c-0.013 0.432 0.175 0.764 0.561 0.996 0.372 0.222 0.745 0.246 1.12 0.074s0.703-0.49 0.983-0.955c0.71-1.195 0.485-2.154-0.674-2.873-0.824-0.512-1.452-0.565-1.885-0.159l0.663-1.073 3.448 2.142 0.784-1.268-3.448-2.14 0.415-0.673-0.472-0.294-3.5567 5.752 0.4727 0.293 0.964-1.56c0.477-0.406 1.136-0.338 1.978 0.203 0.757 0.479 1.024 0.91 0.802 1.294-0.219 0.376-0.533 0.438-0.942 0.184-0.21-0.131-0.322-0.312-0.334-0.545-0.012-0.232 0.075-0.47 0.262-0.714l-0.65 0.029c-0.318 0.468-0.481 0.897-0.491 1.287zm6.756-11.015l-4.226 3.746 0.368 0.417 1.451-1.286c0.365-0.15 0.674-0.081 0.927 0.206 0.177 0.2 0.239 0.425 0.187 0.677-0.051 0.252-0.201 0.489-0.452 0.711-0.273 0.242-0.647 0.449-1.123 0.623l0.578 0.653c0.045-0.04 0.09-0.08 0.137-0.121 0.188-0.167 0.519-0.209 0.991-0.124 0.71 0.123 1.17 0.183 1.38 0.178 0.591-0.021 1.122-0.24 1.591-0.655 0.257-0.228 0.503-0.52 0.738-0.878l-0.296-0.802c-0.183 0.426-0.366 0.721-0.55 0.884-0.262 0.233-0.714 0.269-1.354 0.11-0.341-0.086-0.533-0.131-0.576-0.134-0.211-0.02-0.45 0.039-0.716 0.176 0.399-0.378 0.679-0.742 0.839-1.091 0.215-0.462 0.19-0.842-0.071-1.138-0.132-0.148-0.312-0.248-0.541-0.301-0.23-0.052-0.442-0.021-0.636 0.093l1.722-1.527-0.368-0.417zm5.558-3.0376c-0.256-0.0416-0.405-0.1498-0.445-0.3221-0.11-0.4477 0.275-0.8815 1.157-1.3014 0.945-0.4494 1.836-0.4494 2.675 0.0008l1.177-1.0442c-0.693-0.1965-1.53-0.2086-2.513-0.0355-0.85 0.1507-1.589 0.3905-2.219 0.7178-0.624 0.3247-1.076 0.6624-1.356 1.0157-0.372 0.4641-0.418 0.9178-0.14 1.3611 0.072 0.116 0.199 0.1887 0.383 0.2182l-0.394 0.1872 0.239 0.503 0.352-0.167 1.741 3.67 1.323-0.63-1.741-3.6706 0.723-0.3446-0.238-0.5031-0.724 0.3447zm4.431-0.5109c-0.241 0.013-0.477 0.0494-0.705 0.11-0.642 0.1697-1.083 0.4571-1.324 0.8624-0.24 0.4061-0.284 0.8701-0.131 1.3921 0.152 0.517 0.447 0.876 0.887 1.076 0.439 0.201 0.977 0.218 1.611 0.05 0.435-0.115 0.716-0.247 0.842-0.395l0.096 0.358 1.416-0.374-1.034-3.9298 0.775-0.2043-0.142-0.5386-5.135 1.356 0.142 0.5385 2.943-0.7775 0.746 2.8357c-0.175 0.206-0.373 0.338-0.594 0.397-0.281 0.074-0.522 0.01-0.725-0.193-0.16-0.156-0.272-0.36-0.339-0.611-0.19-0.7239 0.02-1.1698 0.631-1.3369 0.163-0.0433 0.33-0.0493 0.505-0.0182l-0.465-0.5974zm6.392-1.0174c-0.235-0.0545-0.467-0.0848-0.696-0.09-0.656-0.0156-1.171 0.1454-1.546 0.4831-0.35 0.3135-0.532 0.7421-0.545 1.2867-0.013 0.5377 0.202 0.9641 0.643 1.2771 0.404 0.288 0.944 0.44 1.621 0.456 0.402 0.01 0.662-0.025 0.778-0.103l-0.009 0.372 1.487 0.034 0.067-2.8379c0.227-0.0996 0.456-0.1472 0.688-0.142 0.597 0.0147 0.891 0.3489 0.883 1.0053-0.006 0.2718-0.062 0.5056-0.166 0.7016-0.145 0.274-0.36 0.408-0.645 0.402-0.193-0.004-0.368-0.071-0.527-0.198l0.279 0.805c0.129 0.021 0.259 0.034 0.388 0.037 0.634 0.014 1.164-0.145 1.591-0.479 0.428-0.334 0.652-0.7587 0.672-1.2738 0.019-0.4953-0.155-0.9057-0.521-1.2313-0.367-0.3247-0.855-0.4944-1.465-0.5091-0.419-0.0095-0.807 0.071-1.162 0.2424l0.013-0.5844 3.742 0.0874 0.013-0.5567-8.307-0.1948-0.013 0.5567 3.078 0.0719-0.07 3.0067c-0.183 0.094-0.372 0.139-0.567 0.135-0.301-0.007-0.526-0.137-0.678-0.389-0.123-0.2019-0.182-0.44-0.175-0.7128 0.006-0.2796 0.065-0.5178 0.176-0.7134 0.152-0.2641 0.376-0.3923 0.674-0.3853 0.167 0.0043 0.353 0.058 0.557 0.1619l-0.258-0.7213zm7.374 4.4599l0.849-3.9741 0.794 0.1705 0.117-0.5437-2.63-0.5646-0.116 0.5447 0.402 0.0857-0.849 3.9745 1.433 0.307zm5.097-0.772l1.354 0.645-1.034 2.179 1.344 0.64 1.742-3.671 0.734 0.35 0.239-0.503-6.513-3.1019-0.238 0.5031 1.343 0.6398c0.158 0.0953 0.253 0.2503 0.286 0.465 0.031 0.1862 0.01 0.3541-0.062 0.505-0.214 0.453-0.628 0.532-1.242 0.24-0.261-0.124-0.544-0.3207-0.848-0.5883l-0.382 0.8043c0.089 0.008 0.172 0.03 0.248 0.067 0.241 0.114 0.42 0.422 0.537 0.924 0.209 0.894 0.321 1.362 0.336 1.402 0.202 0.535 0.535 0.912 0.996 1.132 0.207 0.099 0.44 0.169 0.699 0.21l0.565-0.471c-0.191-0.022-0.346-0.062-0.463-0.117-0.207-0.099-0.358-0.305-0.455-0.618-0.042-0.143-0.08-0.383-0.113-0.722-0.047-0.454-0.291-0.84-0.731-1.159 0.349 0.118 0.623 0.19 0.822 0.217 0.358 0.047 0.666-0.005 0.924-0.157-0.029 0.042-0.058 0.103-0.088 0.185zm0.356-0.509c0.063-0.045 0.112-0.103 0.147-0.176 0.066-0.14 0.074-0.321 0.025-0.543-0.049-0.2225-0.148-0.3853-0.296-0.4901l1.83 0.8711-0.445 0.939-1.261-0.601zm9.312 5.948c-0.115-0.213-0.247-0.407-0.394-0.582-0.425-0.501-0.887-0.78-1.388-0.836-0.467-0.055-0.908 0.093-1.322 0.445-0.41 0.348-0.586 0.791-0.527 1.33 0.054 0.494 0.299 0.999 0.736 1.517 0.261 0.308 0.458 0.479 0.593 0.515l-0.282 0.24 0.961 1.138 2.163-1.835c0.224 0.103 0.413 0.244 0.562 0.421 0.386 0.456 0.331 0.899-0.163 1.329-0.207 0.175-0.419 0.289-0.634 0.341-0.302 0.073-0.545 0.002-0.729-0.216-0.124-0.147-0.192-0.323-0.202-0.526l-0.415 0.743c0.069 0.111 0.146 0.216 0.23 0.316 0.41 0.484 0.881 0.776 1.414 0.873 0.533 0.099 0.999-0.015 1.395-0.342 0.383-0.315 0.574-0.717 0.574-1.207-0.001-0.491-0.198-0.969-0.593-1.436-0.271-0.321-0.588-0.558-0.952-0.71l0.446-0.378 2.418 2.862 0.424-0.36-5.37-6.354-0.423 0.36 1.989 2.354-2.29 1.944c-0.192-0.075-0.351-0.187-0.477-0.335-0.194-0.231-0.247-0.486-0.16-0.767 0.068-0.227 0.208-0.427 0.415-0.604 0.213-0.181 0.43-0.294 0.651-0.341 0.296-0.063 0.542 0.021 0.733 0.248 0.109 0.128 0.192 0.303 0.25 0.525l0.367-0.672zm1.254 8.679l3.735-1.59 0.317 0.75 0.511-0.219-1.051-2.479-0.512 0.217 0.162 0.38-3.735 1.59 0.573 1.351zm4.061-5.476c0.1 0.093 0.177 0.212 0.228 0.356 0.105 0.287 0.103 0.617-0.004 0.99l-0.441 1.09 0.587 1.615 0.686-1.935c0.14-0.392 0.104-0.88-0.108-1.462-0.122-0.337-0.27-0.617-0.443-0.839l-0.505 0.185zm-1.738 9.1c-0.072-0.289-0.06-0.53 0.035-0.723s0.259-0.319 0.493-0.377l1.697-0.423-1.677 2.273c-0.255-0.055-0.438-0.305-0.548-0.75zm2.687-3.67l-0.539 0.134 0.127 0.512-2.193 0.546c-0.42 0.105-0.7 0.422-0.842 0.954-0.126 0.465-0.121 0.972 0.015 1.521 0.178 0.72 0.511 1.216 0.999 1.488l0.785-0.184 1.71-2.411 0.471 1.892 0.539-0.134-1.072-4.318zm-3.413 6.61l4.043-0.331 0.067 0.811 0.554-0.046-0.22-2.686-0.554 0.046 0.034 0.412-4.044 0.331 0.12 1.463z"/>
       <path id="Stroke-285" stroke="#273777" stroke-width=".8" d="m35.017 69.581c19.035 0 34.465-15.459 34.465-34.531 0-19.071-15.43-34.532-34.465-34.532-19.035 0.0003-34.465 15.461-34.465 34.532-0.00004 19.072 15.43 34.531 34.465 34.531z"/>
      </g>
     </g>
    </g>
   </g>
  </g>
 </g>
</svg>
